SplineFontDB: 1.0
FontName: THFahkwang-BoldItalic
FullName: THFahkwang-BoldItalic
FamilyName: TH Fah kwang
Weight: Bold
Copyright: Copyright (c) 2006 by Department of Intellectual Property (DIP), Ministry of Commerce and Software Industry Promotion Agency (Public Organization) (SIPA). All rights reserved.
Version: 1.1
ItalicAngle: -10
UnderlinePosition: -35
UnderlineWidth: 30
Ascent: 800
Descent: 200
Order2: 1
XUID: [1021 375 425136265 4198066]
FSType: 0
OS2Version: 3
OS2_WeightWidthSlopeOnly: 0
OS2_UseTypoMetrics: 1
CreationTime: 1158373020
ModificationTime: 1174462583
PfmFamily: 17
TTFWeight: 700
TTFWidth: 5
LineGap: 60
VLineGap: 0
Panose: 2 0 5 6 0 0 0 2 0 4
OS2TypoAscent: 0
OS2TypoAOffset: 1
OS2TypoDescent: 0
OS2TypoDOffset: 1
OS2TypoLinegap: 0
OS2WinAscent: -5
OS2WinAOffset: 1
OS2WinDescent: -231
OS2WinDOffset: 1
HheadAscent: -5
HheadAOffset: 1
HheadDescent: 231
HheadDOffset: 1
OS2SubXSize: 700
OS2SubYSize: 650
OS2SubXOff: 0
OS2SubYOff: 140
OS2SupXSize: 700
OS2SupYSize: 650
OS2SupXOff: 0
OS2SupYOff: 477
OS2StrikeYSize: 30
OS2StrikeYPos: 250
OS2FamilyClass: 773
OS2Vendor: 'ipth'
ScriptLang: 2
 1 latn 1 dflt 
 0 
ChainSub: coverage 0 0 'liga' 0 0 0 1
 1 0 1
  Coverage: 64 uni0E48.alt2 uni0E49.alt2 uni0E4A.alt2 uni0E4B.alt2 uni0E4C.alt2
  FCoverage: 7 uni0E33
 1
  SeqLookup: 0 'L026'
EndFPST
ChainSub: coverage 0 0 'liga' 0 0 0 1
 1 1 0
  Coverage: 7 uni0E47
  BCoverage: 12 uni0E2C.alt1
 1
  SeqLookup: 0 'L025'
EndFPST
ChainSub: coverage 0 0 'liga' 0 0 0 1
 1 0 1
  Coverage: 7 uni0E2C
  FCoverage: 39 uni0E34 uni0E35 uni0E36 uni0E37 uni0E47
 1
  SeqLookup: 0 'L025'
EndFPST
ChainSub: coverage 0 0 'liga' 0 0 0 1
 1 0 1
  Coverage: 15 uni0E0E uni0E0F
  FCoverage: 38 uni0E38.alt1 uni0E39.alt1 uni0E3A.alt1
 1
  SeqLookup: 0 'L025'
EndFPST
ChainSub: coverage 0 0 'liga' 0 0 0 1
 1 1 0
  Coverage: 5 a b c
  BCoverage: 23 uni0E1B uni0E1D uni0E1F
 1
  SeqLookup: 0 'L025'
EndFPST
ChainSub: coverage 0 0 'liga' 0 0 0 1
 1 0 1
  Coverage: 5 a b c

StartChar: .notdef
Encoding: 65536 -1 0
Width: 376
Flags: W
Fore
0 1 m 1,0,-1
 90 511 l 1,1,-1
 466 511 l 1,2,-1
 376 1 l 1,3,-1
 0 1 l 1,0,-1
384 472 m 1,4,-1
 156 472 l 1,5,-1
 239 299 l 1,6,-1
 384 472 l 1,4,-1
203 254 m 1,7,-1
 122 423 l 1,8,-1
 63 87 l 1,9,-1
 203 254 l 1,7,-1
78 38 m 1,10,-1
 307 38 l 1,11,-1
 224 211 l 1,12,-1
 78 38 l 1,10,-1
259 254 m 1,13,-1
 342 84 l 1,14,-1
 402 424 l 1,15,-1
 259 254 l 1,13,-1
EndSplineSet
EndChar
StartChar: numbersign
Encoding: 35 35 4
Width: 504
Flags: W
Fore
406 269 m 1,0,-1
 377 179 l 1,1,-1
 449 179 l 1,2,-1
 441 136 l 1,3,-1
 362 136 l 1,4,-1
 319 0 l 1,5,-1
 259 0 l 1,6,-1
 302 136 l 1,7,-1
 230 136 l 1,8,-1
 186 0 l 1,9,-1
 127 0 l 1,10,-1
 170 136 l 1,11,-1
 90 136 l 1,12,-1
 98 179 l 1,13,-1
 185 179 l 1,14,-1
 214 269 l 1,15,-1
 134 269 l 1,16,-1
 142 313 l 1,17,-1
 228 313 l 1,18,-1
 271 448 l 1,19,-1
 331 448 l 1,20,-1
 288 313 l 1,21,-1
 360 313 l 1,22,-1
 404 448 l 1,23,-1
 463 448 l 1,24,-1
 420 313 l 1,25,-1
 492 313 l 1,26,-1
 484 269 l 1,27,-1
 406 269 l 1,0,-1
274 269 m 1,28,-1
 245 179 l 1,29,-1
 317 179 l 1,30,-1
 347 269 l 1,31,-1
 274 269 l 1,28,-1
EndSplineSet
EndChar
StartChar: dollar
Encoding: 36 36 5
Width: 508
Flags: W
Fore
485 146 m 0,0,1
 479 111 479 111 459 87 c 128,-1,2
 439 63 439 63 411.5 47 c 128,-1,3
 384 31 384 31 352.5 23 c 128,-1,4
 321 15 321 15 291 12 c 1,5,-1
 279 -54 l 1,6,-1
 229 -54 l 1,7,-1
 240 11 l 1,8,9
 208 13 208 13 177.5 22 c 128,-1,10
 147 31 147 31 123 49 c 128,-1,11
 99 67 99 67 85.5 93.5 c 128,-1,12
 72 120 72 120 75 156 c 1,13,-1
 162 156 l 1,14,15
 156 110 156 110 184.5 80 c 128,-1,16
 213 50 213 50 268 50 c 0,17,18
 287 50 287 50 308.5 54 c 128,-1,19
 330 58 330 58 349 67.5 c 128,-1,20
 368 77 368 77 382.5 92.5 c 128,-1,21
 397 108 397 108 401 132 c 0,22,23
 405 155 405 155 384.5 168.5 c 128,-1,24
 364 182 364 182 332 192 c 128,-1,25
 300 202 300 202 261.5 210.5 c 128,-1,26
 223 219 223 219 191.5 232 c 128,-1,27
 160 245 160 245 141 266 c 128,-1,28
 122 287 122 287 128 322 c 0,29,30
 134 354 134 354 154 376 c 128,-1,31
 174 398 174 398 201.5 412 c 128,-1,32
 229 426 229 426 259.5 432.5 c 128,-1,33
 290 439 290 439 316 441 c 1,34,-1
 327 503 l 1,35,-1
 377 503 l 1,36,-1
 366 440 l 1,37,38
 424 434 424 434 462.5 405.5 c 128,-1,39
 501 377 501 377 513 320 c 1,40,-1
 431 320 l 1,41,42
 426 356 426 356 403 379 c 128,-1,43
 380 402 380 402 329 402 c 0,44,45
 313 402 313 402 294.5 398.5 c 128,-1,46
 276 395 276 395 258.5 387.5 c 128,-1,47
 241 380 241 380 228.5 366.5 c 128,-1,48
 216 353 216 353 212 334 c 0,49,50
 209 315 209 315 229.5 304 c 128,-1,51
 250 293 250 293 282.5 284.5 c 128,-1,52
 315 276 315 276 353 267 c 128,-1,53
 391 258 391 258 422.5 243.5 c 128,-1,54
 454 229 454 229 472.5 206 c 128,-1,55
 491 183 491 183 485 146 c 0,0,1
EndSplineSet
EndChar
StartChar: percent
Encoding: 37 37 6
Width: 549
Flags: W
Fore
547 132 m 0,0,1
 542 105 542 105 529 81 c 128,-1,2
 516 57 516 57 497 39 c 128,-1,3
 478 21 478 21 454.5 10 c 128,-1,4
 431 -1 431 -1 406 -1 c 0,5,6
 380 -1 380 -1 360.5 10 c 128,-1,7
 341 21 341 21 328.5 39 c 128,-1,8
 316 57 316 57 311.5 81 c 128,-1,9
 307 105 307 105 312 132 c 0,10,11
 316 159 316 159 329.5 183 c 128,-1,12
 343 207 343 207 361.5 225 c 128,-1,13
 380 243 380 243 403.5 254 c 128,-1,14
 427 265 427 265 453 265 c 0,15,16
 478 265 478 265 497.5 254 c 128,-1,17
 517 243 517 243 529.5 225 c 128,-1,18
 542 207 542 207 546.5 183 c 128,-1,19
 551 159 551 159 547 132 c 0,0,1
154 -11 m 1,20,-1
 95 -11 l 1,21,-1
 471 460 l 1,22,-1
 531 460 l 1,23,-1
 154 -11 l 1,20,-1
314 317 m 256,24,25
 309 290 309 290 296 266 c 128,-1,26
 283 242 283 242 264.5 224 c 128,-1,27
 246 206 246 206 222.5 195 c 128,-1,28
 199 184 199 184 174 184 c 0,29,30
 148 184 148 184 128.5 195 c 128,-1,31
 109 206 109 206 96.5 224 c 128,-1,32
 84 242 84 242 79 266 c 128,-1,33
 74 290 74 290 79 317 c 256,34,35
 84 344 84 344 97 368 c 128,-1,36
 110 392 110 392 129 410 c 128,-1,37
 148 428 148 428 171.5 439 c 128,-1,38
 195 450 195 450 221 450 c 0,39,40
 246 450 246 450 265.5 439 c 128,-1,41
 285 428 285 428 297.5 410 c 128,-1,42
 310 392 310 392 314.5 368 c 128,-1,43
 319 344 319 344 314 317 c 256,24,25
480 132 m 256,44,45
 490 188 490 188 481 208.5 c 128,-1,46
 472 229 472 229 447 229 c 0,47,48
 423 229 423 229 406.5 208.5 c 128,-1,49
 390 188 390 188 380 132 c 256,50,51
 370 76 370 76 379 56 c 128,-1,52
 388 36 388 36 413 36 c 256,53,54
 438 36 438 36 454 56 c 128,-1,55
 470 76 470 76 480 132 c 256,44,45
247 317 m 256,56,57
 257 373 257 373 248 393 c 128,-1,58
 239 413 239 413 214 413 c 0,59,60
 190 413 190 413 173.5 393 c 128,-1,61
 157 373 157 373 147 317 c 256,62,63
 137 261 137 261 146 240.5 c 128,-1,64
 155 220 155 220 180 220 c 256,65,66
 205 220 205 220 221 240.5 c 128,-1,67
 237 261 237 261 247 317 c 256,56,57
EndSplineSet
EndChar
StartChar: ampersand
Encoding: 38 38 7
Width: 547
Flags: W
Fore
429 -1 m 1,0,1
 418 6 418 6 408 14.5 c 128,-1,2
 398 23 398 23 381 33 c 1,3,4
 346 10 346 10 305.5 -2 c 128,-1,5
 265 -14 265 -14 222 -14 c 0,6,7
 190 -14 190 -14 158.5 -7.5 c 128,-1,8
 127 -1 127 -1 103.5 14 c 128,-1,9
 80 29 80 29 67.5 52.5 c 128,-1,10
 55 76 55 76 61 110 c 0,11,12
 65 135 65 135 78 154.5 c 128,-1,13
 91 174 91 174 108.5 189 c 128,-1,14
 126 204 126 204 147 215.5 c 128,-1,15
 168 227 168 227 190 237 c 1,16,17
 177 257 177 257 170 279.5 c 128,-1,18
 163 302 163 302 168 325 c 0,19,20
 172 350 172 350 186 372.5 c 128,-1,21
 200 395 200 395 220 412 c 128,-1,22
 240 429 240 429 266 438.5 c 128,-1,23
 292 448 292 448 321 448 c 0,24,25
 341 448 341 448 360.5 442.5 c 128,-1,26
 380 437 380 437 394.5 426 c 128,-1,27
 409 415 409 415 417 398 c 128,-1,28
 425 381 425 381 421 359 c 0,29,30
 417 336 417 336 405.5 318.5 c 128,-1,31
 394 301 394 301 377 287 c 128,-1,32
 360 273 360 273 339 261.5 c 128,-1,33
 318 250 318 250 296 240 c 1,34,35
 323 205 323 205 351.5 174 c 128,-1,36
 380 143 380 143 408 118 c 1,37,38
 424 144 424 144 432.5 172.5 c 128,-1,39
 441 201 441 201 442 242 c 1,40,-1
 528 242 l 1,41,42
 517 192 517 192 496.5 154.5 c 128,-1,43
 476 117 476 117 447 87 c 1,44,45
 470 70 470 70 498 45.5 c 128,-1,46
 526 21 526 21 550 -1 c 1,47,-1
 429 -1 l 1,0,1
347 353 m 0,48,49
 351 377 351 377 338.5 393 c 128,-1,50
 326 409 326 409 299 409 c 0,51,52
 288 409 288 409 278.5 404 c 128,-1,53
 269 399 269 399 261 391.5 c 128,-1,54
 253 384 253 384 248 375.5 c 128,-1,55
 243 367 243 367 242 360 c 0,56,57
 237 334 237 334 245.5 314.5 c 128,-1,58
 254 295 254 295 271 272 c 1,59,60
 301 286 301 286 321.5 304.5 c 128,-1,61
 342 323 342 323 347 353 c 0,48,49
349 61 m 1,62,63
 319 89 319 89 285 125 c 128,-1,64
 251 161 251 161 216 203 c 1,65,66
 189 189 189 189 172 172 c 128,-1,67
 155 155 155 155 150 130 c 0,68,69
 146 108 146 108 153.5 89 c 128,-1,70
 161 70 161 70 175 55.5 c 128,-1,71
 189 41 189 41 208 33 c 128,-1,72
 227 25 227 25 246 25 c 0,73,74
 276 25 276 25 302 36 c 128,-1,75
 328 47 328 47 349 61 c 1,62,63
EndSplineSet
EndChar
StartChar: quotesingle
Encoding: 39 39 8
Width: 169
Flags: W
Fore
141 252 m 1,0,-1
 115 252 l 1,1,-1
 122 433 l 2,2,3
 122 439 122 439 124.5 447.5 c 128,-1,4
 127 456 127 456 132.5 463.5 c 128,-1,5
 138 471 138 471 146.5 476 c 128,-1,6
 155 481 155 481 168 481 c 256,7,8
 181 481 181 481 188 476 c 128,-1,9
 195 471 195 471 198 463.5 c 128,-1,10
 201 456 201 456 201 447.5 c 128,-1,11
 201 439 201 439 199 433 c 2,12,-1
 141 252 l 1,0,-1
EndSplineSet
EndChar
StartChar: parenleft
Encoding: 40 40 9
Width: 231
Flags: W
Fore
129 -146 m 1,0,1
 107 -109 107 -109 91.5 -72.5 c 128,-1,2
 76 -36 76 -36 67.5 2 c 128,-1,3
 59 40 59 40 58.5 81 c 128,-1,4
 58 122 58 122 66 168 c 0,5,6
 82 260 82 260 126 334 c 128,-1,7
 170 408 170 408 239 482 c 1,8,-1
 278 482 l 1,9,10
 252 447 252 447 231.5 416 c 128,-1,11
 211 385 211 385 194.5 349.5 c 128,-1,12
 178 314 178 314 165 271 c 128,-1,13
 152 228 152 228 142 168 c 0,14,15
 131 107 131 107 128 64.5 c 128,-1,16
 125 22 125 22 128.5 -12 c 128,-1,17
 132 -46 132 -46 142 -77 c 128,-1,18
 152 -108 152 -108 168 -146 c 1,19,-1
 129 -146 l 1,0,1
EndSplineSet
EndChar
StartChar: parenright
Encoding: 41 41 10
Width: 231
Flags: W
Fore
223 168 m 0,0,1
 206 76 206 76 162 2 c 128,-1,2
 118 -72 118 -72 50 -146 c 1,3,-1
 11 -146 l 1,4,5
 41 -108 41 -108 62 -77 c 128,-1,6
 83 -46 83 -46 98.5 -12 c 128,-1,7
 114 22 114 22 125 64.5 c 128,-1,8
 136 107 136 107 147 168 c 0,9,10
 157 228 157 228 159.5 271 c 128,-1,11
 162 314 162 314 158 349.5 c 128,-1,12
 154 385 154 385 144 416 c 128,-1,13
 134 447 134 447 121 482 c 1,14,-1
 160 482 l 1,15,16
 203 408 203 408 221 334 c 128,-1,17
 239 260 239 260 223 168 c 0,0,1
EndSplineSet
EndChar
StartChar: asterisk
Encoding: 42 42 11
Width: 364
Flags: W
Fore
271 326 m 1,0,-1
 347 257 l 1,1,-1
 268 211 l 1,2,-1
 236 309 l 1,3,-1
 170 211 l 1,4,-1
 107 257 l 1,5,-1
 207 326 l 1,6,-1
 96 339 l 1,7,-1
 137 415 l 1,8,-1
 228 363 l 1,9,-1
 218 466 l 1,10,-1
 307 466 l 1,11,-1
 260 361 l 1,12,-1
 373 415 l 1,13,-1
 386 339 l 1,14,-1
 271 326 l 1,0,-1
EndSplineSet
EndChar
StartChar: plus
Encoding: 43 43 12
Width: 469
Flags: W
Fore
295 164 m 1,0,-1
 267 0 l 1,1,-1
 202 0 l 1,2,-1
 230 164 l 1,3,-1
 62 164 l 1,4,-1
 72 216 l 1,5,-1
 240 216 l 1,6,-1
 268 379 l 1,7,-1
 333 379 l 1,8,-1
 305 216 l 1,9,-1
 473 216 l 1,10,-1
 463 164 l 1,11,-1
 295 164 l 1,0,-1
EndSplineSet
EndChar
StartChar: comma
Encoding: 44 44 13
Width: 263
Flags: W
Fore
179 19 m 0,0,1
 173 -13 173 -13 147 -45.5 c 128,-1,2
 121 -78 121 -78 84 -94 c 1,3,-1
 73 -75 l 1,4,5
 92 -68 92 -68 110.5 -50 c 128,-1,6
 129 -32 129 -32 135 -7 c 1,7,8
 122 -11 122 -11 111.5 -8.5 c 128,-1,9
 101 -6 101 -6 94 0 c 128,-1,10
 87 6 87 6 83.5 14 c 128,-1,11
 80 22 80 22 82 31 c 0,12,13
 85 48 85 48 100 63.5 c 128,-1,14
 115 79 115 79 139 79 c 0,15,16
 164 79 164 79 174 62 c 128,-1,17
 184 45 184 45 179 19 c 0,0,1
EndSplineSet
EndChar
StartChar: hyphen
Encoding: 45 45 14
Width: 321
Flags: W
Fore
335 170 m 1,0,-1
 44 170 l 1,1,-1
 54 225 l 1,2,-1
 345 225 l 1,3,-1
 335 170 l 1,0,-1
EndSplineSet
EndChar
StartChar: period
Encoding: 46 46 15
Width: 266
Flags: W
Fore
185 38 m 0,0,1
 182 18 182 18 166.5 5 c 128,-1,2
 151 -8 151 -8 131 -8 c 256,3,4
 111 -8 111 -8 100.5 5 c 128,-1,5
 90 18 90 18 93 38 c 0,6,7
 97 58 97 58 112 71 c 128,-1,8
 127 84 127 84 147 84 c 256,9,10
 167 84 167 84 178 71 c 128,-1,11
 189 58 189 58 185 38 c 0,0,1
EndSplineSet
EndChar
StartChar: slash
Encoding: 47 47 16
Width: 236
Flags: W
Fore
47 -15 m 1,0,-1
 -17 -15 l 1,1,-1
 270 481 l 1,2,-1
 335 481 l 1,3,-1
 47 -15 l 1,0,-1
EndSplineSet
EndChar
StartChar: zero
Encoding: 48 48 17
Width: 471
Flags: W
Fore
489 228 m 0,0,1
 480 180 480 180 457 137.5 c 128,-1,2
 434 95 434 95 400 62.5 c 128,-1,3
 366 30 366 30 323 11.5 c 128,-1,4
 280 -7 280 -7 233 -7 c 256,5,6
 186 -7 186 -7 150 11.5 c 128,-1,7
 114 30 114 30 91.5 62.5 c 128,-1,8
 69 95 69 95 60.5 137.5 c 128,-1,9
 52 180 52 180 61 228 c 0,10,11
 69 276 69 276 92.5 318.5 c 128,-1,12
 116 361 116 361 150 393 c 128,-1,13
 184 425 184 425 226.5 443.5 c 128,-1,14
 269 462 269 462 316 462 c 256,15,16
 363 462 363 462 399 443.5 c 128,-1,17
 435 425 435 425 458 393 c 128,-1,18
 481 361 481 361 489 318.5 c 128,-1,19
 497 276 497 276 489 228 c 0,0,1
406 228 m 0,20,21
 423 328 423 328 394 375 c 128,-1,22
 365 422 365 422 309 422 c 0,23,24
 282 422 282 422 256 410.5 c 128,-1,25
 230 399 230 399 208 375 c 128,-1,26
 186 351 186 351 170 314.5 c 128,-1,27
 154 278 154 278 145 228 c 256,28,29
 136 178 136 178 139.5 141 c 128,-1,30
 143 104 143 104 156 80 c 128,-1,31
 169 56 169 56 191 44.5 c 128,-1,32
 213 33 213 33 240 33 c 0,33,34
 268 33 268 33 294 44.5 c 128,-1,35
 320 56 320 56 342 80 c 128,-1,36
 364 104 364 104 380.5 141 c 128,-1,37
 397 178 397 178 406 228 c 0,20,21
EndSplineSet
EndChar
StartChar: one
Encoding: 49 49 18
Width: 471
Flags: W
Fore
201 0 m 1,0,-1
 263 353 l 1,1,-1
 151 353 l 1,2,-1
 157 391 l 1,3,4
 193 391 193 391 216.5 393.5 c 128,-1,5
 240 396 240 396 256.5 403.5 c 128,-1,6
 273 411 273 411 285 424.5 c 128,-1,7
 297 438 297 438 312 461 c 1,8,-1
 363 461 l 1,9,-1
 282 0 l 1,10,-1
 201 0 l 1,0,-1
EndSplineSet
EndChar
StartChar: two
Encoding: 50 50 19
Width: 471
Flags: W
Fore
27 0 m 1,0,1
 43 48 43 48 71.5 79 c 128,-1,2
 100 110 100 110 136 132.5 c 128,-1,3
 172 155 172 155 212.5 172 c 128,-1,4
 253 189 253 189 294 209 c 0,5,6
 312 218 312 218 329 227.5 c 128,-1,7
 346 237 346 237 360 249.5 c 128,-1,8
 374 262 374 262 384 277.5 c 128,-1,9
 394 293 394 293 398 313 c 0,10,11
 401 332 401 332 397 351.5 c 128,-1,12
 393 371 393 371 381 386 c 128,-1,13
 369 401 369 401 348 410.5 c 128,-1,14
 327 420 327 420 297 420 c 0,15,16
 271 420 271 420 247.5 411.5 c 128,-1,17
 224 403 224 403 204.5 387 c 128,-1,18
 185 371 185 371 171 348 c 128,-1,19
 157 325 157 325 152 297 c 1,20,-1
 68 297 l 1,21,22
 81 339 81 339 105.5 369 c 128,-1,23
 130 399 130 399 161 419 c 128,-1,24
 192 439 192 439 228.5 448.5 c 128,-1,25
 265 458 265 458 303 458 c 0,26,27
 343 458 343 458 378 449 c 128,-1,28
 413 440 413 440 437.5 422 c 128,-1,29
 462 404 462 404 474 376.5 c 128,-1,30
 486 349 486 349 480 312 c 0,31,32
 473 272 473 272 448 243.5 c 128,-1,33
 423 215 423 215 388 194 c 128,-1,34
 353 173 353 173 313.5 157 c 128,-1,35
 274 141 274 141 237 126.5 c 128,-1,36
 200 112 200 112 170 97 c 128,-1,37
 140 82 140 82 126 63 c 1,38,-1
 446 63 l 1,39,-1
 435 0 l 1,40,-1
 27 0 l 1,0,1
EndSplineSet
EndChar
StartChar: three
Encoding: 51 51 20
Width: 471
Flags: W
Fore
471 136 m 0,0,1
 465 98 465 98 440.5 71 c 128,-1,2
 416 44 416 44 382 26.5 c 128,-1,3
 348 9 348 9 307 1 c 128,-1,4
 266 -7 266 -7 227 -7 c 0,5,6
 189 -7 189 -7 155.5 2.5 c 128,-1,7
 122 12 122 12 98 31.5 c 128,-1,8
 74 51 74 51 60.5 81.5 c 128,-1,9
 47 112 47 112 48 154 c 1,10,-1
 132 154 l 1,11,12
 127 125 127 125 132.5 102.5 c 128,-1,13
 138 80 138 80 152 64.5 c 128,-1,14
 166 49 166 49 187 40.5 c 128,-1,15
 208 32 208 32 234 32 c 0,16,17
 262 32 262 32 288 40 c 128,-1,18
 314 48 314 48 335.5 62.5 c 128,-1,19
 357 77 357 77 371.5 96 c 128,-1,20
 386 115 386 115 390 137 c 0,21,22
 394 163 394 163 381 180.5 c 128,-1,23
 368 198 368 198 342 208 c 128,-1,24
 316 218 316 218 280 219 c 128,-1,25
 244 220 244 220 204 213 c 1,26,-1
 213 264 l 1,27,28
 253 258 253 258 286 261.5 c 128,-1,29
 319 265 319 265 343 276 c 128,-1,30
 367 287 367 287 382 303.5 c 128,-1,31
 397 320 397 320 400 339 c 0,32,33
 405 369 405 369 383 394.5 c 128,-1,34
 361 420 361 420 306 420 c 0,35,36
 261 420 261 420 230 391.5 c 128,-1,37
 199 363 199 363 186 312 c 1,38,-1
 104 312 l 1,39,40
 114 349 114 349 134.5 376.5 c 128,-1,41
 155 404 155 404 182.5 422 c 128,-1,42
 210 440 210 440 243.5 449 c 128,-1,43
 277 458 277 458 312 458 c 0,44,45
 349 458 349 458 382.5 451 c 128,-1,46
 416 444 416 444 440 430 c 128,-1,47
 464 416 464 416 476 393 c 128,-1,48
 488 370 488 370 482 339 c 0,49,50
 476 304 476 304 451.5 281 c 128,-1,51
 427 258 427 258 398 245 c 1,52,53
 416 239 416 239 431 230 c 128,-1,54
 446 221 446 221 456.5 207.5 c 128,-1,55
 467 194 467 194 471 176 c 128,-1,56
 475 158 475 158 471 136 c 0,0,1
EndSplineSet
EndChar
StartChar: four
Encoding: 52 52 21
Width: 471
Flags: W
Fore
439 110 m 1,0,-1
 354 110 l 1,1,-1
 335 0 l 1,2,-1
 253 0 l 1,3,-1
 273 110 l 1,4,-1
 36 110 l 1,5,-1
 21 132 l 1,6,-1
 389 461 l 1,7,-1
 416 461 l 1,8,-1
 362 158 l 1,9,-1
 473 158 l 1,10,-1
 439 110 l 1,0,-1
312 329 m 1,11,-1
 120 158 l 1,12,-1
 281 158 l 1,13,-1
 312 329 l 1,11,-1
EndSplineSet
EndChar
StartChar: five
Encoding: 53 53 22
Width: 471
Flags: W
Fore
473 140 m 0,0,1
 466 101 466 101 441 73 c 128,-1,2
 416 45 416 45 381.5 27.5 c 128,-1,3
 347 10 347 10 307 1.5 c 128,-1,4
 267 -7 267 -7 231 -7 c 0,5,6
 193 -7 193 -7 160 2.5 c 128,-1,7
 127 12 127 12 102.5 31.5 c 128,-1,8
 78 51 78 51 64 81 c 128,-1,9
 50 111 50 111 51 153 c 1,10,-1
 135 153 l 1,11,12
 126 96 126 96 156 63.5 c 128,-1,13
 186 31 186 31 237 31 c 0,14,15
 265 31 265 31 291 40 c 128,-1,16
 317 49 317 49 337 64 c 128,-1,17
 357 79 357 79 370.5 99 c 128,-1,18
 384 119 384 119 388 141 c 0,19,20
 396 188 396 188 364 221 c 128,-1,21
 332 254 332 254 269 254 c 0,22,23
 232 254 232 254 200.5 241.5 c 128,-1,24
 169 229 169 229 134 209 c 1,25,-1
 98 219 l 1,26,-1
 164 453 l 1,27,-1
 505 453 l 1,28,-1
 471 390 l 1,29,-1
 200 390 l 1,30,-1
 169 276 l 1,31,32
 194 285 194 285 225 290 c 128,-1,33
 256 295 256 295 285 295 c 0,34,35
 331 295 331 295 369 285 c 128,-1,36
 407 275 407 275 432.5 255.5 c 128,-1,37
 458 236 458 236 469 207 c 128,-1,38
 480 178 480 178 473 140 c 0,0,1
EndSplineSet
EndChar
StartChar: six
Encoding: 54 54 23
Width: 471
Flags: W
Fore
475 164 m 0,0,1
 468 124 468 124 446.5 92 c 128,-1,2
 425 60 425 60 392.5 38 c 128,-1,3
 360 16 360 16 320.5 4.5 c 128,-1,4
 281 -7 281 -7 238 -7 c 0,5,6
 190 -7 190 -7 153 10 c 128,-1,7
 116 27 116 27 92.5 57 c 128,-1,8
 69 87 69 87 60 127 c 128,-1,9
 51 167 51 167 59 214 c 0,10,11
 68 263 68 263 90 307.5 c 128,-1,12
 112 352 112 352 146 385.5 c 128,-1,13
 180 419 180 419 226 438.5 c 128,-1,14
 272 458 272 458 329 458 c 0,15,16
 360 458 360 458 388 452.5 c 128,-1,17
 416 447 416 447 438.5 433.5 c 128,-1,18
 461 420 461 420 476 398 c 128,-1,19
 491 376 491 376 495 344 c 1,20,-1
 414 344 l 1,21,22
 403 379 403 379 382.5 398 c 128,-1,23
 362 417 362 417 320 417 c 0,24,25
 288 417 288 417 261 403 c 128,-1,26
 234 389 234 389 213 367.5 c 128,-1,27
 192 346 192 346 177 319 c 128,-1,28
 162 292 162 292 155 267 c 1,29,30
 181 290 181 290 219 306.5 c 128,-1,31
 257 323 257 323 308 323 c 0,32,33
 350 323 350 323 383.5 312 c 128,-1,34
 417 301 417 301 439.5 280.5 c 128,-1,35
 462 260 462 260 472 230.5 c 128,-1,36
 482 201 482 201 475 164 c 0,0,1
388 157 m 0,37,38
 398 213 398 213 372 246 c 128,-1,39
 346 279 346 279 290 279 c 0,40,41
 235 279 235 279 196.5 246 c 128,-1,42
 158 213 158 213 148 157 c 0,43,44
 138 100 138 100 164 67 c 128,-1,45
 190 34 190 34 246 34 c 0,46,47
 301 34 301 34 339.5 67 c 128,-1,48
 378 100 378 100 388 157 c 0,37,38
EndSplineSet
EndChar
StartChar: seven
Encoding: 55 55 24
Width: 471
Flags: W
Fore
528 453 m 1,0,1
 522 415 522 415 498 385 c 128,-1,2
 474 355 474 355 446 329 c 0,3,4
 401 287 401 287 363 254 c 128,-1,5
 325 221 325 221 295.5 186 c 128,-1,6
 266 151 266 151 245 107.5 c 128,-1,7
 224 64 224 64 213 0 c 1,8,-1
 127 0 l 1,9,10
 140 80 140 80 179.5 140 c 128,-1,11
 219 200 219 200 287 256 c 0,12,13
 300 267 300 267 322 284 c 128,-1,14
 344 301 344 301 366.5 320.5 c 128,-1,15
 389 340 389 340 408.5 358.5 c 128,-1,16
 428 377 428 377 437 391 c 1,17,-1
 97 391 l 1,18,-1
 129 453 l 1,19,-1
 528 453 l 1,20,-1
 528 453 l 1,0,1
EndSplineSet
EndChar
StartChar: eight
Encoding: 56 56 25
Width: 471
Flags: W
Fore
479 140 m 0,0,1
 472 101 472 101 447 73 c 128,-1,2
 422 45 422 45 386.5 27 c 128,-1,3
 351 9 351 9 310 1 c 128,-1,4
 269 -7 269 -7 231 -7 c 0,5,6
 194 -7 194 -7 157 0 c 128,-1,7
 120 7 120 7 91.5 23.5 c 128,-1,8
 63 40 63 40 47.5 66.5 c 128,-1,9
 32 93 32 93 39 131 c 0,10,11
 43 154 43 154 56.5 173 c 128,-1,12
 70 192 70 192 89.5 207 c 128,-1,13
 109 222 109 222 131.5 232.5 c 128,-1,14
 154 243 154 243 176 249 c 1,15,16
 143 262 143 262 122.5 286 c 128,-1,17
 102 310 102 310 109 346 c 0,18,19
 114 377 114 377 136 399.5 c 128,-1,20
 158 422 158 422 188.5 436 c 128,-1,21
 219 450 219 450 254 456.5 c 128,-1,22
 289 463 289 463 321 463 c 0,23,24
 355 463 355 463 387 456.5 c 128,-1,25
 419 450 419 450 443 436.5 c 128,-1,26
 467 423 467 423 479.5 403 c 128,-1,27
 492 383 492 383 487 356 c 0,28,29
 484 338 484 338 473 322.5 c 128,-1,30
 462 307 462 307 446 294 c 128,-1,31
 430 281 430 281 410 271 c 128,-1,32
 390 261 390 261 368 255 c 1,33,34
 392 251 392 251 414.5 241.5 c 128,-1,35
 437 232 437 232 452.5 217.5 c 128,-1,36
 468 203 468 203 475.5 183.5 c 128,-1,37
 483 164 483 164 479 140 c 0,0,1
406 353 m 0,38,39
 412 388 412 388 384 406 c 128,-1,40
 356 424 356 424 313 424 c 0,41,42
 267 424 267 424 231 407.5 c 128,-1,43
 195 391 195 391 189 357 c 0,44,45
 186 340 186 340 198 327.5 c 128,-1,46
 210 315 210 315 229 306 c 128,-1,47
 248 297 248 297 269 290.5 c 128,-1,48
 290 284 290 284 305 280 c 1,49,50
 320 284 320 284 337 290.5 c 128,-1,51
 354 297 354 297 368.5 306 c 128,-1,52
 383 315 383 315 393 326.5 c 128,-1,53
 403 338 403 338 406 353 c 0,38,39
396 135 m 0,54,55
 399 151 399 151 388.5 165 c 128,-1,56
 378 179 378 179 357 191 c 128,-1,57
 336 203 336 203 305 212 c 128,-1,58
 274 221 274 221 237 227 c 1,59,60
 217 224 217 224 199 216 c 128,-1,61
 181 208 181 208 166 196.5 c 128,-1,62
 151 185 151 185 141 170.5 c 128,-1,63
 131 156 131 156 128 140 c 0,64,65
 120 96 120 96 146.5 65 c 128,-1,66
 173 34 173 34 238 34 c 0,67,68
 304 34 304 34 346 62.5 c 128,-1,69
 388 91 388 91 396 135 c 0,54,55
EndSplineSet
EndChar
StartChar: nine
Encoding: 57 57 26
Width: 471
Flags: W
Fore
490 237 m 0,0,1
 481 187 481 187 459.5 143 c 128,-1,2
 438 99 438 99 403.5 65.5 c 128,-1,3
 369 32 369 32 323 12.5 c 128,-1,4
 277 -7 277 -7 220 -7 c 0,5,6
 189 -7 189 -7 161 -1.5 c 128,-1,7
 133 4 133 4 110.5 17.5 c 128,-1,8
 88 31 88 31 73 53 c 128,-1,9
 58 75 58 75 54 107 c 1,10,-1
 135 107 l 1,11,12
 146 72 146 72 166.5 53 c 128,-1,13
 187 34 187 34 229 34 c 0,14,15
 261 34 261 34 288.5 48 c 128,-1,16
 316 62 316 62 337 83.5 c 128,-1,17
 358 105 358 105 372.5 131.5 c 128,-1,18
 387 158 387 158 395 184 c 1,19,20
 369 161 369 161 330.5 144.5 c 128,-1,21
 292 128 292 128 242 128 c 0,22,23
 200 128 200 128 166.5 139 c 128,-1,24
 133 150 133 150 110.5 170.5 c 128,-1,25
 88 191 88 191 78.5 220.5 c 128,-1,26
 69 250 69 250 75 287 c 0,27,28
 82 327 82 327 104 359 c 128,-1,29
 126 391 126 391 157.5 413 c 128,-1,30
 189 435 189 435 228.5 446.5 c 128,-1,31
 268 458 268 458 311 458 c 0,32,33
 359 458 359 458 396 441 c 128,-1,34
 433 424 433 424 456.5 394 c 128,-1,35
 480 364 480 364 489 323.5 c 128,-1,36
 498 283 498 283 490 237 c 0,0,1
401 294 m 0,37,38
 412 351 412 351 385.5 384 c 128,-1,39
 359 417 359 417 304 417 c 0,40,41
 248 417 248 417 210.5 384 c 128,-1,42
 173 351 173 351 162 294 c 0,43,44
 152 238 152 238 178.5 205 c 128,-1,45
 205 172 205 172 260 172 c 0,46,47
 316 172 316 172 353.5 205 c 128,-1,48
 391 238 391 238 401 294 c 0,37,38
EndSplineSet
EndChar
StartChar: colon
Encoding: 58 58 27
Width: 261
Flags: W
Fore
225 288 m 0,0,1
 222 268 222 268 206 254.5 c 128,-1,2
 190 241 190 241 170 241 c 0,3,4
 151 241 151 241 140 254.5 c 128,-1,5
 129 268 129 268 132 288 c 0,6,7
 136 307 136 307 151.5 320.5 c 128,-1,8
 167 334 167 334 186 334 c 0,9,10
 206 334 206 334 217.5 320.5 c 128,-1,11
 229 307 229 307 225 288 c 0,0,1
181 38 m 0,12,13
 178 18 178 18 162 5 c 128,-1,14
 146 -8 146 -8 126 -8 c 0,15,16
 107 -8 107 -8 96 5 c 128,-1,17
 85 18 85 18 88 38 c 0,18,19
 92 58 92 58 107.5 71 c 128,-1,20
 123 84 123 84 142 84 c 0,21,22
 162 84 162 84 173.5 71 c 128,-1,23
 185 58 185 58 181 38 c 0,12,13
EndSplineSet
EndChar
StartChar: semicolon
Encoding: 59 59 28
Width: 273
Flags: W
Fore
234 288 m 0,0,1
 231 268 231 268 215 254.5 c 128,-1,2
 199 241 199 241 180 241 c 0,3,4
 160 241 160 241 149 254.5 c 128,-1,5
 138 268 138 268 141 288 c 0,6,7
 145 307 145 307 160.5 320.5 c 128,-1,8
 176 334 176 334 196 334 c 0,9,10
 215 334 215 334 226.5 320.5 c 128,-1,11
 238 307 238 307 234 288 c 0,0,1
189 19 m 0,12,13
 183 -13 183 -13 157 -45.5 c 128,-1,14
 131 -78 131 -78 93 -94 c 1,15,-1
 82 -75 l 1,16,17
 101 -68 101 -68 120 -50 c 128,-1,18
 139 -32 139 -32 145 -7 c 1,19,20
 132 -11 132 -11 121.5 -8.5 c 128,-1,21
 111 -6 111 -6 104 0 c 128,-1,22
 97 6 97 6 93.5 14 c 128,-1,23
 90 22 90 22 92 31 c 0,24,25
 95 48 95 48 109.5 63.5 c 128,-1,26
 124 79 124 79 149 79 c 256,27,28
 174 79 174 79 184 62 c 128,-1,29
 194 45 194 45 189 19 c 0,12,13
EndSplineSet
EndChar
StartChar: less
Encoding: 60 60 29
Width: 470
Flags: W
Fore
162 190 m 1,0,-1
 442 60 l 1,1,-1
 430 -7 l 1,2,-1
 67 163 l 1,3,-1
 77 216 l 1,4,-1
 500 386 l 1,5,-1
 488 320 l 1,6,-1
 162 190 l 1,0,-1
EndSplineSet
EndChar
StartChar: equal
Encoding: 61 61 30
Width: 469
Flags: W
Fore
75 237 m 1,0,-1
 84 285 l 1,1,-1
 485 285 l 1,2,-1
 476 237 l 1,3,-1
 75 237 l 1,0,-1
51 100 m 1,4,-1
 60 148 l 1,5,-1
 461 148 l 1,6,-1
 452 100 l 1,7,-1
 51 100 l 1,4,-1
EndSplineSet
EndChar
StartChar: greater
Encoding: 62 62 31
Width: 470
Flags: W
Fore
37 -7 m 1,0,-1
 49 60 l 1,1,-1
 374 190 l 1,2,-1
 95 320 l 1,3,-1
 107 386 l 1,4,-1
 470 216 l 1,5,-1
 460 163 l 1,6,-1
 37 -7 l 1,0,-1
EndSplineSet
EndChar
StartChar: question
Encoding: 63 63 32
Width: 397
Flags: W
Fore
421 344 m 0,0,1
 416 317 416 317 401.5 299 c 128,-1,2
 387 281 387 281 367 267 c 128,-1,3
 347 253 347 253 324.5 240 c 128,-1,4
 302 227 302 227 281 211 c 128,-1,5
 260 195 260 195 244 173 c 128,-1,6
 228 151 228 151 221 118 c 1,7,-1
 181 118 l 1,8,9
 186 157 186 157 198 183.5 c 128,-1,10
 210 210 210 210 225 228.5 c 128,-1,11
 240 247 240 247 256 259.5 c 128,-1,12
 272 272 272 272 286.5 284 c 128,-1,13
 301 296 301 296 311.5 310 c 128,-1,14
 322 324 322 324 326 345 c 256,15,16
 330 366 330 366 330.5 384.5 c 128,-1,17
 331 403 331 403 325 416 c 128,-1,18
 319 429 319 429 305.5 436.5 c 128,-1,19
 292 444 292 444 268 444 c 0,20,21
 242 444 242 444 223.5 431.5 c 128,-1,22
 205 419 205 419 193 399.5 c 128,-1,23
 181 380 181 380 173.5 357 c 128,-1,24
 166 334 166 334 163 313 c 1,25,-1
 81 313 l 1,26,27
 95 391 95 391 147 436 c 128,-1,28
 199 481 199 481 276 481 c 0,29,30
 307 481 307 481 336 473 c 128,-1,31
 365 465 365 465 386 448 c 128,-1,32
 407 431 407 431 417 405 c 128,-1,33
 427 379 427 379 421 344 c 0,0,1
234 36 m 0,34,35
 230 16 230 16 214.5 2.5 c 128,-1,36
 199 -11 199 -11 179 -11 c 256,37,38
 159 -11 159 -11 147.5 2.5 c 128,-1,39
 136 16 136 16 140 36 c 0,40,41
 143 56 143 56 159 69.5 c 128,-1,42
 175 83 175 83 195 83 c 256,43,44
 215 83 215 83 226 69.5 c 128,-1,45
 237 56 237 56 234 36 c 0,34,35
EndSplineSet
EndChar
StartChar: at
Encoding: 64 64 33
Width: 615
Flags: W
Fore
619 268 m 0,0,1
 614 239 614 239 597.5 208.5 c 128,-1,2
 581 178 581 178 557 152 c 128,-1,3
 533 126 533 126 503 109.5 c 128,-1,4
 473 93 473 93 439 93 c 0,5,6
 415 93 415 93 399.5 111 c 128,-1,7
 384 129 384 129 381 148 c 1,8,9
 360 126 360 126 337 110 c 128,-1,10
 314 94 314 94 285 94 c 0,11,12
 262 94 262 94 248.5 103 c 128,-1,13
 235 112 235 112 229 126.5 c 128,-1,14
 223 141 223 141 222 157.5 c 128,-1,15
 221 174 221 174 224 189 c 0,16,17
 228 214 228 214 242.5 245 c 128,-1,18
 257 276 257 276 280.5 303 c 128,-1,19
 304 330 304 330 334.5 348 c 128,-1,20
 365 366 365 366 403 366 c 0,21,22
 443 366 443 366 452 325 c 1,23,-1
 480 359 l 1,24,-1
 537 359 l 1,25,-1
 453 173 l 2,26,27
 445 156 445 156 443.5 144 c 128,-1,28
 442 132 442 132 454 132 c 0,29,30
 472 132 472 132 490 145 c 128,-1,31
 508 158 508 158 523 178 c 128,-1,32
 538 198 538 198 549 221.5 c 128,-1,33
 560 245 560 245 563 266 c 0,34,35
 570 303 570 303 560.5 335.5 c 128,-1,36
 551 368 551 368 529 393 c 128,-1,37
 507 418 507 418 474 432.5 c 128,-1,38
 441 447 441 447 400 447 c 0,39,40
 355 447 355 447 316 429 c 128,-1,41
 277 411 277 411 246.5 380 c 128,-1,42
 216 349 216 349 195.5 309 c 128,-1,43
 175 269 175 269 167 225 c 256,44,45
 159 181 159 181 168.5 144.5 c 128,-1,46
 178 108 178 108 200.5 82 c 128,-1,47
 223 56 223 56 256.5 41.5 c 128,-1,48
 290 27 290 27 331 27 c 0,49,50
 373 27 373 27 412.5 40 c 128,-1,51
 452 53 452 53 487 73 c 1,52,-1
 505 33 l 1,53,54
 463 13 463 13 419.5 -1 c 128,-1,55
 376 -15 376 -15 328 -15 c 0,56,57
 267 -15 267 -15 217.5 3 c 128,-1,58
 168 21 168 21 135 53 c 128,-1,59
 102 85 102 85 87.5 128.5 c 128,-1,60
 73 172 73 172 82 223 c 0,61,62
 91 277 91 277 120.5 324 c 128,-1,63
 150 371 150 371 193 406 c 128,-1,64
 236 441 236 441 290.5 461 c 128,-1,65
 345 481 345 481 405 481 c 0,66,67
 458 481 458 481 501 465.5 c 128,-1,68
 544 450 544 450 573 422 c 128,-1,69
 602 394 602 394 614.5 354.5 c 128,-1,70
 627 315 627 315 619 268 c 0,0,1
421 277 m 0,71,72
 425 298 425 298 421 310.5 c 128,-1,73
 417 323 417 323 407 323 c 0,74,75
 390 323 390 323 373.5 313.5 c 128,-1,76
 357 304 357 304 342.5 286.5 c 128,-1,77
 328 269 328 269 317 245 c 128,-1,78
 306 221 306 221 301 192 c 0,79,80
 297 171 297 171 301 155 c 128,-1,81
 305 139 305 139 322 139 c 0,82,83
 334 139 334 139 349 151.5 c 128,-1,84
 364 164 364 164 379 183.5 c 128,-1,85
 394 203 394 203 405.5 228 c 128,-1,86
 417 253 417 253 421 277 c 0,71,72
EndSplineSet
EndChar
StartChar: A
Encoding: 65 65 34
Width: 582
Flags: W
Fore
481 0 m 1,0,-1
 395 225 l 1,1,-1
 227 225 l 1,2,-1
 60 0 l 1,3,-1
 5 0 l 1,4,-1
 369 482 l 1,5,-1
 397 482 l 1,6,-1
 577 0 l 1,7,-1
 481 0 l 1,0,-1
340 379 m 1,8,-1
 264 275 l 1,9,-1
 377 275 l 1,10,-1
 340 379 l 1,8,-1
EndSplineSet
EndChar
StartChar: B
Encoding: 66 66 35
Width: 563
Flags: W
Fore
561 134 m 0,0,1
 553 90 553 90 523 64 c 128,-1,2
 493 38 493 38 452.5 23.5 c 128,-1,3
 412 9 412 9 366.5 4.5 c 128,-1,4
 321 0 321 0 283 0 c 2,5,-1
 50 0 l 1,6,-1
 132 466 l 1,7,-1
 375 466 l 2,8,9
 407 466 407 466 441.5 461.5 c 128,-1,10
 476 457 476 457 503.5 444.5 c 128,-1,11
 531 432 531 432 546.5 410 c 128,-1,12
 562 388 562 388 556 353 c 0,13,14
 549 318 549 318 519.5 293 c 128,-1,15
 490 268 490 268 451 254 c 1,16,17
 476 248 476 248 498 238.5 c 128,-1,18
 520 229 520 229 535.5 214.5 c 128,-1,19
 551 200 551 200 558.5 180.5 c 128,-1,20
 566 161 566 161 561 134 c 0,0,1
468 349 m 0,21,22
 472 374 472 374 461 389 c 128,-1,23
 450 404 450 404 429.5 412 c 128,-1,24
 409 420 409 420 383.5 423 c 128,-1,25
 358 426 358 426 334 426 c 2,26,-1
 208 426 l 1,27,-1
 180 270 l 1,28,-1
 308 270 l 2,29,30
 377 270 377 270 419.5 292 c 128,-1,31
 462 314 462 314 468 349 c 0,21,22
469 130 m 0,32,33
 475 163 475 163 461 182.5 c 128,-1,34
 447 202 447 202 422 212.5 c 128,-1,35
 397 223 397 223 364.5 226 c 128,-1,36
 332 229 332 229 301 229 c 2,37,-1
 173 229 l 1,38,-1
 140 40 l 1,39,-1
 326 40 l 2,40,41
 351 40 351 40 375.5 46.5 c 128,-1,42
 400 53 400 53 419.5 65 c 128,-1,43
 439 77 439 77 452.5 93.5 c 128,-1,44
 466 110 466 110 469 130 c 0,32,33
EndSplineSet
EndChar
StartChar: C
Encoding: 67 67 36
Width: 589
Flags: W
Fore
587 135 m 1,0,1
 535 57 535 57 465 21 c 128,-1,2
 395 -15 395 -15 314 -15 c 0,3,4
 253 -15 253 -15 203 4 c 128,-1,5
 153 23 153 23 119.5 56 c 128,-1,6
 86 89 86 89 71 133.5 c 128,-1,7
 56 178 56 178 65 230 c 0,8,9
 75 287 75 287 106 333.5 c 128,-1,10
 137 380 137 380 182.5 413 c 128,-1,11
 228 446 228 446 284.5 464 c 128,-1,12
 341 482 341 482 402 482 c 0,13,14
 439 482 439 482 474 473.5 c 128,-1,15
 509 465 509 465 538 447 c 128,-1,16
 567 429 567 429 589 400.5 c 128,-1,17
 611 372 611 372 622 332 c 1,18,-1
 522 332 l 1,19,20
 511 382 511 382 478.5 412.5 c 128,-1,21
 446 443 446 443 395 443 c 0,22,23
 353 443 353 443 314 427.5 c 128,-1,24
 275 412 275 412 243 384.5 c 128,-1,25
 211 357 211 357 189 319.5 c 128,-1,26
 167 282 167 282 159 237 c 256,27,28
 151 192 151 192 159.5 153 c 128,-1,29
 168 114 168 114 190 85 c 128,-1,30
 212 56 212 56 245.5 39.5 c 128,-1,31
 279 23 279 23 321 23 c 0,32,33
 372 23 372 23 416 53.5 c 128,-1,34
 460 84 460 84 489 135 c 1,35,-1
 587 135 l 1,36,-1
 587 135 l 1,0,1
EndSplineSet
EndChar
StartChar: D
Encoding: 68 68 37
Width: 586
Flags: W
Fore
604 247 m 0,0,1
 595 195 595 195 571 150 c 128,-1,2
 547 105 547 105 503.5 71.5 c 128,-1,3
 460 38 460 38 394 19 c 128,-1,4
 328 0 328 0 234 0 c 2,5,-1
 50 0 l 1,6,-1
 132 466 l 1,7,-1
 312 466 l 2,8,9
 402 466 402 466 461.5 449.5 c 128,-1,10
 521 433 521 433 555.5 403.5 c 128,-1,11
 590 374 590 374 601 334 c 128,-1,12
 612 294 612 294 604 247 c 0,0,1
509 247 m 0,13,14
 515 283 515 283 510.5 315.5 c 128,-1,15
 506 348 506 348 485 372.5 c 128,-1,16
 464 397 464 397 424 411.5 c 128,-1,17
 384 426 384 426 319 426 c 2,18,-1
 208 426 l 1,19,-1
 140 40 l 1,20,-1
 251 40 l 2,21,22
 315 40 315 40 360.5 54.5 c 128,-1,23
 406 69 406 69 436 96 c 128,-1,24
 466 123 466 123 483.5 161.5 c 128,-1,25
 501 200 501 200 509 247 c 0,13,14
EndSplineSet
EndChar
StartChar: E
Encoding: 69 69 38
Width: 484
Flags: W
Fore
50 0 m 1,0,-1
 132 466 l 1,1,-1
 551 466 l 1,2,-1
 544 426 l 1,3,-1
 207 426 l 1,4,-1
 179 270 l 1,5,-1
 445 270 l 1,6,-1
 438 230 l 1,7,-1
 172 230 l 1,8,-1
 140 40 l 1,9,-1
 476 40 l 1,10,-1
 469 0 l 1,11,-1
 50 0 l 1,0,-1
EndSplineSet
EndChar
StartChar: F
Encoding: 70 70 39
Width: 484
Flags: W
Fore
207 426 m 1,0,-1
 179 270 l 1,1,-1
 445 270 l 1,2,-1
 438 230 l 1,3,-1
 172 230 l 1,4,-1
 133 0 l 1,5,-1
 50 0 l 1,6,-1
 132 466 l 1,7,-1
 551 466 l 1,8,-1
 544 426 l 1,9,-1
 207 426 l 1,0,-1
EndSplineSet
EndChar
StartChar: G
Encoding: 71 71 40
Width: 608
Flags: W
Fore
522 332 m 1,0,1
 509 383 509 383 476 413 c 128,-1,2
 443 443 443 443 388 443 c 0,3,4
 349 443 349 443 312 428 c 128,-1,5
 275 413 275 413 244 385.5 c 128,-1,6
 213 358 213 358 190.5 320.5 c 128,-1,7
 168 283 168 283 160 238 c 0,8,9
 151 188 151 188 160.5 148 c 128,-1,10
 170 108 170 108 191.5 80.5 c 128,-1,11
 213 53 213 53 244.5 38.5 c 128,-1,12
 276 24 276 24 311 24 c 0,13,14
 362 24 362 24 408 43.5 c 128,-1,15
 454 63 454 63 485 91 c 1,16,-1
 506 211 l 1,17,-1
 338 211 l 1,18,-1
 345 252 l 1,19,-1
 595 252 l 1,20,-1
 563 70 l 1,21,22
 506 24 506 24 437.5 4.5 c 128,-1,23
 369 -15 369 -15 304 -15 c 0,24,25
 255 -15 255 -15 207.5 1.5 c 128,-1,26
 160 18 160 18 125 49.5 c 128,-1,27
 90 81 90 81 72 126.5 c 128,-1,28
 54 172 54 172 64 230 c 0,29,30
 74 287 74 287 105.5 333.5 c 128,-1,31
 137 380 137 380 182 413 c 128,-1,32
 227 446 227 446 282 464 c 128,-1,33
 337 482 337 482 394 482 c 0,34,35
 430 482 430 482 466 474.5 c 128,-1,36
 502 467 502 467 533 450 c 128,-1,37
 564 433 564 433 587 404 c 128,-1,38
 610 375 610 375 621 332 c 1,39,-1
 522 332 l 1,0,1
EndSplineSet
EndChar
StartChar: H
Encoding: 72 72 41
Width: 576
Flags: W
Fore
526 0 m 1,0,-1
 444 0 l 1,1,-1
 484 230 l 1,2,-1
 172 230 l 1,3,-1
 132 0 l 1,4,-1
 50 0 l 1,5,-1
 132 466 l 1,6,-1
 214 466 l 1,7,-1
 179 270 l 1,8,-1
 491 270 l 1,9,-1
 526 466 l 1,10,-1
 608 466 l 1,11,-1
 526 0 l 1,0,-1
EndSplineSet
EndChar
StartChar: I
Encoding: 73 73 42
Width: 182
Flags: W
Fore
50 0 m 1,0,-1
 132 466 l 1,1,-1
 214 466 l 1,2,-1
 132 0 l 1,3,-1
 50 0 l 1,0,-1
EndSplineSet
EndChar
StartChar: J
Encoding: 74 74 43
Width: 375
Flags: W
Fore
350 147 m 1,0,1
 343 106 343 106 324.5 75 c 128,-1,2
 306 44 306 44 280 23 c 128,-1,3
 254 2 254 2 222.5 -9 c 128,-1,4
 191 -20 191 -20 159 -20 c 0,5,6
 129 -20 129 -20 101 -12 c 128,-1,7
 73 -4 73 -4 53 12 c 128,-1,8
 33 28 33 28 22 52.5 c 128,-1,9
 11 77 11 77 15 110 c 1,10,-1
 101 110 l 1,11,12
 96 71 96 71 111.5 44.5 c 128,-1,13
 127 18 127 18 164 18 c 0,14,15
 199 18 199 18 227.5 49.5 c 128,-1,16
 256 81 256 81 265 135 c 2,17,-1
 324 466 l 1,18,-1
 407 466 l 1,19,-1
 350 147 l 1,20,-1
 350 147 l 1,0,1
EndSplineSet
EndChar
StartChar: K
Encoding: 75 75 44
Width: 527
Flags: W
Fore
422 0 m 1,0,-1
 275 270 l 1,1,-1
 166 197 l 1,2,-1
 132 0 l 1,3,-1
 50 0 l 1,4,-1
 132 466 l 1,5,-1
 214 466 l 1,6,-1
 177 257 l 1,7,-1
 482 466 l 1,8,-1
 565 466 l 1,9,-1
 347 319 l 1,10,-1
 522 0 l 1,11,-1
 422 0 l 1,0,-1
EndSplineSet
EndChar
StartChar: L
Encoding: 76 76 45
Width: 428
Flags: W
Fore
50 0 m 1,0,-1
 132 466 l 1,1,-1
 214 466 l 1,2,-1
 139 40 l 1,3,-1
 430 40 l 1,4,-1
 423 0 l 1,5,-1
 50 0 l 1,0,-1
EndSplineSet
EndChar
StartChar: M
Encoding: 77 77 46
Width: 644
Flags: W
Fore
512 0 m 1,0,-1
 575 358 l 1,1,-1
 316 -8 l 1,2,-1
 290 -8 l 1,3,-1
 164 363 l 1,4,-1
 100 0 l 1,5,-1
 50 0 l 1,6,-1
 132 466 l 1,7,-1
 225 466 l 1,8,-1
 346 106 l 1,9,-1
 600 466 l 1,10,-1
 676 466 l 1,11,-1
 594 0 l 1,12,-1
 512 0 l 1,0,-1
EndSplineSet
EndChar
StartChar: N
Encoding: 78 78 47
Width: 563
Flags: W
Fore
482 -15 m 1,0,-1
 167 382 l 1,1,-1
 99 -1 l 1,2,-1
 49 -1 l 1,3,-1
 132 466 l 1,4,-1
 213 466 l 1,5,-1
 484 124 l 1,6,-1
 545 466 l 1,7,-1
 595 466 l 1,8,-1
 510 -15 l 1,9,-1
 482 -15 l 1,0,-1
EndSplineSet
EndChar
StartChar: O
Encoding: 79 79 48
Width: 624
Flags: W
Fore
640 233 m 256,0,1
 631 181 631 181 600 135.5 c 128,-1,2
 569 90 569 90 524 56 c 128,-1,3
 479 22 479 22 423 2.5 c 128,-1,4
 367 -17 367 -17 308 -17 c 256,5,6
 249 -17 249 -17 200.5 2.5 c 128,-1,7
 152 22 152 22 119 55.5 c 128,-1,8
 86 89 86 89 71 134.5 c 128,-1,9
 56 180 56 180 65 232 c 256,10,11
 74 284 74 284 105 329.5 c 128,-1,12
 136 375 136 375 181 409 c 128,-1,13
 226 443 226 443 281.5 462.5 c 128,-1,14
 337 482 337 482 396 482 c 256,15,16
 455 482 455 482 504 462.5 c 128,-1,17
 553 443 553 443 586 409.5 c 128,-1,18
 619 376 619 376 634 330.5 c 128,-1,19
 649 285 649 285 640 233 c 256,0,1
545 233 m 256,20,21
 553 278 553 278 546 317 c 128,-1,22
 539 356 539 356 519 385 c 128,-1,23
 499 414 499 414 466 430.5 c 128,-1,24
 433 447 433 447 390 447 c 0,25,26
 346 447 346 447 308 430 c 128,-1,27
 270 413 270 413 239.5 384 c 128,-1,28
 209 355 209 355 188.5 316 c 128,-1,29
 168 277 168 277 160 232 c 256,30,31
 152 187 152 187 159 148.5 c 128,-1,32
 166 110 166 110 186 81 c 128,-1,33
 206 52 206 52 238 35.5 c 128,-1,34
 270 19 270 19 314 19 c 256,35,36
 358 19 358 19 396.5 35.5 c 128,-1,37
 435 52 435 52 465.5 81 c 128,-1,38
 496 110 496 110 516.5 149 c 128,-1,39
 537 188 537 188 545 233 c 256,20,21
EndSplineSet
EndChar
StartChar: P
Encoding: 80 80 49
Width: 524
Flags: W
Fore
558 337 m 0,0,1
 550 294 550 294 522 267.5 c 128,-1,2
 494 241 494 241 452 226 c 128,-1,3
 410 211 410 211 357.5 206 c 128,-1,4
 305 201 305 201 248 201 c 2,5,-1
 167 201 l 1,6,-1
 132 0 l 1,7,-1
 50 0 l 1,8,-1
 132 466 l 1,9,-1
 297 466 l 2,10,11
 362 466 362 466 413.5 460 c 128,-1,12
 465 454 465 454 499.5 439 c 128,-1,13
 534 424 534 424 549.5 399 c 128,-1,14
 565 374 565 374 558 337 c 0,0,1
467 339 m 0,15,16
 470 354 470 354 463.5 369.5 c 128,-1,17
 457 385 457 385 437 397.5 c 128,-1,18
 417 410 417 410 382 418 c 128,-1,19
 347 426 347 426 292 426 c 2,20,-1
 207 426 l 1,21,-1
 174 242 l 1,22,-1
 256 242 l 2,23,24
 360 242 360 242 409.5 267 c 128,-1,25
 459 292 459 292 467 339 c 0,15,16
EndSplineSet
EndChar
StartChar: Q
Encoding: 81 81 50
Width: 624
Flags: W
Fore
268 -20 m 1,0,1
 216 -14 216 -14 174.5 8 c 128,-1,2
 133 30 133 30 106 63.5 c 128,-1,3
 79 97 79 97 68 139.5 c 128,-1,4
 57 182 57 182 65 229 c 0,5,6
 74 281 74 281 105 327.5 c 128,-1,7
 136 374 136 374 181 408 c 128,-1,8
 226 442 226 442 281.5 462 c 128,-1,9
 337 482 337 482 396 482 c 256,10,11
 455 482 455 482 504 462.5 c 128,-1,12
 553 443 553 443 586 409 c 128,-1,13
 619 375 619 375 633.5 329 c 128,-1,14
 648 283 648 283 639 230 c 0,15,16
 631 185 631 185 606.5 144 c 128,-1,17
 582 103 582 103 545.5 70 c 128,-1,18
 509 37 509 37 463.5 14.5 c 128,-1,19
 418 -8 418 -8 369 -16 c 1,20,21
 369 -37 369 -37 381 -57.5 c 128,-1,22
 393 -78 393 -78 413 -91.5 c 128,-1,23
 433 -105 433 -105 461 -109 c 128,-1,24
 489 -113 489 -113 521 -102 c 1,25,-1
 503 -138 l 1,26,27
 462 -156 462 -156 422.5 -154 c 128,-1,28
 383 -152 383 -152 350 -135 c 128,-1,29
 317 -118 317 -118 295 -88 c 128,-1,30
 273 -58 273 -58 268 -20 c 1,0,1
544 230 m 256,31,32
 552 275 552 275 545 314.5 c 128,-1,33
 538 354 538 354 518 383 c 128,-1,34
 498 412 498 412 465.5 429 c 128,-1,35
 433 446 433 446 390 446 c 0,36,37
 346 446 346 446 308 429 c 128,-1,38
 270 412 270 412 239.5 382.5 c 128,-1,39
 209 353 209 353 188.5 313.5 c 128,-1,40
 168 274 168 274 160 229 c 256,41,42
 152 184 152 184 158.5 145 c 128,-1,43
 165 106 165 106 185 76.5 c 128,-1,44
 205 47 205 47 237 30.5 c 128,-1,45
 269 14 269 14 313 14 c 256,46,47
 357 14 357 14 395.5 31 c 128,-1,48
 434 48 434 48 464.5 77 c 128,-1,49
 495 106 495 106 515.5 145.5 c 128,-1,50
 536 185 536 185 544 230 c 256,31,32
EndSplineSet
EndChar
StartChar: R
Encoding: 82 82 51
Width: 534
Flags: W
Fore
425 0 m 1,0,1
 408 18 408 18 401 45 c 128,-1,2
 394 72 394 72 389 99 c 2,3,-1
 385 131 l 2,4,5
 380 160 380 160 364.5 180.5 c 128,-1,6
 349 201 349 201 319 201 c 2,7,-1
 143 201 l 1,8,-1
 108 0 l 1,9,-1
 25 0 l 1,10,-1
 107 466 l 1,11,-1
 272 466 l 2,12,13
 324 466 324 466 374.5 462 c 128,-1,14
 425 458 425 458 463.5 445 c 128,-1,15
 502 432 502 432 523 406 c 128,-1,16
 544 380 544 380 537 337 c 0,17,18
 533 317 533 317 518.5 299 c 128,-1,19
 504 281 504 281 483.5 267 c 128,-1,20
 463 253 463 253 439.5 243 c 128,-1,21
 416 233 416 233 394 228 c 1,22,23
 432 220 432 220 452 195 c 128,-1,24
 472 170 472 170 477 142 c 2,25,-1
 485 85 l 2,26,27
 487 68 487 68 495.5 45 c 128,-1,28
 504 22 504 22 524 0 c 1,29,-1
 425 0 l 1,0,1
440 339 m 0,30,31
 443 358 443 358 437.5 374 c 128,-1,32
 432 390 432 390 413.5 401.5 c 128,-1,33
 395 413 395 413 361.5 419.5 c 128,-1,34
 328 426 328 426 276 426 c 2,35,-1
 183 426 l 1,36,-1
 150 242 l 1,37,-1
 248 242 l 2,38,39
 298 242 298 242 333 248 c 128,-1,40
 368 254 368 254 390.5 266.5 c 128,-1,41
 413 279 413 279 424.5 297 c 128,-1,42
 436 315 436 315 440 339 c 0,30,31
EndSplineSet
EndChar
StartChar: S
Encoding: 83 83 52
Width: 515
Flags: W
Fore
514 139 m 0,0,1
 506 95 506 95 481 65.5 c 128,-1,2
 456 36 456 36 420.5 18 c 128,-1,3
 385 0 385 0 341.5 -8 c 128,-1,4
 298 -16 298 -16 254 -16 c 0,5,6
 209 -16 209 -16 170.5 -5 c 128,-1,7
 132 6 132 6 105 27 c 128,-1,8
 78 48 78 48 63.5 80 c 128,-1,9
 49 112 49 112 52 154 c 1,10,-1
 148 154 l 1,11,12
 145 126 145 126 151 102 c 128,-1,13
 157 78 157 78 172 60.5 c 128,-1,14
 187 43 187 43 209.5 33 c 128,-1,15
 232 23 232 23 261 23 c 0,16,17
 324 23 324 23 369.5 51 c 128,-1,18
 415 79 415 79 423 122 c 0,19,20
 426 141 426 141 418 153.5 c 128,-1,21
 410 166 410 166 395.5 174.5 c 128,-1,22
 381 183 381 183 364 188.5 c 128,-1,23
 347 194 347 194 332 197 c 0,24,25
 312 202 312 202 285.5 207 c 128,-1,26
 259 212 259 212 231.5 219 c 128,-1,27
 204 226 204 226 178.5 235.5 c 128,-1,28
 153 245 153 245 134 259.5 c 128,-1,29
 115 274 115 274 105.5 294.5 c 128,-1,30
 96 315 96 315 101 344 c 0,31,32
 108 381 108 381 132.5 407 c 128,-1,33
 157 433 157 433 191.5 449.5 c 128,-1,34
 226 466 226 466 265.5 473 c 128,-1,35
 305 480 305 480 341 480 c 0,36,37
 433 480 433 480 487 444.5 c 128,-1,38
 541 409 541 409 542 342 c 1,39,-1
 454 342 l 1,40,41
 454 360 454 360 448.5 377.5 c 128,-1,42
 443 395 443 395 429.5 409.5 c 128,-1,43
 416 424 416 424 393 433 c 128,-1,44
 370 442 370 442 334 442 c 0,45,46
 277 442 277 442 237.5 417.5 c 128,-1,47
 198 393 198 393 191 357 c 0,48,49
 188 339 188 339 196.5 327 c 128,-1,50
 205 315 205 315 219.5 306.5 c 128,-1,51
 234 298 234 298 251 293 c 128,-1,52
 268 288 268 288 282 285 c 0,53,54
 302 280 302 280 329 275 c 128,-1,55
 356 270 356 270 383 263 c 128,-1,56
 410 256 410 256 436 246.5 c 128,-1,57
 462 237 462 237 481 222.5 c 128,-1,58
 500 208 500 208 509.5 187.5 c 128,-1,59
 519 167 519 167 514 139 c 0,0,1
EndSplineSet
EndChar
StartChar: T
Encoding: 84 84 53
Width: 487
Flags: W
Fore
361 426 m 1,0,-1
 286 0 l 1,1,-1
 201 0 l 1,2,-1
 276 426 l 1,3,-1
 85 426 l 1,4,-1
 92 466 l 1,5,-1
 559 466 l 1,6,-1
 552 426 l 1,7,-1
 361 426 l 1,0,-1
EndSplineSet
EndChar
StartChar: U
Encoding: 85 85 54
Width: 605
Flags: W
Fore
585 192 m 1,0,1
 576 141 576 141 551 102 c 128,-1,2
 526 63 526 63 488 37 c 128,-1,3
 450 11 450 11 401.5 -2.5 c 128,-1,4
 353 -16 353 -16 298 -16 c 0,5,6
 242 -16 242 -16 198.5 -2.5 c 128,-1,7
 155 11 155 11 126 37 c 128,-1,8
 97 63 97 63 85.5 102 c 128,-1,9
 74 141 74 141 83 192 c 2,10,-1
 132 466 l 1,11,-1
 214 466 l 1,12,-1
 163 181 l 2,13,14
 157 149 157 149 163.5 120 c 128,-1,15
 170 91 170 91 188 69.5 c 128,-1,16
 206 48 206 48 235 35 c 128,-1,17
 264 22 264 22 304 22 c 256,18,19
 344 22 344 22 377.5 35 c 128,-1,20
 411 48 411 48 436.5 69.5 c 128,-1,21
 462 91 462 91 478.5 120 c 128,-1,22
 495 149 495 149 501 181 c 2,23,-1
 552 466 l 1,24,-1
 634 466 l 1,25,-1
 585 192 l 1,26,-1
 585 192 l 1,0,1
EndSplineSet
EndChar
StartChar: V
Encoding: 86 86 55
Width: 562
Flags: W
Fore
284 -13 m 1,0,-1
 256 -13 l 1,1,-1
 87 466 l 1,2,-1
 181 466 l 1,3,-1
 311 95 l 1,4,-1
 583 466 l 1,5,-1
 639 466 l 1,6,-1
 284 -13 l 1,0,-1
EndSplineSet
EndChar
StartChar: W
Encoding: 87 87 56
Width: 726
Flags: W
Fore
523 -13 m 1,0,-1
 494 -13 l 1,1,-1
 409 321 l 1,2,-1
 226 -13 l 1,3,-1
 196 -13 l 1,4,-1
 87 466 l 1,5,-1
 178 466 l 1,6,-1
 256 131 l 1,7,-1
 443 466 l 1,8,-1
 466 466 l 1,9,-1
 552 123 l 1,10,-1
 754 466 l 1,11,-1
 803 466 l 1,12,-1
 523 -13 l 1,0,-1
EndSplineSet
EndChar
StartChar: X
Encoding: 88 88 57
Width: 488
Flags: W
Fore
330 249 m 1,0,-1
 480 -1 l 1,1,-1
 384 -1 l 1,2,-1
 267 190 l 1,3,-1
 61 -1 l 1,4,-1
 4 -1 l 1,5,-1
 248 221 l 1,6,-1
 103 466 l 1,7,-1
 199 466 l 1,8,-1
 312 279 l 1,9,-1
 507 466 l 1,10,-1
 565 466 l 1,11,-1
 330 249 l 1,0,-1
EndSplineSet
EndChar
StartChar: Y
Encoding: 89 89 58
Width: 541
Flags: W
Fore
341 207 m 1,0,-1
 305 0 l 1,1,-1
 221 0 l 1,2,-1
 255 197 l 1,3,-1
 87 466 l 1,4,-1
 183 466 l 1,5,-1
 324 244 l 1,6,-1
 558 466 l 1,7,-1
 618 466 l 1,8,-1
 341 207 l 1,0,-1
EndSplineSet
EndChar
StartChar: Z
Encoding: 90 90 59
Width: 486
Flags: W
Fore
146 40 m 1,0,-1
 466 40 l 1,1,-1
 441 0 l 1,2,-1
 10 0 l 1,3,-1
 425 426 l 1,4,-1
 116 426 l 1,5,-1
 142 466 l 1,6,-1
 558 466 l 1,7,-1
 146 40 l 1,0,-1
EndSplineSet
EndChar
StartChar: bracketleft
Encoding: 91 91 60
Width: 228
Flags: W
Fore
153 -131 m 1,0,1
 22 -131 22 -131 46 11 c 2,2,-1
 104 339 l 2,3,4
 129 481 129 481 261 481 c 1,5,-1
 257 455 l 1,6,7
 236 452 236 452 222.5 446.5 c 128,-1,8
 209 441 209 441 201 431 c 128,-1,9
 193 421 193 421 188.5 405 c 128,-1,10
 184 389 184 389 180 365 c 2,11,-1
 113 -16 l 2,12,13
 108 -40 108 -40 107 -56 c 128,-1,14
 106 -72 106 -72 110.5 -82 c 128,-1,15
 115 -92 115 -92 126.5 -97 c 128,-1,16
 138 -102 138 -102 158 -105 c 1,17,-1
 153 -131 l 1,18,-1
 153 -131 l 1,0,1
EndSplineSet
EndChar
StartChar: backslash
Encoding: 92 92 61
Width: 242
Flags: W
Fore
185 -15 m 1,0,-1
 69 481 l 1,1,-1
 140 481 l 1,2,-1
 257 -15 l 1,3,-1
 185 -15 l 1,0,-1
EndSplineSet
EndChar
StartChar: bracketright
Encoding: 93 93 62
Width: 228
Flags: W
Fore
184 11 m 1,0,1
 160 -131 160 -131 27 -131 c 1,2,-1
 32 -105 l 1,3,4
 53 -102 53 -102 66 -97 c 128,-1,5
 79 -92 79 -92 86.5 -82 c 128,-1,6
 94 -72 94 -72 98.5 -56 c 128,-1,7
 103 -40 103 -40 108 -16 c 2,8,-1
 175 365 l 2,9,10
 179 389 179 389 180 405 c 128,-1,11
 181 421 181 421 177 431 c 128,-1,12
 173 441 173 441 162 446.5 c 128,-1,13
 151 452 151 452 131 455 c 1,14,-1
 135 481 l 1,15,16
 267 481 267 481 242 339 c 2,17,-1
 184 11 l 1,18,-1
 184 11 l 1,0,1
EndSplineSet
EndChar
StartChar: asciicircum
Encoding: 94 94 63
Width: 477
Flags: W
Fore
370 183 m 1,0,-1
 302 361 l 1,1,-1
 172 183 l 1,2,-1
 95 183 l 1,3,-1
 287 448 l 1,4,-1
 347 448 l 1,5,-1
 448 183 l 1,6,-1
 370 183 l 1,0,-1
EndSplineSet
EndChar
StartChar: underscore
Encoding: 95 95 64
Width: 404
Flags: W
Fore
-11 -91 m 1,0,-1
 -4 -55 l 1,1,-1
 389 -55 l 1,2,-1
 382 -91 l 1,3,-1
 -11 -91 l 1,0,-1
EndSplineSet
EndChar
StartChar: grave
Encoding: 96 96 65
Width: 228
Flags: W
Fore
222 425 m 1,0,-1
 119 481 l 2,1,2
 85 500 85 500 88 520 c 0,3,4
 90 531 90 531 98.5 542 c 128,-1,5
 107 553 107 553 124 553 c 0,6,7
 135 553 135 553 144.5 548 c 128,-1,8
 154 543 154 543 160 537 c 2,9,-1
 272 425 l 1,10,-1
 222 425 l 1,0,-1
EndSplineSet
EndChar
StartChar: a
Encoding: 97 97 66
Width: 429
Flags: W
Fore
328 -1 m 1,0,1
 324 21 l 128,-1,2
 322 32 322 32 324 44 c 1,3,4
 294 15 294 15 255 2.5 c 128,-1,5
 216 -10 216 -10 177 -10 c 0,6,7
 148 -10 148 -10 120.5 -3 c 128,-1,8
 93 4 93 4 73 18 c 128,-1,9
 53 32 53 32 43 53.5 c 128,-1,10
 33 75 33 75 38 104 c 0,11,12
 45 142 45 142 73 166 c 128,-1,13
 101 190 101 190 139 203 c 128,-1,14
 177 216 177 216 219 220.5 c 128,-1,15
 261 225 261 225 296 225 c 0,16,17
 298 225 298 225 315.5 225.5 c 128,-1,18
 333 226 333 226 349 226 c 1,19,20
 352 244 352 244 350 261 c 128,-1,21
 348 278 348 278 338 291 c 128,-1,22
 328 304 328 304 311 312 c 128,-1,23
 294 320 294 320 267 320 c 0,24,25
 231 320 231 320 205 303 c 128,-1,26
 179 286 179 286 164 247 c 1,27,-1
 81 247 l 1,28,29
 94 275 94 275 115 296.5 c 128,-1,30
 136 318 136 318 161.5 331.5 c 128,-1,31
 187 345 187 345 216 352 c 128,-1,32
 245 359 245 359 274 359 c 0,33,34
 362 359 362 359 397 322.5 c 128,-1,35
 432 286 432 286 421 225 c 2,36,-1
 397 86 l 2,37,38
 392 60 392 60 393.5 38 c 128,-1,39
 395 16 395 16 398 -1 c 1,40,-1
 328 -1 l 1,0,1
290 186 m 2,41,42
 259 186 259 186 230 180.5 c 128,-1,43
 201 175 201 175 178 164.5 c 128,-1,44
 155 154 155 154 140 138.5 c 128,-1,45
 125 123 125 123 121 102 c 0,46,47
 119 88 119 88 124 75 c 128,-1,48
 129 62 129 62 139.5 51.5 c 128,-1,49
 150 41 150 41 165.5 34.5 c 128,-1,50
 181 28 181 28 201 28 c 0,51,52
 225 28 225 28 247.5 37.5 c 128,-1,53
 270 47 270 47 288.5 64.5 c 128,-1,54
 307 82 307 82 320 106 c 128,-1,55
 333 130 333 130 338 160 c 2,56,-1
 342 186 l 1,57,-1
 290 186 l 2,41,42
EndSplineSet
Substitution: 0 65534 'L025' uni0E38
Substitution: 0 65534 'L025' uni0E38
EndChar
StartChar: b
Encoding: 98 98 67
Width: 463
Flags: W
Fore
247 -11 m 0,0,1
 205 -11 205 -11 174 3.5 c 128,-1,2
 143 18 143 18 124 44 c 1,3,-1
 116 -1 l 1,4,-1
 44 -1 l 1,5,-1
 130 484 l 1,6,-1
 202 484 l 1,7,-1
 170 306 l 1,8,9
 228 366 228 366 313 366 c 0,10,11
 354 366 354 366 387 352.5 c 128,-1,12
 420 339 420 339 442 314.5 c 128,-1,13
 464 290 464 290 472.5 255.5 c 128,-1,14
 481 221 481 221 474 178 c 0,15,16
 467 139 467 139 446.5 104.5 c 128,-1,17
 426 70 426 70 395 44.5 c 128,-1,18
 364 19 364 19 326 4 c 128,-1,19
 288 -11 288 -11 247 -11 c 0,0,1
294 327 m 0,20,21
 271 327 271 327 247 315 c 128,-1,22
 223 303 223 303 203 282.5 c 128,-1,23
 183 262 183 262 168 234.5 c 128,-1,24
 153 207 153 207 148 176 c 0,25,26
 142 146 142 146 147.5 119 c 128,-1,27
 153 92 153 92 166 72 c 128,-1,28
 179 52 179 52 199 40.5 c 128,-1,29
 219 29 219 29 242 29 c 0,30,31
 266 29 266 29 290 39.5 c 128,-1,32
 314 50 314 50 335 69.5 c 128,-1,33
 356 89 356 89 371 116 c 128,-1,34
 386 143 386 143 392 176 c 0,35,36
 398 210 398 210 392 237.5 c 128,-1,37
 386 265 386 265 372.5 285 c 128,-1,38
 359 305 359 305 338.5 316 c 128,-1,39
 318 327 318 327 294 327 c 0,20,21
EndSplineSet
Substitution: 0 65534 'L025' uni0E39
Substitution: 0 65534 'L025' uni0E39
EndChar
StartChar: c
Encoding: 99 99 68
Width: 447
Flags: W
Fore
236 -10 m 0,0,1
 193 -10 193 -10 157 3.5 c 128,-1,2
 121 17 121 17 96 41.5 c 128,-1,3
 71 66 71 66 59.5 99.5 c 128,-1,4
 48 133 48 133 55 174 c 256,5,6
 62 215 62 215 85.5 249 c 128,-1,7
 109 283 109 283 142.5 307.5 c 128,-1,8
 176 332 176 332 217 345.5 c 128,-1,9
 258 359 258 359 301 359 c 0,10,11
 332 359 332 359 360.5 352.5 c 128,-1,12
 389 346 389 346 411.5 331 c 128,-1,13
 434 316 434 316 449 292.5 c 128,-1,14
 464 269 464 269 468 235 c 1,15,-1
 385 235 l 1,16,17
 375 277 375 277 352 298.5 c 128,-1,18
 329 320 329 320 290 320 c 0,19,20
 261 320 261 320 236 308.5 c 128,-1,21
 211 297 211 297 191.5 277.5 c 128,-1,22
 172 258 172 258 159 232 c 128,-1,23
 146 206 146 206 141 178 c 0,24,25
 130 112 130 112 155.5 70.5 c 128,-1,26
 181 29 181 29 239 29 c 0,27,28
 314 29 314 29 363 113 c 1,29,-1
 446 113 l 1,30,31
 431 80 431 80 407.5 56.5 c 128,-1,32
 384 33 384 33 356.5 18 c 128,-1,33
 329 3 329 3 298 -3.5 c 128,-1,34
 267 -10 267 -10 236 -10 c 0,0,1
EndSplineSet
Substitution: 0 65534 'L025' uni0E3A
Substitution: 0 65534 'L025' uni0E3A
EndChar
StartChar: d
Encoding: 100 100 69
Width: 463
Flags: W
Fore
352 44 m 1,0,1
 325 18 325 18 289 3.5 c 128,-1,2
 253 -11 253 -11 211 -11 c 0,3,4
 170 -11 170 -11 137 4 c 128,-1,5
 104 19 104 19 83 44.5 c 128,-1,6
 62 70 62 70 53 104.5 c 128,-1,7
 44 139 44 139 51 178 c 0,8,9
 58 221 58 221 79 255.5 c 128,-1,10
 100 290 100 290 130.5 314.5 c 128,-1,11
 161 339 161 339 198.5 352.5 c 128,-1,12
 236 366 236 366 277 366 c 0,13,14
 363 366 363 366 398 306 c 1,15,-1
 430 484 l 1,16,-1
 503 484 l 1,17,-1
 417 -1 l 1,18,-1
 344 -1 l 1,19,-1
 352 44 l 1,0,1
282 327 m 0,20,21
 258 327 258 327 234 316 c 128,-1,22
 210 305 210 305 189.5 285 c 128,-1,23
 169 265 169 265 154 237.5 c 128,-1,24
 139 210 139 210 133 176 c 0,25,26
 127 143 127 143 132.5 116 c 128,-1,27
 138 89 138 89 151.5 69.5 c 128,-1,28
 165 50 165 50 185.5 39.5 c 128,-1,29
 206 29 206 29 230 29 c 256,30,31
 254 29 254 29 277.5 40.5 c 128,-1,32
 301 52 301 52 321 72 c 128,-1,33
 341 92 341 92 355.5 119 c 128,-1,34
 370 146 370 146 376 176 c 0,35,36
 381 207 381 207 376 234.5 c 128,-1,37
 371 262 371 262 357.5 282.5 c 128,-1,38
 344 303 344 303 324.5 315 c 128,-1,39
 305 327 305 327 282 327 c 0,20,21
EndSplineSet
EndChar
StartChar: e
Encoding: 101 101 70
Width: 452
Flags: W
Fore
147 205 m 1,0,1
 145 197 145 197 143.5 188 c 128,-1,2
 142 179 142 179 141 171 c 0,3,4
 136 144 136 144 140 118.5 c 128,-1,5
 144 93 144 93 157 73 c 128,-1,6
 170 53 170 53 192.5 41 c 128,-1,7
 215 29 215 29 247 29 c 0,8,9
 271 29 271 29 292.5 39 c 128,-1,10
 314 49 314 49 331 65 c 128,-1,11
 348 81 348 81 359.5 100.5 c 128,-1,12
 371 120 371 120 377 140 c 1,13,-1
 452 140 l 1,14,15
 443 104 443 104 422.5 76 c 128,-1,16
 402 48 402 48 373.5 28.5 c 128,-1,17
 345 9 345 9 310.5 -1 c 128,-1,18
 276 -11 276 -11 239 -11 c 0,19,20
 189 -11 189 -11 151.5 4.5 c 128,-1,21
 114 20 114 20 90.5 45.5 c 128,-1,22
 67 71 67 71 57.5 103.5 c 128,-1,23
 48 136 48 136 54 170 c 0,24,25
 62 213 62 213 85 248 c 128,-1,26
 108 283 108 283 140.5 307.5 c 128,-1,27
 173 332 173 332 213.5 345.5 c 128,-1,28
 254 359 254 359 296 359 c 0,29,30
 330 359 330 359 362.5 351 c 128,-1,31
 395 343 395 343 419 325 c 128,-1,32
 443 307 443 307 456.5 277.5 c 128,-1,33
 470 248 470 248 468 205 c 1,34,-1
 147 205 l 1,0,1
285 321 m 0,35,36
 267 321 267 321 250 314.5 c 128,-1,37
 233 308 233 308 218 297.5 c 128,-1,38
 203 287 203 287 190.5 273.5 c 128,-1,39
 178 260 178 260 171 246 c 1,40,-1
 381 246 l 1,41,42
 375 275 375 275 352.5 298 c 128,-1,43
 330 321 330 321 285 321 c 0,35,36
EndSplineSet
EndChar
StartChar: f
Encoding: 102 102 71
Width: 245
Flags: W
Fore
276 431 m 0,0,1
 256 431 256 431 238.5 419.5 c 128,-1,2
 221 408 221 408 217 386 c 2,3,-1
 208 335 l 1,4,-1
 281 335 l 1,5,-1
 252 294 l 1,6,-1
 200 294 l 1,7,-1
 149 0 l 1,8,-1
 76 0 l 1,9,-1
 127 294 l 1,10,-1
 63 294 l 1,11,-1
 92 335 l 1,12,-1
 135 335 l 1,13,14
 141 370 141 370 160.5 398.5 c 128,-1,15
 180 427 180 427 207.5 446.5 c 128,-1,16
 235 466 235 466 268.5 475.5 c 128,-1,17
 302 485 302 485 337 482 c 1,18,-1
 325 412 l 1,19,20
 308 423 308 423 295.5 427 c 128,-1,21
 283 431 283 431 276 431 c 0,0,1
EndSplineSet
EndChar
StartChar: g
Encoding: 103 103 72
Width: 462
Flags: W
Fore
187 -133 m 0,0,1
 157 -133 157 -133 123.5 -126.5 c 128,-1,2
 90 -120 90 -120 63 -107 c 128,-1,3
 36 -94 36 -94 19.5 -74.5 c 128,-1,4
 3 -55 3 -55 8 -28 c 0,5,6
 10 -13 10 -13 21.5 -0.5 c 128,-1,7
 33 12 33 12 49 21.5 c 128,-1,8
 65 31 65 31 84 38.5 c 128,-1,9
 103 46 103 46 121 50 c 1,10,11
 105 54 105 54 97.5 64 c 128,-1,12
 90 74 90 74 92 85 c 0,13,14
 95 99 95 99 108.5 108 c 128,-1,15
 122 117 122 117 140 119 c 1,16,17
 102 142 102 142 88 172 c 128,-1,18
 74 202 74 202 79 230 c 256,19,20
 84 258 84 258 103.5 282 c 128,-1,21
 123 306 123 306 151.5 323 c 128,-1,22
 180 340 180 340 215 349.5 c 128,-1,23
 250 359 250 359 286 359 c 0,24,25
 300 359 300 359 319 357 c 128,-1,26
 338 355 338 355 356 350 c 1,27,28
 378 380 378 380 409 393 c 128,-1,29
 440 406 440 406 499 405 c 1,30,-1
 486 334 l 1,31,32
 450 343 450 343 428 340 c 128,-1,33
 406 337 406 337 394 332 c 1,34,35
 422 315 422 315 437 288.5 c 128,-1,36
 452 262 452 262 446 230 c 0,37,38
 441 202 441 202 422 178.5 c 128,-1,39
 403 155 403 155 374.5 137.5 c 128,-1,40
 346 120 346 120 311 110 c 128,-1,41
 276 100 276 100 240 100 c 2,42,-1
 190 100 l 2,43,44
 186 100 186 100 179 99 c 128,-1,45
 172 98 172 98 171 94 c 0,46,47
 170 89 170 89 180 86 c 128,-1,48
 190 83 190 83 223 83 c 0,49,50
 248 83 248 83 286.5 82 c 128,-1,51
 325 81 325 81 359.5 72 c 128,-1,52
 394 63 394 63 416.5 43.5 c 128,-1,53
 439 24 439 24 433 -13 c 256,54,55
 427 -50 427 -50 400 -73 c 128,-1,56
 373 -96 373 -96 336.5 -109.5 c 128,-1,57
 300 -123 300 -123 260 -128 c 128,-1,58
 220 -133 220 -133 187 -133 c 0,0,1
279 319 m 0,59,60
 233 319 233 319 201.5 295.5 c 128,-1,61
 170 272 170 272 162 230 c 0,62,63
 154 187 154 187 177.5 163.5 c 128,-1,64
 201 140 201 140 247 140 c 256,65,66
 293 140 293 140 324 163.5 c 128,-1,67
 355 187 355 187 363 230 c 0,68,69
 371 272 371 272 348.5 295.5 c 128,-1,70
 326 319 326 319 279 319 c 0,59,60
232 32 m 0,71,72
 191 32 191 32 164 27 c 128,-1,73
 137 22 137 22 120.5 13 c 128,-1,74
 104 4 104 4 96.5 -7.5 c 128,-1,75
 89 -19 89 -19 87 -32 c 0,76,77
 85 -43 85 -43 92 -54 c 128,-1,78
 99 -65 99 -65 114.5 -74.5 c 128,-1,79
 130 -84 130 -84 154 -90 c 128,-1,80
 178 -96 178 -96 210 -96 c 0,81,82
 241 -96 241 -96 267 -89 c 128,-1,83
 293 -82 293 -82 312 -72.5 c 128,-1,84
 331 -63 331 -63 342 -52 c 128,-1,85
 353 -41 353 -41 355 -32 c 0,86,87
 357 -21 357 -21 352 -9.5 c 128,-1,88
 347 2 347 2 333 11 c 128,-1,89
 319 20 319 20 294 26 c 128,-1,90
 269 32 269 32 232 32 c 0,71,72
EndSplineSet
EndChar
StartChar: h
Encoding: 104 104 73
Width: 446
Flags: W
Fore
367 238 m 2,0,1
 373 270 373 270 352 295 c 128,-1,2
 331 320 331 320 283 320 c 0,3,4
 259 320 259 320 237.5 310.5 c 128,-1,5
 216 301 216 301 198 284 c 128,-1,6
 180 267 180 267 167.5 244 c 128,-1,7
 155 221 155 221 151 195 c 2,8,-1
 117 0 l 1,9,-1
 45 0 l 1,10,-1
 125 458 l 1,11,-1
 197 458 l 1,12,-1
 170 303 l 1,13,14
 198 334 198 334 235 346.5 c 128,-1,15
 272 359 272 359 298 359 c 0,16,17
 333 359 333 359 361.5 351 c 128,-1,18
 390 343 390 343 409.5 326 c 128,-1,19
 429 309 429 309 437.5 283.5 c 128,-1,20
 446 258 446 258 440 222 c 2,21,-1
 401 0 l 1,22,-1
 326 0 l 1,23,-1
 367 238 l 2,0,1
EndSplineSet
EndChar
StartChar: i
Encoding: 105 105 74
Width: 194
Flags: W
Fore
162 373 m 256,0,1
 142 373 142 373 131 386 c 128,-1,2
 120 399 120 399 123 417 c 0,3,4
 126 436 126 436 142 448.5 c 128,-1,5
 158 461 158 461 178 461 c 256,6,7
 198 461 198 461 209 448.5 c 128,-1,8
 220 436 220 436 217 417 c 0,9,10
 214 399 214 399 198 386 c 128,-1,11
 182 373 182 373 162 373 c 256,0,1
122 355 m 1,12,-1
 194 355 l 1,13,-1
 132 0 l 1,14,-1
 60 0 l 1,15,-1
 122 355 l 1,12,-1
EndSplineSet
EndChar
StartChar: j
Encoding: 106 106 75
Width: 212
Flags: W
Fore
180 372 m 256,0,1
 160 372 160 372 149 385 c 128,-1,2
 138 398 138 398 141 417 c 256,3,4
 144 436 144 436 160 448.5 c 128,-1,5
 176 461 176 461 196 461 c 256,6,7
 216 461 216 461 227 448.5 c 128,-1,8
 238 436 238 436 235 417 c 256,9,10
 232 398 232 398 216 385 c 128,-1,11
 200 372 200 372 180 372 c 256,0,1
-1 -123 m 0,12,13
 -15 -123 -15 -123 -37 -119 c 128,-1,14
 -59 -115 -59 -115 -76 -101 c 1,15,-1
 -35 -51 l 1,16,17
 -25 -62 -25 -62 -13.5 -66.5 c 128,-1,18
 -2 -71 -2 -71 4 -71 c 0,19,20
 17 -71 17 -71 29 -66.5 c 128,-1,21
 41 -62 41 -62 51.5 -50 c 128,-1,22
 62 -38 62 -38 70 -17 c 128,-1,23
 78 4 78 4 84 37 c 2,24,-1
 140 353 l 1,25,-1
 213 353 l 1,26,-1
 160 52 l 2,27,28
 151 4 151 4 134.5 -29.5 c 128,-1,29
 118 -63 118 -63 96.5 -83.5 c 128,-1,30
 75 -104 75 -104 50 -113.5 c 128,-1,31
 25 -123 25 -123 -1 -123 c 0,12,13
EndSplineSet
EndChar
StartChar: k
Encoding: 107 107 76
Width: 401
Flags: W
Fore
210 200 m 1,0,-1
 144 157 l 1,1,-1
 117 0 l 1,2,-1
 45 0 l 1,3,-1
 130 484 l 1,4,-1
 202 484 l 1,5,-1
 154 211 l 1,6,-1
 365 356 l 1,7,-1
 441 356 l 1,8,-1
 272 243 l 1,9,-1
 410 0 l 1,10,-1
 326 0 l 1,11,-1
 210 200 l 1,0,-1
EndSplineSet
EndChar
StartChar: l
Encoding: 108 108 77
Width: 162
Flags: W
Fore
130 484 m 1,0,-1
 202 484 l 1,1,-1
 117 0 l 1,2,-1
 45 0 l 1,3,-1
 130 484 l 1,0,-1
EndSplineSet
EndChar
StartChar: m
Encoding: 109 109 78
Width: 684
Flags: W
Fore
604 231 m 2,0,1
 611 269 611 269 589.5 294 c 128,-1,2
 568 319 568 319 531 319 c 0,3,4
 489 319 489 319 459 286 c 128,-1,5
 429 253 429 253 415 178 c 2,6,-1
 384 0 l 1,7,-1
 309 0 l 1,8,-1
 342 191 l 2,9,10
 353 249 353 249 338 284 c 128,-1,11
 323 319 323 319 279 319 c 0,12,13
 256 319 256 319 234.5 308.5 c 128,-1,14
 213 298 213 298 196 280.5 c 128,-1,15
 179 263 179 263 167 240.5 c 128,-1,16
 155 218 155 218 151 195 c 2,17,-1
 117 0 l 1,18,-1
 45 0 l 1,19,-1
 106 348 l 1,20,-1
 178 348 l 1,21,-1
 169 300 l 1,22,23
 192 330 192 330 227 344 c 128,-1,24
 262 358 262 358 297 358 c 0,25,26
 335 358 335 358 364.5 340 c 128,-1,27
 394 322 394 322 407 280 c 1,28,29
 421 304 421 304 437.5 319.5 c 128,-1,30
 454 335 454 335 471.5 343.5 c 128,-1,31
 489 352 489 352 506.5 355 c 128,-1,32
 524 358 524 358 541 358 c 0,33,34
 569 358 569 358 596.5 351.5 c 128,-1,35
 624 345 624 345 644.5 329 c 128,-1,36
 665 313 665 313 675 287.5 c 128,-1,37
 685 262 685 262 678 225 c 2,38,-1
 639 0 l 1,39,-1
 564 0 l 1,40,-1
 604 231 l 2,0,1
EndSplineSet
EndChar
StartChar: n
Encoding: 110 110 79
Width: 446
Flags: W
Fore
367 237 m 2,0,1
 373 269 373 269 352 294 c 128,-1,2
 331 319 331 319 283 319 c 0,3,4
 259 319 259 319 237.5 309.5 c 128,-1,5
 216 300 216 300 198 283 c 128,-1,6
 180 266 180 266 167.5 243.5 c 128,-1,7
 155 221 155 221 151 195 c 2,8,-1
 117 0 l 1,9,-1
 45 0 l 1,10,-1
 106 348 l 1,11,-1
 178 348 l 1,12,-1
 170 303 l 1,13,14
 198 334 198 334 235 346 c 128,-1,15
 272 358 272 358 298 358 c 0,16,17
 333 358 333 358 361.5 350 c 128,-1,18
 390 342 390 342 409.5 325 c 128,-1,19
 429 308 429 308 437 282.5 c 128,-1,20
 445 257 445 257 439 221 c 2,21,-1
 401 0 l 1,22,-1
 326 0 l 1,23,-1
 367 237 l 2,0,1
EndSplineSet
EndChar
StartChar: o
Encoding: 111 111 80
Width: 462
Flags: W
Fore
228 -10 m 0,0,1
 184 -10 184 -10 148 2.5 c 128,-1,2
 112 15 112 15 88 39 c 128,-1,3
 64 63 64 63 53 97 c 128,-1,4
 42 131 42 131 50 174 c 0,5,6
 57 217 57 217 80 251 c 128,-1,7
 103 285 103 285 135.5 308.5 c 128,-1,8
 168 332 168 332 208.5 344.5 c 128,-1,9
 249 357 249 357 293 357 c 0,10,11
 336 357 336 357 372.5 344.5 c 128,-1,12
 409 332 409 332 433.5 308.5 c 128,-1,13
 458 285 458 285 468.5 251 c 128,-1,14
 479 217 479 217 472 174 c 0,15,16
 464 131 464 131 441.5 97 c 128,-1,17
 419 63 419 63 386 39 c 128,-1,18
 353 15 353 15 312 2.5 c 128,-1,19
 271 -10 271 -10 228 -10 c 0,0,1
287 318 m 256,20,21
 230 318 230 318 188.5 282 c 128,-1,22
 147 246 147 246 134 174 c 256,23,24
 121 102 121 102 150.5 65.5 c 128,-1,25
 180 29 180 29 237 29 c 256,26,27
 294 29 294 29 335 65.5 c 128,-1,28
 376 102 376 102 389 174 c 256,29,30
 402 246 402 246 373 282 c 128,-1,31
 344 318 344 318 287 318 c 256,20,21
EndSplineSet
EndChar
StartChar: p
Encoding: 112 112 81
Width: 468
Flags: W
Fore
245 -19 m 0,0,1
 203 -19 203 -19 172 -3 c 128,-1,2
 141 13 141 13 123 39 c 1,3,-1
 94 -129 l 1,4,-1
 22 -129 l 1,5,-1
 106 347 l 1,6,-1
 168 347 l 1,7,-1
 164 295 l 1,8,9
 190 324 190 324 228.5 340.5 c 128,-1,10
 267 357 267 357 311 357 c 0,11,12
 352 357 352 357 385 342 c 128,-1,13
 418 327 418 327 439.5 301.5 c 128,-1,14
 461 276 461 276 470 242 c 128,-1,15
 479 208 479 208 472 169 c 0,16,17
 464 126 464 126 443 91 c 128,-1,18
 422 56 422 56 391.5 31.5 c 128,-1,19
 361 7 361 7 323.5 -6 c 128,-1,20
 286 -19 286 -19 245 -19 c 0,0,1
292 317 m 0,21,22
 269 317 269 317 245.5 305.5 c 128,-1,23
 222 294 222 294 201.5 274.5 c 128,-1,24
 181 255 181 255 166.5 228 c 128,-1,25
 152 201 152 201 147 171 c 0,26,27
 141 140 141 140 146.5 112.5 c 128,-1,28
 152 85 152 85 165 64.5 c 128,-1,29
 178 44 178 44 197.5 32 c 128,-1,30
 217 20 217 20 240 20 c 0,31,32
 264 20 264 20 288.5 31 c 128,-1,33
 313 42 313 42 333.5 62 c 128,-1,34
 354 82 354 82 369.5 109.5 c 128,-1,35
 385 137 385 137 391 171 c 0,36,37
 397 204 397 204 391 230.5 c 128,-1,38
 385 257 385 257 371 276.5 c 128,-1,39
 357 296 357 296 336.5 306.5 c 128,-1,40
 316 317 316 317 292 317 c 0,21,22
EndSplineSet
EndChar
StartChar: q
Encoding: 113 113 82
Width: 468
Flags: W
Fore
357 39 m 1,0,1
 330 13 330 13 293.5 -3 c 128,-1,2
 257 -19 257 -19 215 -19 c 0,3,4
 174 -19 174 -19 140.5 -6 c 128,-1,5
 107 7 107 7 85.5 31.5 c 128,-1,6
 64 56 64 56 55 91 c 128,-1,7
 46 126 46 126 54 169 c 0,8,9
 61 208 61 208 81.5 242 c 128,-1,10
 102 276 102 276 133 301.5 c 128,-1,11
 164 327 164 327 202 342 c 128,-1,12
 240 357 240 357 281 357 c 0,13,14
 325 357 325 357 358 340.5 c 128,-1,15
 391 324 391 324 408 295 c 1,16,-1
 422 347 l 1,17,-1
 484 347 l 1,18,-1
 400 -129 l 1,19,-1
 328 -129 l 1,20,-1
 357 39 l 1,0,1
285 317 m 256,21,22
 261 317 261 317 237 306.5 c 128,-1,23
 213 296 213 296 193 276.5 c 128,-1,24
 173 257 173 257 158 230.5 c 128,-1,25
 143 204 143 204 137 171 c 0,26,27
 131 137 131 137 136.5 109.5 c 128,-1,28
 142 82 142 82 155.5 62 c 128,-1,29
 169 42 169 42 189 31 c 128,-1,30
 209 20 209 20 233 20 c 256,31,32
 257 20 257 20 281 32 c 128,-1,33
 305 44 305 44 325 64.5 c 128,-1,34
 345 85 345 85 360 112.5 c 128,-1,35
 375 140 375 140 381 171 c 0,36,37
 386 201 386 201 380.5 228 c 128,-1,38
 375 255 375 255 361.5 274.5 c 128,-1,39
 348 294 348 294 328.5 305.5 c 128,-1,40
 309 317 309 317 285 317 c 256,21,22
EndSplineSet
EndChar
StartChar: r
Encoding: 114 114 83
Width: 264
Flags: W
Fore
295 286 m 1,0,1
 287 292 287 292 275 296.5 c 128,-1,2
 263 301 263 301 258 301 c 0,3,4
 212 301 212 301 185.5 271 c 128,-1,5
 159 241 159 241 150 189 c 2,6,-1
 117 0 l 1,7,-1
 45 0 l 1,8,-1
 106 348 l 1,9,-1
 178 348 l 1,10,-1
 168 294 l 1,11,12
 196 332 196 332 235.5 345.5 c 128,-1,13
 275 359 275 359 320 354 c 1,14,-1
 295 286 l 1,15,-1
 295 286 l 1,0,1
EndSplineSet
EndChar
StartChar: s
Encoding: 115 115 84
Width: 415
Flags: W
Fore
206 -12 m 0,0,1
 172 -12 172 -12 142.5 -3.5 c 128,-1,2
 113 5 113 5 91.5 21 c 128,-1,3
 70 37 70 37 57.5 61 c 128,-1,4
 45 85 45 85 45 116 c 1,5,-1
 120 116 l 1,6,7
 120 99 120 99 126 83.5 c 128,-1,8
 132 68 132 68 143 55 c 128,-1,9
 154 42 154 42 171.5 34.5 c 128,-1,10
 189 27 189 27 213 27 c 0,11,12
 261 27 261 27 293 45 c 128,-1,13
 325 63 325 63 330 93 c 0,14,15
 332 106 332 106 326 114 c 128,-1,16
 320 122 320 122 309.5 127.5 c 128,-1,17
 299 133 299 133 287 135.5 c 128,-1,18
 275 138 275 138 266 140 c 0,19,20
 241 145 241 145 208 149.5 c 128,-1,21
 175 154 175 154 147 165 c 128,-1,22
 119 176 119 176 102 196.5 c 128,-1,23
 85 217 85 217 91 254 c 0,24,25
 96 283 96 283 115 302.5 c 128,-1,26
 134 322 134 322 160.5 334 c 128,-1,27
 187 346 187 346 217 351.5 c 128,-1,28
 247 357 247 357 274 357 c 0,29,30
 343 357 343 357 386 324.5 c 128,-1,31
 429 292 429 292 429 230 c 1,32,-1
 353 230 l 1,33,34
 353 246 353 246 348 262 c 128,-1,35
 343 278 343 278 333 290.5 c 128,-1,36
 323 303 323 303 306.5 310.5 c 128,-1,37
 290 318 290 318 267 318 c 0,38,39
 224 318 224 318 197.5 302.5 c 128,-1,40
 171 287 171 287 167 264 c 0,41,42
 165 250 165 250 170 241 c 128,-1,43
 175 232 175 232 185 226 c 128,-1,44
 195 220 195 220 207 216.5 c 128,-1,45
 219 213 219 213 231 211 c 0,46,47
 243 208 243 208 257.5 206 c 128,-1,48
 272 204 272 204 287 201 c 0,49,50
 307 198 307 198 330 192.5 c 128,-1,51
 353 187 353 187 372 176.5 c 128,-1,52
 391 166 391 166 402 149 c 128,-1,53
 413 132 413 132 408 105 c 0,54,55
 402 72 402 72 382 49.5 c 128,-1,56
 362 27 362 27 333.5 13.5 c 128,-1,57
 305 0 305 0 272 -6 c 128,-1,58
 239 -12 239 -12 206 -12 c 0,0,1
EndSplineSet
EndChar
StartChar: t
Encoding: 116 116 85
Width: 257
Flags: W
Fore
176 -6 m 0,0,1
 129 -6 129 -6 106.5 22.5 c 128,-1,2
 84 51 84 51 95 111 c 2,3,-1
 127 292 l 1,4,-1
 74 292 l 1,5,-1
 81 330 l 1,6,-1
 133 330 l 1,7,-1
 188 428 l 1,8,-1
 223 428 l 1,9,-1
 206 330 l 1,10,-1
 275 330 l 1,11,-1
 268 292 l 1,12,-1
 199 292 l 1,13,-1
 165 100 l 2,14,15
 162 80 162 80 163 68.5 c 128,-1,16
 164 57 164 57 168 51 c 128,-1,17
 172 45 172 45 178 43 c 128,-1,18
 184 41 184 41 190 41 c 0,19,20
 203 41 203 41 218.5 47 c 128,-1,21
 234 53 234 53 258 66 c 1,22,-1
 248 11 l 1,23,24
 234 3 234 3 214.5 -1.5 c 128,-1,25
 195 -6 195 -6 176 -6 c 0,0,1
EndSplineSet
EndChar
StartChar: u
Encoding: 117 117 86
Width: 446
Flags: W
Fore
335 45 m 1,0,1
 321 30 321 30 304.5 19 c 128,-1,2
 288 8 288 8 271 1.5 c 128,-1,3
 254 -5 254 -5 237.5 -8 c 128,-1,4
 221 -11 221 -11 208 -11 c 0,5,6
 173 -11 173 -11 144.5 -3 c 128,-1,7
 116 5 116 5 96.5 22 c 128,-1,8
 77 39 77 39 69 65 c 128,-1,9
 61 91 61 91 67 126 c 2,10,-1
 106 348 l 1,11,-1
 180 348 l 1,12,-1
 138 111 l 2,13,14
 133 79 133 79 154 53.5 c 128,-1,15
 175 28 175 28 222 28 c 0,16,17
 246 28 246 28 267.5 38 c 128,-1,18
 289 48 289 48 307 65 c 128,-1,19
 325 82 325 82 337 104.5 c 128,-1,20
 349 127 349 127 354 153 c 2,21,-1
 389 348 l 1,22,-1
 462 348 l 1,23,-1
 400 -1 l 1,24,-1
 327 -1 l 1,25,-1
 335 45 l 1,0,1
EndSplineSet
EndChar
StartChar: v
Encoding: 118 118 87
Width: 421
Flags: W
Fore
198 -11 m 1,0,-1
 64 348 l 1,1,-1
 146 348 l 1,2,-1
 244 88 l 1,3,-1
 431 348 l 1,4,-1
 479 348 l 1,5,-1
 221 -11 l 1,6,-1
 198 -11 l 1,0,-1
EndSplineSet
EndChar
StartChar: w
Encoding: 119 119 88
Width: 628
Flags: W
Fore
423 -11 m 1,0,-1
 354 230 l 1,1,-1
 203 -11 l 1,2,-1
 179 -11 l 1,3,-1
 64 348 l 1,4,-1
 144 348 l 1,5,-1
 224 91 l 1,6,-1
 382 352 l 1,7,-1
 398 352 l 1,8,-1
 472 93 l 1,9,-1
 639 348 l 1,10,-1
 686 348 l 1,11,-1
 448 -11 l 1,12,-1
 423 -11 l 1,0,-1
EndSplineSet
EndChar
StartChar: x
Encoding: 120 120 89
Width: 411
Flags: W
Fore
217 138 m 1,0,-1
 68 0 l 1,1,-1
 12 0 l 1,2,-1
 196 167 l 1,3,-1
 64 348 l 1,4,-1
 152 348 l 1,5,-1
 249 215 l 1,6,-1
 390 348 l 1,7,-1
 446 348 l 1,8,-1
 270 187 l 1,9,-1
 408 0 l 1,10,-1
 320 0 l 1,11,-1
 217 138 l 1,0,-1
EndSplineSet
EndChar
StartChar: y
Encoding: 121 121 90
Width: 424
Flags: W
Fore
78 -80 m 0,0,1
 99 -80 99 -80 116.5 -70.5 c 128,-1,2
 134 -61 134 -61 147.5 -47.5 c 128,-1,3
 161 -34 161 -34 169.5 -18.5 c 128,-1,4
 178 -3 178 -3 180 9 c 0,5,6
 182 20 182 20 180 28.5 c 128,-1,7
 178 37 178 37 176 44 c 2,8,-1
 64 348 l 1,9,-1
 146 348 l 1,10,-1
 244 81 l 1,11,-1
 434 348 l 1,12,-1
 482 348 l 1,13,-1
 229 -9 l 2,14,15
 211 -33 211 -33 192 -55.5 c 128,-1,16
 173 -78 173 -78 153 -95 c 128,-1,17
 133 -112 133 -112 112.5 -122 c 128,-1,18
 92 -132 92 -132 72 -132 c 256,19,20
 52 -132 52 -132 30.5 -128 c 128,-1,21
 9 -124 9 -124 -7 -110 c 1,22,-1
 33 -60 l 1,23,24
 43 -71 43 -71 57 -75.5 c 128,-1,25
 71 -80 71 -80 78 -80 c 0,0,1
EndSplineSet
EndChar
StartChar: z
Encoding: 122 122 91
Width: 411
Flags: W
Fore
387 39 m 1,0,-1
 360 0 l 1,1,-1
 10 0 l 1,2,-1
 334 309 l 1,3,-1
 105 309 l 1,4,-1
 130 348 l 1,5,-1
 462 348 l 1,6,-1
 138 39 l 1,7,-1
 387 39 l 1,0,-1
EndSplineSet
EndChar
StartChar: braceleft
Encoding: 123 123 92
Width: 282
Flags: W
Fore
313 453 m 1,0,1
 284 453 284 453 269 439 c 128,-1,2
 254 425 254 425 246 385 c 2,3,-1
 225 263 l 2,4,5
 220 232 220 232 199 207.5 c 128,-1,6
 178 183 178 183 146 171 c 1,7,8
 173 164 173 164 186 140 c 128,-1,9
 199 116 199 116 193 84 c 2,10,-1
 172 -38 l 2,11,12
 164 -78 164 -78 175 -92 c 128,-1,13
 186 -106 186 -106 215 -106 c 1,14,-1
 210 -136 l 1,15,16
 180 -136 180 -136 156 -131.5 c 128,-1,17
 132 -127 132 -127 116 -115.5 c 128,-1,18
 100 -104 100 -104 94 -84.5 c 128,-1,19
 88 -65 88 -65 93 -36 c 2,20,-1
 116 92 l 2,21,22
 121 124 121 124 111.5 143 c 128,-1,23
 102 162 102 162 63 173 c 1,24,25
 107 189 107 189 123 206 c 128,-1,26
 139 223 139 223 144 255 c 2,27,-1
 167 382 l 2,28,29
 177 441 177 441 217 461.5 c 128,-1,30
 257 482 257 482 318 482 c 1,31,-1
 313 453 l 1,32,-1
 313 453 l 1,0,1
EndSplineSet
EndChar
StartChar: bar
Encoding: 124 124 93
Width: 206
Flags: W
Fore
34 -182 m 1,0,-1
 163 547 l 1,1,-1
 234 547 l 1,2,-1
 105 -182 l 1,3,-1
 34 -182 l 1,0,-1
EndSplineSet
EndChar
StartChar: braceright
Encoding: 125 125 94
Width: 282
Flags: W
Fore
279 173 m 1,0,1
 257 167 257 167 242.5 159.5 c 128,-1,2
 228 152 228 152 219 142.5 c 128,-1,3
 210 133 210 133 205.5 120.5 c 128,-1,4
 201 108 201 108 198 92 c 2,5,-1
 175 -36 l 2,6,7
 170 -65 170 -65 157 -84.5 c 128,-1,8
 144 -104 144 -104 125 -115.5 c 128,-1,9
 106 -127 106 -127 80.5 -131.5 c 128,-1,10
 55 -136 55 -136 24 -136 c 1,11,-1
 29 -106 l 1,12,13
 58 -106 58 -106 73 -92 c 128,-1,14
 88 -78 88 -78 96 -38 c 2,15,-1
 117 84 l 2,16,17
 123 116 123 116 144.5 140 c 128,-1,18
 166 164 166 164 196 171 c 1,19,20
 167 183 167 183 155.5 207.5 c 128,-1,21
 144 232 144 232 149 263 c 2,22,-1
 170 385 l 2,23,24
 178 425 178 425 167 439 c 128,-1,25
 156 453 156 453 127 453 c 1,26,-1
 132 482 l 1,27,28
 163 482 163 482 187 477.5 c 128,-1,29
 211 473 211 473 226.5 461.5 c 128,-1,30
 242 450 242 450 248 431 c 128,-1,31
 254 412 254 412 249 382 c 2,32,-1
 226 255 l 2,33,34
 221 223 221 223 231 206 c 128,-1,35
 241 189 241 189 279 173 c 1,0,1
EndSplineSet
EndChar
StartChar: asciitilde
Encoding: 126 126 95
Width: 461
Flags: W
Fore
453 204 m 1,0,1
 424 178 424 178 397 161 c 128,-1,2
 370 144 370 144 332 144 c 0,3,4
 311 144 311 144 293 150 c 128,-1,5
 275 156 275 156 257 163 c 128,-1,6
 239 170 239 170 221 176 c 128,-1,7
 203 182 203 182 182 182 c 0,8,9
 159 182 159 182 143.5 166 c 128,-1,10
 128 150 128 150 112 134 c 1,11,-1
 74 176 l 1,12,13
 89 191 89 191 102.5 202 c 128,-1,14
 116 213 116 213 129.5 220.5 c 128,-1,15
 143 228 143 228 159 232 c 128,-1,16
 175 236 175 236 196 236 c 0,17,18
 216 236 216 236 234.5 230 c 128,-1,19
 253 224 253 224 270.5 216.5 c 128,-1,20
 288 209 288 209 305.5 203 c 128,-1,21
 323 197 323 197 342 197 c 0,22,23
 364 197 364 197 382 213 c 128,-1,24
 400 229 400 229 413 244 c 1,25,-1
 453 204 l 1,26,-1
 453 204 l 1,0,1
EndSplineSet
EndChar
StartChar: uni0E33.alt1
Encoding: 65539 -1 96
Width: 413
Flags: W
Fore
-83 534 m 0,0,1
 -86 517 -86 517 -95.5 501.5 c 128,-1,2
 -105 486 -105 486 -119.5 474.5 c 128,-1,3
 -134 463 -134 463 -151 456.5 c 128,-1,4
 -168 450 -168 450 -186 450 c 0,5,6
 -222 450 -222 450 -243.5 474.5 c 128,-1,7
 -265 499 -265 499 -259 534 c 0,8,9
 -256 551 -256 551 -246.5 566.5 c 128,-1,10
 -237 582 -237 582 -223 593.5 c 128,-1,11
 -209 605 -209 605 -192 611.5 c 128,-1,12
 -175 618 -175 618 -157 618 c 0,13,14
 -121 618 -121 618 -99 593.5 c 128,-1,15
 -77 569 -77 569 -83 534 c 0,0,1
283 0 m 1,16,-1
 332 278 l 2,17,18
 339 318 339 318 321.5 345 c 128,-1,19
 304 372 304 372 255 372 c 0,20,21
 229 372 229 372 209 363.5 c 128,-1,22
 189 355 189 355 174 341 c 128,-1,23
 159 327 159 327 149 309 c 128,-1,24
 139 291 139 291 135 273 c 1,25,-1
 53 273 l 1,26,27
 74 335 74 335 127.5 371 c 128,-1,28
 181 407 181 407 261 407 c 0,29,30
 340 407 340 407 381 372.5 c 128,-1,31
 422 338 422 338 409 261 c 2,32,-1
 363 0 l 1,33,-1
 283 0 l 1,16,-1
-118 533 m 0,34,35
 -114 554 -114 554 -127.5 569 c 128,-1,36
 -141 584 -141 584 -163 584 c 256,37,38
 -185 584 -185 584 -203.5 569 c 128,-1,39
 -222 554 -222 554 -226 533 c 0,40,41
 -229 512 -229 512 -216 497 c 128,-1,42
 -203 482 -203 482 -181 482 c 256,43,44
 -159 482 -159 482 -140 497 c 128,-1,45
 -121 512 -121 512 -118 533 c 0,34,35
EndSplineSet
EndChar
StartChar: quotedbl
Encoding: 34 34 97
Width: 274
Flags: W
Fore
247 252 m 1,0,-1
 221 252 l 1,1,-1
 227 433 l 2,2,3
 227 439 227 439 229.5 447.5 c 128,-1,4
 232 456 232 456 237.5 463.5 c 128,-1,5
 243 471 243 471 252 476 c 128,-1,6
 261 481 261 481 274 481 c 256,7,8
 287 481 287 481 294 476 c 128,-1,9
 301 471 301 471 304 463.5 c 128,-1,10
 307 456 307 456 307 447.5 c 128,-1,11
 307 439 307 439 305 433 c 2,12,-1
 247 252 l 1,0,-1
141 252 m 1,13,-1
 115 252 l 1,14,-1
 122 433 l 2,15,16
 122 439 122 439 124.5 447.5 c 128,-1,17
 127 456 127 456 132.5 463.5 c 128,-1,18
 138 471 138 471 146.5 476 c 128,-1,19
 155 481 155 481 168 481 c 256,20,21
 181 481 181 481 188 476 c 128,-1,22
 195 471 195 471 198 463.5 c 128,-1,23
 201 456 201 456 201 447.5 c 128,-1,24
 201 439 201 439 199 433 c 2,25,-1
 141 252 l 1,13,-1
EndSplineSet
EndChar
StartChar: exclam
Encoding: 33 33 98
Width: 234
Flags: W
Fore
153 107 m 1,0,-1
 118 107 l 1,1,-1
 137 392 l 2,2,3
 138 409 138 409 142.5 425.5 c 128,-1,4
 147 442 147 442 154.5 454.5 c 128,-1,5
 162 467 162 467 173.5 474.5 c 128,-1,6
 185 482 185 482 201 482 c 256,7,8
 217 482 217 482 226 474.5 c 128,-1,9
 235 467 235 467 239 454.5 c 128,-1,10
 243 442 243 442 241.5 425.5 c 128,-1,11
 240 409 240 409 235 392 c 2,12,-1
 153 107 l 1,0,-1
172 35 m 0,13,14
 168 16 168 16 152 3 c 128,-1,15
 136 -10 136 -10 116 -10 c 256,16,17
 96 -10 96 -10 84 3 c 128,-1,18
 72 16 72 16 76 35 c 0,19,20
 79 54 79 54 95.5 67 c 128,-1,21
 112 80 112 80 132 80 c 256,22,23
 152 80 152 80 163.5 67 c 128,-1,24
 175 54 175 54 172 35 c 0,13,14
EndSplineSet
EndChar
StartChar: uni0E4E.alt1
Encoding: 65540 -1 99
Width: 0
Flags: W
Fore
6 626 m 1,0,1
 -35 633 -35 633 -57 621.5 c 128,-1,2
 -79 610 -79 610 -82 593 c 0,3,4
 -84 584 -84 584 -74.5 572 c 128,-1,5
 -65 560 -65 560 -32 560 c 1,6,-1
 -47 537 l 1,7,8
 -85 533 -85 533 -115 522 c 128,-1,9
 -145 511 -145 511 -149 488 c 0,10,11
 -153 470 -153 470 -132.5 460 c 128,-1,12
 -112 450 -112 450 -60 452 c 1,13,-1
 -73 427 l 1,14,15
 -103 423 -103 423 -132.5 423.5 c 128,-1,16
 -162 424 -162 424 -184.5 430.5 c 128,-1,17
 -207 437 -207 437 -219 451 c 128,-1,18
 -231 465 -231 465 -227 488 c 0,19,20
 -225 503 -225 503 -213.5 514.5 c 128,-1,21
 -202 526 -202 526 -185.5 535 c 128,-1,22
 -169 544 -169 544 -150.5 549 c 128,-1,23
 -132 554 -132 554 -115 555 c 1,24,25
 -137 558 -137 558 -146 569.5 c 128,-1,26
 -155 581 -155 581 -152 596 c 0,27,28
 -148 620 -148 620 -132 634 c 128,-1,29
 -116 648 -116 648 -92 654 c 128,-1,30
 -68 660 -68 660 -39.5 659.5 c 128,-1,31
 -11 659 -11 659 19 654 c 1,32,-1
 6 626 l 1,0,1
EndSplineSet
EndChar
StartChar: exclamdown
Encoding: 161 161 100
Width: 206
Flags: W
Fore
220 347 m 0,0,1
 216 328 216 328 200 314.5 c 128,-1,2
 184 301 184 301 164 301 c 256,3,4
 144 301 144 301 132 314.5 c 128,-1,5
 120 328 120 328 124 347 c 0,6,7
 127 366 127 366 143.5 379 c 128,-1,8
 160 392 160 392 180 392 c 256,9,10
 200 392 200 392 211.5 379 c 128,-1,11
 223 366 223 366 220 347 c 0,0,1
159 -10 m 2,12,13
 158 -27 158 -27 153.5 -43.5 c 128,-1,14
 149 -60 149 -60 141.5 -72.5 c 128,-1,15
 134 -85 134 -85 122 -92.5 c 128,-1,16
 110 -100 110 -100 94 -100 c 256,17,18
 78 -100 78 -100 69.5 -92.5 c 128,-1,19
 61 -85 61 -85 57.5 -72.5 c 128,-1,20
 54 -60 54 -60 55 -43.5 c 128,-1,21
 56 -27 56 -27 61 -10 c 2,22,-1
 143 276 l 1,23,-1
 178 276 l 1,24,-1
 159 -10 l 2,12,13
EndSplineSet
EndChar
StartChar: cent
Encoding: 162 162 101
Width: 396
Flags: W
Fore
402 172 m 1,0,1
 377 121 377 121 334.5 96.5 c 128,-1,2
 292 72 292 72 243 67 c 1,3,-1
 229 -12 l 1,4,-1
 176 -12 l 1,5,-1
 190 68 l 1,6,7
 159 72 159 72 133 85.5 c 128,-1,8
 107 99 107 99 90 120 c 128,-1,9
 73 141 73 141 65.5 168.5 c 128,-1,10
 58 196 58 196 64 228 c 0,11,12
 70 259 70 259 86.5 286 c 128,-1,13
 103 313 103 313 127.5 334 c 128,-1,14
 152 355 152 355 183 368 c 128,-1,15
 214 381 214 381 247 386 c 1,16,-1
 260 460 l 1,17,-1
 313 460 l 1,18,-1
 300 387 l 1,19,20
 347 382 347 382 380.5 357.5 c 128,-1,21
 414 333 414 333 420 282 c 1,22,-1
 350 282 l 1,23,24
 335 357 335 357 266 357 c 0,25,26
 240 357 240 357 218 346.5 c 128,-1,27
 196 336 196 336 179 319 c 128,-1,28
 162 302 162 302 150.5 278.5 c 128,-1,29
 139 255 139 255 135 230 c 0,30,31
 125 173 125 173 147.5 135.5 c 128,-1,32
 170 98 170 98 221 98 c 0,33,34
 256 98 256 98 283 117 c 128,-1,35
 310 136 310 136 331 172 c 1,36,-1
 402 172 l 1,37,-1
 402 172 l 1,0,1
EndSplineSet
EndChar
StartChar: sterling
Encoding: 163 163 102
Width: 510
Flags: W
Fore
532 126 m 1,0,1
 520 99 520 99 502.5 74 c 128,-1,2
 485 49 485 49 463.5 30 c 128,-1,3
 442 11 442 11 416 -0.5 c 128,-1,4
 390 -12 390 -12 361 -12 c 0,5,6
 339 -12 339 -12 322.5 -3.5 c 128,-1,7
 306 5 306 5 292 17 c 128,-1,8
 278 29 278 29 265.5 43 c 128,-1,9
 253 57 253 57 240 69 c 1,10,11
 225 54 225 54 206.5 40 c 128,-1,12
 188 26 188 26 167.5 14.5 c 128,-1,13
 147 3 147 3 125 -3.5 c 128,-1,14
 103 -10 103 -10 82 -10 c 0,15,16
 70 -10 70 -10 56 -6 c 128,-1,17
 42 -2 42 -2 30.5 6 c 128,-1,18
 19 14 19 14 12.5 26 c 128,-1,19
 6 38 6 38 9 55 c 0,20,21
 13 80 13 80 30 97.5 c 128,-1,22
 47 115 47 115 69.5 125 c 128,-1,23
 92 135 92 135 115.5 139.5 c 128,-1,24
 139 144 139 144 157 144 c 0,25,26
 171 144 171 144 183.5 143 c 128,-1,27
 196 142 196 142 209 140 c 1,28,-1
 210 147 l 2,29,30
 213 164 213 164 213.5 182 c 128,-1,31
 214 200 214 200 212 217 c 1,32,-1
 134 217 l 1,33,-1
 159 255 l 1,34,-1
 202 255 l 1,35,36
 202 268 202 268 203.5 283 c 128,-1,37
 205 298 205 298 207 310 c 0,38,39
 218 373 218 373 261.5 412.5 c 128,-1,40
 305 452 305 452 375 452 c 0,41,42
 423 452 423 452 460.5 433 c 128,-1,43
 498 414 498 414 518 361 c 1,44,-1
 433 331 l 1,45,46
 434 375 434 375 410 396 c 128,-1,47
 386 417 386 417 352 417 c 0,48,49
 340 417 340 417 328.5 411 c 128,-1,50
 317 405 317 405 307 396 c 128,-1,51
 297 387 297 387 290 376 c 128,-1,52
 283 365 283 365 281 354 c 0,53,54
 276 327 276 327 280 303.5 c 128,-1,55
 284 280 284 280 292 255 c 1,56,-1
 427 255 l 1,57,-1
 402 217 l 1,58,-1
 304 217 l 1,59,60
 305 207 305 207 303.5 194 c 128,-1,61
 302 181 302 181 300 170 c 0,62,63
 298 157 298 157 292.5 144 c 128,-1,64
 287 131 287 131 281 120 c 1,65,66
 294 114 294 114 309 103.5 c 128,-1,67
 324 93 324 93 339 83 c 128,-1,68
 354 73 354 73 369.5 65.5 c 128,-1,69
 385 58 385 58 400 58 c 0,70,71
 429 58 429 58 453 80 c 128,-1,72
 477 102 477 102 497 137 c 1,73,-1
 532 126 l 1,0,1
194 96 m 1,74,75
 186 101 186 101 174 105.5 c 128,-1,76
 162 110 162 110 150 110 c 0,77,78
 126 110 126 110 105.5 98 c 128,-1,79
 85 86 85 86 80 60 c 0,80,81
 78 46 78 46 88 39.5 c 128,-1,82
 98 33 98 33 117 33 c 0,83,84
 129 33 129 33 140.5 39 c 128,-1,85
 152 45 152 45 162 54 c 128,-1,86
 172 63 172 63 180.5 74 c 128,-1,87
 189 85 189 85 194 96 c 1,74,75
EndSplineSet
EndChar
StartChar: currency
Encoding: 164 164 103
Width: 467
Flags: W
Fore
392 39 m 1,0,-1
 357 79 l 1,1,2
 330 63 330 63 299.5 54 c 128,-1,3
 269 45 269 45 238 45 c 0,4,5
 178 45 178 45 134 77 c 1,6,-1
 86 39 l 1,7,-1
 48 83 l 1,8,-1
 95 120 l 1,9,10
 67 167 67 167 77 224 c 0,11,12
 82 252 82 252 96.5 278.5 c 128,-1,13
 111 305 111 305 132 328 c 1,14,-1
 98 366 l 1,15,-1
 152 409 l 1,16,-1
 187 371 l 1,17,18
 214 387 214 387 243 394.5 c 128,-1,19
 272 402 272 402 301 402 c 0,20,21
 362 402 362 402 408 370 c 1,22,-1
 457 409 l 1,23,-1
 496 366 l 1,24,-1
 446 326 l 1,25,26
 460 304 460 304 464 277.5 c 128,-1,27
 468 251 468 251 463 224 c 0,28,29
 452 168 452 168 411 122 c 1,30,-1
 447 83 l 1,31,-1
 392 39 l 1,0,-1
403 222 m 0,32,33
 407 249 407 249 401 272.5 c 128,-1,34
 395 296 395 296 380 313.5 c 128,-1,35
 365 331 365 331 343.5 341 c 128,-1,36
 322 351 322 351 295 351 c 256,37,38
 268 351 268 351 242.5 341 c 128,-1,39
 217 331 217 331 196.5 313.5 c 128,-1,40
 176 296 176 296 161.5 272.5 c 128,-1,41
 147 249 147 249 143 222 c 0,42,43
 138 195 138 195 144 171.5 c 128,-1,44
 150 148 150 148 164.5 130 c 128,-1,45
 179 112 179 112 201 102 c 128,-1,46
 223 92 223 92 250 92 c 256,47,48
 277 92 277 92 302 102 c 128,-1,49
 327 112 327 112 348 130 c 128,-1,50
 369 148 369 148 383.5 171.5 c 128,-1,51
 398 195 398 195 403 222 c 0,32,33
EndSplineSet
EndChar
StartChar: yen
Encoding: 165 165 104
Width: 514
Flags: W
Fore
338 221 m 1,0,-1
 440 221 l 1,1,-1
 434 185 l 1,2,-1
 323 185 l 1,3,-1
 316 147 l 1,4,-1
 427 147 l 1,5,-1
 421 111 l 1,6,-1
 310 111 l 1,7,-1
 291 1 l 1,8,-1
 209 1 l 1,9,-1
 228 111 l 1,10,-1
 120 111 l 1,11,-1
 126 147 l 1,12,-1
 234 147 l 1,13,-1
 241 185 l 1,14,-1
 133 185 l 1,15,-1
 139 221 l 1,16,-1
 231 221 l 1,17,-1
 83 455 l 1,18,-1
 178 455 l 1,19,-1
 306 251 l 1,20,-1
 523 455 l 1,21,-1
 591 455 l 1,22,-1
 338 221 l 1,0,-1
EndSplineSet
EndChar
StartChar: brokenbar
Encoding: 166 166 105
Width: 185
Flags: W
Fore
99 225 m 1,0,-1
 146 492 l 1,1,-1
 211 492 l 1,2,-1
 164 225 l 1,3,-1
 99 225 l 1,0,-1
37 -128 m 1,4,-1
 84 140 l 1,5,-1
 149 140 l 1,6,-1
 102 -128 l 1,7,-1
 37 -128 l 1,4,-1
EndSplineSet
EndChar
StartChar: section
Encoding: 167 167 106
Width: 429
Flags: W
Fore
390 21 m 0,0,1
 384 -15 384 -15 361.5 -40.5 c 128,-1,2
 339 -66 339 -66 309 -82.5 c 128,-1,3
 279 -99 279 -99 244.5 -106.5 c 128,-1,4
 210 -114 210 -114 180 -114 c 0,5,6
 147 -114 147 -114 118.5 -104 c 128,-1,7
 90 -94 90 -94 69.5 -75.5 c 128,-1,8
 49 -57 49 -57 38 -30 c 128,-1,9
 27 -3 27 -3 29 31 c 1,10,-1
 113 31 l 1,11,12
 110 10 110 10 112.5 -9 c 128,-1,13
 115 -28 115 -28 124 -42.5 c 128,-1,14
 133 -57 133 -57 148.5 -66 c 128,-1,15
 164 -75 164 -75 187 -75 c 0,16,17
 206 -75 206 -75 225 -70.5 c 128,-1,18
 244 -66 244 -66 260.5 -56 c 128,-1,19
 277 -46 277 -46 288.5 -30.5 c 128,-1,20
 300 -15 300 -15 304 7 c 0,21,22
 308 32 308 32 291.5 46 c 128,-1,23
 275 60 275 60 248 69 c 128,-1,24
 221 78 221 78 188.5 86 c 128,-1,25
 156 94 156 94 130 106.5 c 128,-1,26
 104 119 104 119 88.5 140 c 128,-1,27
 73 161 73 161 79 197 c 0,28,29
 85 229 85 229 106.5 254 c 128,-1,30
 128 279 128 279 158 294 c 1,31,32
 137 324 137 324 145 367 c 0,33,34
 150 397 150 397 166.5 419 c 128,-1,35
 183 441 183 441 206.5 455 c 128,-1,36
 230 469 230 469 257.5 475.5 c 128,-1,37
 285 482 285 482 312 482 c 0,38,39
 372 482 372 482 405.5 452 c 128,-1,40
 439 422 439 422 447 365 c 1,41,-1
 369 365 l 1,42,43
 368 380 368 380 364.5 394 c 128,-1,44
 361 408 361 408 354 419.5 c 128,-1,45
 347 431 347 431 335.5 438 c 128,-1,46
 324 445 324 445 306 445 c 0,47,48
 274 445 274 445 251 427.5 c 128,-1,49
 228 410 228 410 222 378 c 0,50,51
 217 352 217 352 231.5 337 c 128,-1,52
 246 322 246 322 270 311.5 c 128,-1,53
 294 301 294 301 322 293 c 128,-1,54
 350 285 350 285 373 272.5 c 128,-1,55
 396 260 396 260 409.5 240 c 128,-1,56
 423 220 423 220 417 186 c 0,57,58
 413 162 413 162 395.5 142 c 128,-1,59
 378 122 378 122 356 107 c 1,60,61
 376 92 376 92 385.5 69 c 128,-1,62
 395 46 395 46 390 21 c 0,0,1
338 173 m 0,63,64
 342 194 342 194 325 208 c 128,-1,65
 308 222 308 222 284 231.5 c 128,-1,66
 260 241 260 241 234 248 c 128,-1,67
 208 255 208 255 194 263 c 1,68,69
 180 253 180 253 173.5 238 c 128,-1,70
 167 223 167 223 164 209 c 0,71,72
 160 187 160 187 178 173 c 128,-1,73
 196 159 196 159 222 150.5 c 128,-1,74
 248 142 248 142 275.5 137 c 128,-1,75
 303 132 303 132 318 128 c 1,76,77
 329 136 329 136 332.5 148.5 c 128,-1,78
 336 161 336 161 338 173 c 0,63,64
EndSplineSet
EndChar
StartChar: dieresis
Encoding: 168 168 107
Width: 256
Flags: W
Fore
330 475 m 0,0,1
 327 455 327 455 311.5 442 c 128,-1,2
 296 429 296 429 276 429 c 256,3,4
 256 429 256 429 245.5 442 c 128,-1,5
 235 455 235 455 238 475 c 0,6,7
 242 495 242 495 257 508 c 128,-1,8
 272 521 272 521 292 521 c 256,9,10
 312 521 312 521 323 508 c 128,-1,11
 334 495 334 495 330 475 c 0,0,1
185 475 m 0,12,13
 182 455 182 455 166.5 442 c 128,-1,14
 151 429 151 429 131 429 c 256,15,16
 111 429 111 429 100.5 442 c 128,-1,17
 90 455 90 455 93 475 c 0,18,19
 97 495 97 495 112 508 c 128,-1,20
 127 521 127 521 147 521 c 256,21,22
 167 521 167 521 178 508 c 128,-1,23
 189 495 189 495 185 475 c 0,12,13
EndSplineSet
EndChar
StartChar: copyright
Encoding: 169 169 108
Width: 575
Flags: W
Fore
592 233 m 0,0,1
 582 179 582 179 552.5 132 c 128,-1,2
 523 85 523 85 480.5 50 c 128,-1,3
 438 15 438 15 387 -5 c 128,-1,4
 336 -25 336 -25 283 -25 c 256,5,6
 230 -25 230 -25 185.5 -5 c 128,-1,7
 141 15 141 15 111 50 c 128,-1,8
 81 85 81 85 68 132 c 128,-1,9
 55 179 55 179 65 233 c 0,10,11
 74 287 74 287 104 334 c 128,-1,12
 134 381 134 381 176 416.5 c 128,-1,13
 218 452 218 452 269.5 472 c 128,-1,14
 321 492 321 492 374 492 c 256,15,16
 427 492 427 492 471 471.5 c 128,-1,17
 515 451 515 451 545 416 c 128,-1,18
 575 381 575 381 588 334 c 128,-1,19
 601 287 601 287 592 233 c 0,0,1
537 234 m 0,20,21
 544 276 544 276 534 314 c 128,-1,22
 524 352 524 352 501 380.5 c 128,-1,23
 478 409 478 409 443 426 c 128,-1,24
 408 443 408 443 366 443 c 256,25,26
 324 443 324 443 283 426 c 128,-1,27
 242 409 242 409 208.5 380.5 c 128,-1,28
 175 352 175 352 151 314 c 128,-1,29
 127 276 127 276 120 234 c 0,30,31
 112 192 112 192 122.5 154.5 c 128,-1,32
 133 117 133 117 157 88.5 c 128,-1,33
 181 60 181 60 215.5 43 c 128,-1,34
 250 26 250 26 292 26 c 256,35,36
 334 26 334 26 374.5 43 c 128,-1,37
 415 60 415 60 448.5 88.5 c 128,-1,38
 482 117 482 117 505.5 154.5 c 128,-1,39
 529 192 529 192 537 234 c 0,20,21
464 185 m 1,40,41
 452 160 452 160 434.5 142.5 c 128,-1,42
 417 125 417 125 396 113.5 c 128,-1,43
 375 102 375 102 351.5 97 c 128,-1,44
 328 92 328 92 305 92 c 0,45,46
 273 92 273 92 246 102.5 c 128,-1,47
 219 113 219 113 201 131.5 c 128,-1,48
 183 150 183 150 175 176 c 128,-1,49
 167 202 167 202 173 233 c 0,50,51
 178 264 178 264 195 290 c 128,-1,52
 212 316 212 316 236.5 334.5 c 128,-1,53
 261 353 261 353 291.5 363.5 c 128,-1,54
 322 374 322 374 354 374 c 0,55,56
 377 374 377 374 398.5 369 c 128,-1,57
 420 364 420 364 437.5 353 c 128,-1,58
 455 342 455 342 466.5 324.5 c 128,-1,59
 478 307 478 307 481 282 c 1,60,-1
 420 282 l 1,61,62
 413 314 413 314 395 331 c 128,-1,63
 377 348 377 348 347 348 c 0,64,65
 324 348 324 348 305.5 339 c 128,-1,66
 287 330 287 330 273 314.5 c 128,-1,67
 259 299 259 299 249.5 278.5 c 128,-1,68
 240 258 240 258 236 236 c 0,69,70
 227 185 227 185 244.5 152.5 c 128,-1,71
 262 120 262 120 307 120 c 0,72,73
 366 120 366 120 403 185 c 1,74,-1
 464 185 l 1,40,41
EndSplineSet
EndChar
StartChar: ordfeminine
Encoding: 170 170 109
Width: 279
Flags: W
Fore
251 224 m 1,0,1
 249 230 249 230 247.5 238 c 128,-1,2
 246 246 246 246 248 255 c 1,3,4
 228 235 228 235 202.5 226.5 c 128,-1,5
 177 218 177 218 151 218 c 0,6,7
 131 218 131 218 113.5 222.5 c 128,-1,8
 96 227 96 227 83 236 c 128,-1,9
 70 245 70 245 64 259 c 128,-1,10
 58 273 58 273 61 292 c 0,11,12
 65 316 65 316 83 331.5 c 128,-1,13
 101 347 101 347 126 356 c 128,-1,14
 151 365 151 365 178.5 368 c 128,-1,15
 206 371 206 371 229 371 c 0,16,17
 231 371 231 371 242.5 371.5 c 128,-1,18
 254 372 254 372 265 371 c 1,19,-1
 265 372 l 1,20,21
 270 397 270 397 257 416.5 c 128,-1,22
 244 436 244 436 209 436 c 0,23,24
 161 436 161 436 141 388 c 1,25,-1
 90 388 l 1,26,27
 107 424 107 424 141.5 441.5 c 128,-1,28
 176 459 176 459 213 459 c 0,29,30
 270 459 270 459 293.5 435 c 128,-1,31
 317 411 317 411 310 372 c 2,32,-1
 294 280 l 2,33,34
 291 263 291 263 291.5 248 c 128,-1,35
 292 233 292 233 294 224 c 1,36,-1
 251 224 l 1,0,1
225 348 m 2,37,38
 184 348 184 348 151 333.5 c 128,-1,39
 118 319 118 319 113 291 c 0,40,41
 109 272 109 272 125 256 c 128,-1,42
 141 240 141 240 167 240 c 0,43,44
 199 240 199 240 224.5 264.5 c 128,-1,45
 250 289 250 289 257 328 c 2,46,-1
 261 348 l 1,47,-1
 225 348 l 2,37,38
EndSplineSet
EndChar
StartChar: guillemotleft
Encoding: 171 171 110
Width: 409
Flags: W
Fore
333 36 m 1,0,-1
 247 190 l 1,1,-1
 386 343 l 1,2,-1
 428 307 l 1,3,-1
 310 190 l 1,4,-1
 387 73 l 1,5,-1
 333 36 l 1,0,-1
189 36 m 1,6,-1
 103 190 l 1,7,-1
 241 343 l 1,8,-1
 283 307 l 1,9,-1
 166 190 l 1,10,-1
 243 73 l 1,11,-1
 189 36 l 1,6,-1
EndSplineSet
EndChar
StartChar: logicalnot
Encoding: 172 172 111
Width: 412
Flags: W
Fore
321 84 m 1,0,-1
 350 245 l 1,1,-1
 53 245 l 1,2,-1
 59 282 l 1,3,-1
 431 282 l 1,4,-1
 396 84 l 1,5,-1
 321 84 l 1,0,-1
EndSplineSet
EndChar
StartChar: registered
Encoding: 174 174 112
Width: 575
Flags: W
Fore
592 233 m 0,0,1
 582 179 582 179 552.5 132 c 128,-1,2
 523 85 523 85 480.5 50 c 128,-1,3
 438 15 438 15 387 -5 c 128,-1,4
 336 -25 336 -25 283 -25 c 256,5,6
 230 -25 230 -25 185.5 -5 c 128,-1,7
 141 15 141 15 111 50 c 128,-1,8
 81 85 81 85 68 132 c 128,-1,9
 55 179 55 179 65 233 c 0,10,11
 74 287 74 287 104 334 c 128,-1,12
 134 381 134 381 176 416.5 c 128,-1,13
 218 452 218 452 269.5 472 c 128,-1,14
 321 492 321 492 374 492 c 256,15,16
 427 492 427 492 471 471.5 c 128,-1,17
 515 451 515 451 545 416 c 128,-1,18
 575 381 575 381 588 334 c 128,-1,19
 601 287 601 287 592 233 c 0,0,1
537 234 m 0,20,21
 544 276 544 276 534 314 c 128,-1,22
 524 352 524 352 501 380.5 c 128,-1,23
 478 409 478 409 443 426 c 128,-1,24
 408 443 408 443 366 443 c 256,25,26
 324 443 324 443 283 426 c 128,-1,27
 242 409 242 409 208.5 380.5 c 128,-1,28
 175 352 175 352 151 314 c 128,-1,29
 127 276 127 276 120 234 c 0,30,31
 112 192 112 192 122.5 154.5 c 128,-1,32
 133 117 133 117 157 88.5 c 128,-1,33
 181 60 181 60 215.5 43 c 128,-1,34
 250 26 250 26 292 26 c 256,35,36
 334 26 334 26 374.5 43 c 128,-1,37
 415 60 415 60 448.5 88.5 c 128,-1,38
 482 117 482 117 505.5 154.5 c 128,-1,39
 529 192 529 192 537 234 c 0,20,21
390 104 m 1,40,41
 381 114 381 114 377 128.5 c 128,-1,42
 373 143 373 143 371 158 c 2,43,-1
 369 176 l 2,44,45
 366 193 366 193 357.5 203.5 c 128,-1,46
 349 214 349 214 332 214 c 2,47,-1
 254 214 l 1,48,-1
 235 104 l 1,49,-1
 190 104 l 1,50,-1
 235 360 l 1,51,-1
 326 360 l 2,52,53
 354 360 354 360 378.5 358 c 128,-1,54
 403 356 403 356 419.5 349 c 128,-1,55
 436 342 436 342 444 328 c 128,-1,56
 452 314 452 314 448 290 c 0,57,58
 443 267 443 267 420.5 250.5 c 128,-1,59
 398 234 398 234 374 228 c 1,60,61
 395 224 395 224 406 211 c 128,-1,62
 417 198 417 198 419 181 c 2,63,-1
 423 151 l 2,64,65
 425 141 425 141 429.5 128.5 c 128,-1,66
 434 116 434 116 445 104 c 1,67,-1
 390 104 l 1,40,41
399 290 m 0,68,69
 403 311 403 311 388.5 324.5 c 128,-1,70
 374 338 374 338 328 338 c 2,71,-1
 276 338 l 1,72,-1
 258 237 l 1,73,-1
 313 237 l 2,74,75
 358 237 358 237 376 250.5 c 128,-1,76
 394 264 394 264 399 290 c 0,68,69
EndSplineSet
EndChar
StartChar: macron
Encoding: 175 175 113
Width: 249
Flags: W
Fore
87 391 m 1,0,-1
 98 450 l 1,1,-1
 308 450 l 1,2,-1
 297 391 l 1,3,-1
 87 391 l 1,0,-1
EndSplineSet
EndChar
StartChar: degree
Encoding: 176 176 114
Width: 288
Flags: W
Fore
321 354 m 256,0,1
 317 330 317 330 304.5 309 c 128,-1,2
 292 288 292 288 273.5 272.5 c 128,-1,3
 255 257 255 257 232.5 248 c 128,-1,4
 210 239 210 239 186 239 c 256,5,6
 162 239 162 239 142.5 248 c 128,-1,7
 123 257 123 257 110.5 272.5 c 128,-1,8
 98 288 98 288 92.5 309 c 128,-1,9
 87 330 87 330 91 354 c 256,10,11
 95 378 95 378 108 399 c 128,-1,12
 121 420 121 420 139 436 c 128,-1,13
 157 452 157 452 179.5 461 c 128,-1,14
 202 470 202 470 226 470 c 256,15,16
 250 470 250 470 269 461 c 128,-1,17
 288 452 288 452 301 436 c 128,-1,18
 314 420 314 420 319.5 399 c 128,-1,19
 325 378 325 378 321 354 c 256,0,1
277 352 m 0,20,21
 282 382 282 382 265 403 c 128,-1,22
 248 424 248 424 219 424 c 256,23,24
 190 424 190 424 165.5 403 c 128,-1,25
 141 382 141 382 136 352 c 0,26,27
 131 323 131 323 148 302.5 c 128,-1,28
 165 282 165 282 194 282 c 256,29,30
 223 282 223 282 247.5 302.5 c 128,-1,31
 272 323 272 323 277 352 c 0,20,21
EndSplineSet
EndChar
StartChar: plusminus
Encoding: 177 177 115
Width: 459
Flags: W
Fore
298 205 m 1,0,-1
 277 86 l 1,1,-1
 212 86 l 1,2,-1
 233 205 l 1,3,-1
 65 205 l 1,4,-1
 73 252 l 1,5,-1
 241 252 l 1,6,-1
 262 370 l 1,7,-1
 327 370 l 1,8,-1
 306 252 l 1,9,-1
 474 252 l 1,10,-1
 466 205 l 1,11,-1
 298 205 l 1,0,-1
29 0 m 1,12,-1
 37 47 l 1,13,-1
 438 47 l 1,14,-1
 430 0 l 1,15,-1
 29 0 l 1,12,-1
EndSplineSet
EndChar
StartChar: twosuperior
Encoding: 178 178 116
Width: 297
Flags: W
Fore
49 184 m 1,0,1
 56 206 56 206 69.5 222.5 c 128,-1,2
 83 239 83 239 100 251.5 c 128,-1,3
 117 264 117 264 137 274 c 128,-1,4
 157 284 157 284 178 294 c 0,5,6
 196 301 196 301 213 310 c 0,7,8
 233 320 233 320 249.5 333.5 c 128,-1,9
 266 347 266 347 271 372 c 0,10,11
 276 395 276 395 263.5 416 c 128,-1,12
 251 437 251 437 219 437 c 0,13,14
 192 437 192 437 169 417 c 128,-1,15
 146 397 146 397 140 363 c 1,16,-1
 74 363 l 1,17,18
 91 413 91 413 132.5 436 c 128,-1,19
 174 459 174 459 222 459 c 0,20,21
 247 459 247 459 269.5 453.5 c 128,-1,22
 292 448 292 448 308 437 c 128,-1,23
 324 426 324 426 332 410 c 128,-1,24
 340 394 340 394 336 372 c 0,25,26
 332 351 332 351 318.5 334.5 c 128,-1,27
 305 318 305 318 285.5 305.5 c 128,-1,28
 266 293 266 293 243 283.5 c 128,-1,29
 220 274 220 274 198 265 c 0,30,31
 175 256 175 256 155 246 c 128,-1,32
 135 236 135 236 124 222 c 1,33,-1
 317 222 l 1,34,-1
 310 184 l 1,35,-1
 49 184 l 1,0,1
EndSplineSet
EndChar
StartChar: threesuperior
Encoding: 179 179 117
Width: 297
Flags: W
Fore
331 267 m 0,0,1
 327 244 327 244 311.5 228 c 128,-1,2
 296 212 296 212 274.5 201.5 c 128,-1,3
 253 191 253 191 227 186 c 128,-1,4
 201 181 201 181 176 181 c 0,5,6
 127 181 127 181 93.5 204 c 128,-1,7
 60 227 60 227 60 277 c 1,8,-1
 126 277 l 1,9,10
 121 243 121 243 136.5 223.5 c 128,-1,11
 152 204 152 204 180 204 c 0,12,13
 210 204 210 204 236 223 c 128,-1,14
 262 242 262 242 267 268 c 0,15,16
 272 293 272 293 252 305 c 128,-1,17
 232 317 232 317 200 317 c 0,18,19
 190 317 190 317 179.5 316 c 128,-1,20
 169 315 169 315 155 313 c 1,21,-1
 160 345 l 1,22,23
 209 337 209 337 238.5 351.5 c 128,-1,24
 268 366 268 366 272 389 c 0,25,26
 275 407 275 407 264 422.5 c 128,-1,27
 253 438 253 438 224 438 c 0,28,29
 200 438 200 438 183.5 421 c 128,-1,30
 167 404 167 404 159 373 c 1,31,-1
 94 373 l 1,32,33
 100 395 100 395 113 411.5 c 128,-1,34
 126 428 126 428 144 439 c 128,-1,35
 162 450 162 450 183.5 455.5 c 128,-1,36
 205 461 205 461 228 461 c 0,37,38
 252 461 252 461 273 457 c 128,-1,39
 294 453 294 453 309.5 444 c 128,-1,40
 325 435 325 435 332.5 421.5 c 128,-1,41
 340 408 340 408 337 389 c 0,42,43
 333 369 333 369 317.5 355 c 128,-1,44
 302 341 302 341 282 333 c 1,45,-1
 281 333 l 1,46,47
 304 325 304 325 320 309 c 128,-1,48
 336 293 336 293 331 267 c 0,0,1
EndSplineSet
EndChar
StartChar: acute
Encoding: 180 180 118
Width: 183
Flags: W
Fore
295 521 m 0,0,1
 294 516 294 516 289.5 507.5 c 128,-1,2
 285 499 285 499 271 492 c 2,3,-1
 140 425 l 1,4,-1
 105 425 l 1,5,-1
 228 531 l 2,6,7
 239 539 239 539 246.5 544.5 c 128,-1,8
 254 550 254 550 268 550 c 256,9,10
 282 550 282 550 290 542.5 c 128,-1,11
 298 535 298 535 295 521 c 0,0,1
EndSplineSet
EndChar
StartChar: mu
Encoding: 181 181 119
Width: 435
Flags: W
Fore
330 44 m 1,0,1
 316 29 316 29 299 18 c 128,-1,2
 282 7 282 7 265 0.5 c 128,-1,3
 248 -6 248 -6 231.5 -9 c 128,-1,4
 215 -12 215 -12 202 -12 c 0,5,6
 177 -12 177 -12 153.5 -5.5 c 128,-1,7
 130 1 130 1 116 16 c 1,8,-1
 91 -125 l 1,9,-1
 17 -125 l 1,10,-1
 101 348 l 1,11,-1
 175 348 l 1,12,-1
 133 110 l 2,13,14
 127 78 127 78 148 53 c 128,-1,15
 169 28 169 28 217 28 c 0,16,17
 241 28 241 28 262.5 37.5 c 128,-1,18
 284 47 284 47 302 64 c 128,-1,19
 320 81 320 81 332 103.5 c 128,-1,20
 344 126 344 126 349 152 c 2,21,-1
 384 348 l 1,22,-1
 457 348 l 1,23,-1
 395 -2 l 1,24,-1
 322 -2 l 1,25,-1
 330 44 l 1,0,1
EndSplineSet
EndChar
StartChar: paragraph
Encoding: 182 182 120
Width: 404
Flags: W
Fore
409 425 m 1,0,-1
 317 -98 l 1,1,-1
 252 -98 l 1,2,-1
 344 425 l 1,3,-1
 302 425 l 1,4,-1
 210 -98 l 1,5,-1
 145 -98 l 1,6,-1
 190 158 l 1,7,8
 119 163 119 163 91 207.5 c 128,-1,9
 63 252 63 252 75 319 c 0,10,11
 81 352 81 352 98 379.5 c 128,-1,12
 115 407 115 407 140 426.5 c 128,-1,13
 165 446 165 446 196 457 c 128,-1,14
 227 468 227 468 262 468 c 2,15,-1
 467 468 l 1,16,-1
 459 425 l 1,17,-1
 409 425 l 1,0,-1
EndSplineSet
EndChar
StartChar: periodcentered
Encoding: 183 183 121
Width: 226
Flags: W
Fore
78 229 m 0,0,1
 83 261 83 261 108.5 282.5 c 128,-1,2
 134 304 134 304 165 304 c 0,3,4
 197 304 197 304 214.5 282.5 c 128,-1,5
 232 261 232 261 227 229 c 0,6,7
 222 198 222 198 196.5 177 c 128,-1,8
 171 156 171 156 139 156 c 0,9,10
 108 156 108 156 90.5 177 c 128,-1,11
 73 198 73 198 78 229 c 0,0,1
EndSplineSet
EndChar
StartChar: cedilla
Encoding: 184 184 122
Width: 180
Flags: W
Fore
154 -95 m 0,0,1
 151 -112 151 -112 139 -124 c 128,-1,2
 127 -136 127 -136 111.5 -143.5 c 128,-1,3
 96 -151 96 -151 79 -154 c 128,-1,4
 62 -157 62 -157 49 -157 c 0,5,6
 34 -157 34 -157 16 -155.5 c 128,-1,7
 -2 -154 -2 -154 -21 -144 c 1,8,-1
 -5 -113 l 1,9,10
 2 -122 2 -122 16.5 -127 c 128,-1,11
 31 -132 31 -132 42 -132 c 0,12,13
 58 -132 58 -132 70.5 -123 c 128,-1,14
 83 -114 83 -114 85 -98 c 0,15,16
 88 -80 88 -80 67 -77 c 128,-1,17
 46 -74 46 -74 17 -82 c 1,18,-1
 71 0 l 1,19,-1
 108 0 l 1,20,-1
 75 -50 l 1,21,22
 81 -50 81 -50 85 -49 c 0,23,24
 95 -47 95 -47 99 -47 c 0,25,26
 123 -47 123 -47 140.5 -59.5 c 128,-1,27
 158 -72 158 -72 154 -95 c 0,0,1
EndSplineSet
EndChar
StartChar: onesuperior
Encoding: 185 185 123
Width: 277
Flags: W
Fore
141 183 m 1,0,-1
 180 406 l 1,1,-1
 113 406 l 1,2,-1
 116 423 l 1,3,4
 132 423 132 423 144.5 423.5 c 128,-1,5
 157 424 157 424 168 428 c 128,-1,6
 179 432 179 432 188.5 441 c 128,-1,7
 198 450 198 450 208 466 c 1,8,-1
 248 466 l 1,9,-1
 198 183 l 1,10,-1
 141 183 l 1,0,-1
EndSplineSet
EndChar
StartChar: ordmasculine
Encoding: 186 186 124
Width: 302
Flags: W
Fore
356 341 m 256,0,1
 351 313 351 313 335.5 290.5 c 128,-1,2
 320 268 320 268 297.5 252.5 c 128,-1,3
 275 237 275 237 247 228.5 c 128,-1,4
 219 220 219 220 189 220 c 256,5,6
 159 220 159 220 134.5 228.5 c 128,-1,7
 110 237 110 237 93 252.5 c 128,-1,8
 76 268 76 268 68.5 290.5 c 128,-1,9
 61 313 61 313 66 341 c 256,10,11
 71 369 71 369 86.5 391 c 128,-1,12
 102 413 102 413 124.5 428.5 c 128,-1,13
 147 444 147 444 175 452.5 c 128,-1,14
 203 461 203 461 233 461 c 256,15,16
 263 461 263 461 287.5 453 c 128,-1,17
 312 445 312 445 329 429.5 c 128,-1,18
 346 414 346 414 353.5 391.5 c 128,-1,19
 361 369 361 369 356 341 c 256,0,1
289 341 m 0,20,21
 297 389 297 389 280 413.5 c 128,-1,22
 263 438 263 438 229 438 c 256,23,24
 195 438 195 438 169 413.5 c 128,-1,25
 143 389 143 389 135 341 c 0,26,27
 126 292 126 292 143.5 268 c 128,-1,28
 161 244 161 244 195 244 c 0,29,30
 230 244 230 244 255 268 c 128,-1,31
 280 292 280 292 289 341 c 0,20,21
EndSplineSet
EndChar
StartChar: guillemotright
Encoding: 187 187 125
Width: 387
Flags: W
Fore
248 36 m 1,0,-1
 206 73 l 1,1,-1
 323 190 l 1,2,-1
 246 307 l 1,3,-1
 300 343 l 1,4,-1
 386 190 l 1,5,-1
 248 36 l 1,0,-1
104 36 m 1,6,-1
 62 73 l 1,7,-1
 179 190 l 1,8,-1
 102 307 l 1,9,-1
 156 343 l 1,10,-1
 242 190 l 1,11,-1
 104 36 l 1,6,-1
EndSplineSet
EndChar
StartChar: onequarter
Encoding: 188 188 126
Width: 704
Flags: W
Fore
586 65 m 1,0,-1
 536 65 l 1,1,-1
 525 0 l 1,2,-1
 460 0 l 1,3,-1
 471 65 l 1,4,-1
 331 65 l 1,5,-1
 322 79 l 1,6,-1
 543 276 l 1,7,-1
 573 276 l 1,8,-1
 541 94 l 1,9,-1
 607 94 l 1,10,-1
 586 65 l 1,0,-1
165 -11 m 1,11,-1
 99 -11 l 1,12,-1
 518 460 l 1,13,-1
 584 460 l 1,14,-1
 165 -11 l 1,11,-1
150 186 m 1,15,-1
 189 406 l 1,16,-1
 131 406 l 1,17,-1
 134 423 l 1,18,19
 151 423 151 423 162.5 423.5 c 128,-1,20
 174 424 174 424 183 428 c 128,-1,21
 192 432 192 432 199.5 441 c 128,-1,22
 207 450 207 450 217 466 c 1,23,-1
 253 466 l 1,24,-1
 203 186 l 1,25,-1
 150 186 l 1,15,-1
492 183 m 1,26,27
 468 161 468 161 443 138.5 c 128,-1,28
 418 116 418 116 394 94 c 1,29,-1
 476 94 l 1,30,-1
 492 183 l 1,26,27
EndSplineSet
Ligature: 0 0 'frac' one fraction four
Ligature: 0 0 'frac' one slash four
EndChar
StartChar: onehalf
Encoding: 189 189 127
Width: 704
Flags: W
Fore
366 -1 m 1,0,1
 374 22 374 22 388 38.5 c 128,-1,2
 402 55 402 55 419.5 67.5 c 128,-1,3
 437 80 437 80 457.5 90 c 128,-1,4
 478 100 478 100 499 109 c 0,5,6
 508 113 508 113 515.5 116.5 c 128,-1,7
 523 120 523 120 533 125 c 0,8,9
 552 134 552 134 568.5 148 c 128,-1,10
 585 162 585 162 589 187 c 0,11,12
 594 210 594 210 581.5 231 c 128,-1,13
 569 252 569 252 537 252 c 0,14,15
 509 252 509 252 487 232 c 128,-1,16
 465 212 465 212 459 178 c 1,17,-1
 392 178 l 1,18,19
 409 228 409 228 450.5 251 c 128,-1,20
 492 274 492 274 541 274 c 0,21,22
 566 274 566 274 588.5 268.5 c 128,-1,23
 611 263 611 263 627 252 c 128,-1,24
 643 241 643 241 650.5 224.5 c 128,-1,25
 658 208 658 208 654 186 c 0,26,27
 650 165 650 165 636.5 149 c 128,-1,28
 623 133 623 133 604 120.5 c 128,-1,29
 585 108 585 108 562.5 98.5 c 128,-1,30
 540 89 540 89 518 80 c 0,31,32
 493 71 493 71 472.5 61 c 128,-1,33
 452 51 452 51 441 36 c 1,34,-1
 634 36 l 1,35,-1
 627 -1 l 1,36,-1
 366 -1 l 1,0,1
165 -11 m 1,37,-1
 99 -11 l 1,38,-1
 518 460 l 1,39,-1
 584 460 l 1,40,-1
 165 -11 l 1,37,-1
136 189 m 1,41,-1
 173 401 l 1,42,-1
 106 401 l 1,43,-1
 110 424 l 1,44,45
 132 424 132 424 146 425.5 c 128,-1,46
 160 427 160 427 170 431.5 c 128,-1,47
 180 436 180 436 188 444 c 128,-1,48
 196 452 196 452 205 466 c 1,49,-1
 250 466 l 1,50,-1
 201 189 l 1,51,-1
 136 189 l 1,41,-1
EndSplineSet
Ligature: 0 0 'frac' one fraction two
Ligature: 0 0 'frac' one slash two
EndChar
StartChar: threequarters
Encoding: 190 190 128
Width: 704
Flags: W
Fore
645 65 m 1,0,-1
 595 65 l 1,1,-1
 584 0 l 1,2,-1
 519 0 l 1,3,-1
 530 65 l 1,4,-1
 390 65 l 1,5,-1
 380 79 l 1,6,-1
 602 276 l 1,7,-1
 632 276 l 1,8,-1
 600 94 l 1,9,-1
 665 94 l 1,10,-1
 645 65 l 1,0,-1
355 267 m 0,11,12
 351 244 351 244 335.5 228 c 128,-1,13
 320 212 320 212 298.5 201.5 c 128,-1,14
 277 191 277 191 251 186 c 128,-1,15
 225 181 225 181 200 181 c 0,16,17
 151 181 151 181 117.5 204 c 128,-1,18
 84 227 84 227 84 277 c 1,19,-1
 150 277 l 1,20,21
 145 243 145 243 160.5 223.5 c 128,-1,22
 176 204 176 204 204 204 c 0,23,24
 234 204 234 204 260 223 c 128,-1,25
 286 242 286 242 291 268 c 0,26,27
 296 293 296 293 276 305 c 128,-1,28
 256 317 256 317 224 317 c 0,29,30
 214 317 214 317 203.5 316 c 128,-1,31
 193 315 193 315 179 313 c 1,32,-1
 184 345 l 1,33,34
 233 337 233 337 262.5 351.5 c 128,-1,35
 292 366 292 366 296 389 c 0,36,37
 299 407 299 407 288 422.5 c 128,-1,38
 277 438 277 438 248 438 c 0,39,40
 224 438 224 438 207.5 421 c 128,-1,41
 191 404 191 404 183 373 c 1,42,-1
 118 373 l 1,43,44
 124 395 124 395 137 411.5 c 128,-1,45
 150 428 150 428 168 439 c 128,-1,46
 186 450 186 450 207.5 455.5 c 128,-1,47
 229 461 229 461 252 461 c 0,48,49
 276 461 276 461 297 457 c 128,-1,50
 318 453 318 453 333.5 444 c 128,-1,51
 349 435 349 435 356.5 421.5 c 128,-1,52
 364 408 364 408 361 389 c 0,53,54
 357 369 357 369 341.5 355 c 128,-1,55
 326 341 326 341 306 333 c 1,56,-1
 305 333 l 1,57,58
 328 325 328 325 344 309 c 128,-1,59
 360 293 360 293 355 267 c 0,11,12
235 -11 m 1,60,-1
 169 -11 l 1,61,-1
 588 460 l 1,62,-1
 654 460 l 1,63,-1
 235 -11 l 1,60,-1
551 183 m 1,64,65
 527 161 527 161 502 138.5 c 128,-1,66
 477 116 477 116 453 94 c 1,67,-1
 535 94 l 1,68,-1
 551 183 l 1,64,65
EndSplineSet
Ligature: 0 0 'frac' three fraction four
Ligature: 0 0 'frac' three slash four
EndChar
StartChar: questiondown
Encoding: 191 191 129
Width: 357
Flags: W
Fore
292 357 m 0,0,1
 290 343 290 343 279 333.5 c 128,-1,2
 268 324 268 324 254 324 c 256,3,4
 240 324 240 324 231.5 333.5 c 128,-1,5
 223 343 223 343 225 357 c 0,6,7
 228 371 228 371 239.5 381 c 128,-1,8
 251 391 251 391 265 391 c 256,9,10
 279 391 279 391 287 381 c 128,-1,11
 295 371 295 371 292 357 c 0,0,1
345 50 m 1,12,13
 333 -19 333 -19 284.5 -59 c 128,-1,14
 236 -99 236 -99 167 -99 c 0,15,16
 137 -99 137 -99 111 -91 c 128,-1,17
 85 -83 85 -83 66.5 -66.5 c 128,-1,18
 48 -50 48 -50 39 -25.5 c 128,-1,19
 30 -1 30 -1 36 32 c 0,20,21
 41 59 41 59 56.5 78.5 c 128,-1,22
 72 98 72 98 93 114.5 c 128,-1,23
 114 131 114 131 138 147 c 128,-1,24
 162 163 162 163 183.5 183.5 c 128,-1,25
 205 204 205 204 221 231.5 c 128,-1,26
 237 259 237 259 243 298 c 1,27,-1
 256 298 l 1,28,29
 255 287 255 287 254 277 c 128,-1,30
 253 267 253 267 251 256 c 0,31,32
 242 206 242 206 219.5 176 c 128,-1,33
 197 146 197 146 172.5 123.5 c 128,-1,34
 148 101 148 101 127.5 81 c 128,-1,35
 107 61 107 61 102 30 c 0,36,37
 98 7 98 7 99 -13 c 128,-1,38
 100 -33 100 -33 107.5 -47.5 c 128,-1,39
 115 -62 115 -62 131 -70.5 c 128,-1,40
 147 -79 147 -79 173 -79 c 0,41,42
 201 -79 201 -79 222 -68 c 128,-1,43
 243 -57 243 -57 257 -38.5 c 128,-1,44
 271 -20 271 -20 279.5 3 c 128,-1,45
 288 26 288 26 292 50 c 1,46,-1
 345 50 l 1,12,13
EndSplineSet
EndChar
StartChar: Aring
Encoding: 197 197 134
Width: 572
Flags: W
Fore
477 0 m 1,0,-1
 390 226 l 1,1,-1
 222 226 l 1,2,-1
 55 0 l 1,3,-1
 0 0 l 1,4,-1
 316 418 l 1,5,6
 287 431 287 431 272 459 c 128,-1,7
 257 487 257 487 264 523 c 0,8,9
 268 547 268 547 281 568 c 128,-1,10
 294 589 294 589 312 605 c 128,-1,11
 330 621 330 621 352.5 630 c 128,-1,12
 375 639 375 639 399 639 c 256,13,14
 423 639 423 639 443 630 c 128,-1,15
 463 621 463 621 475.5 605 c 128,-1,16
 488 589 488 589 493.5 568 c 128,-1,17
 499 547 499 547 495 523 c 0,18,19
 489 490 489 490 467 463 c 128,-1,20
 445 436 445 436 415 421 c 1,21,-1
 572 0 l 1,22,-1
 477 0 l 1,0,-1
450 523 m 0,23,24
 455 553 455 553 438 574 c 128,-1,25
 421 595 421 595 391 595 c 0,26,27
 362 595 362 595 338 574 c 128,-1,28
 314 553 314 553 309 523 c 0,29,30
 304 494 304 494 320.5 473.5 c 128,-1,31
 337 453 337 453 366 453 c 0,32,33
 396 453 396 453 420.5 473.5 c 128,-1,34
 445 494 445 494 450 523 c 0,23,24
335 379 m 1,35,-1
 260 276 l 1,36,-1
 372 276 l 1,37,-1
 335 379 l 1,35,-1
EndSplineSet
EndChar
StartChar: AE
Encoding: 198 198 135
Width: 756
Flags: W
Fore
374 0 m 1,0,-1
 414 230 l 1,1,-1
 267 230 l 1,2,-1
 60 0 l 1,3,-1
 0 0 l 1,4,-1
 420 467 l 1,5,-1
 828 467 l 1,6,-1
 820 425 l 1,7,-1
 532 425 l 1,8,-1
 505 270 l 1,9,-1
 722 270 l 1,10,-1
 715 230 l 1,11,-1
 498 230 l 1,12,-1
 465 40 l 1,13,-1
 753 40 l 1,14,-1
 746 0 l 1,15,-1
 374 0 l 1,0,-1
447 416 m 1,16,-1
 434 416 l 1,17,-1
 303 270 l 1,18,-1
 421 270 l 1,19,-1
 447 416 l 1,16,-1
EndSplineSet
EndChar
StartChar: Eth
Encoding: 208 208 145
Width: 575
Flags: W
Fore
602 247 m 0,0,1
 593 195 593 195 569 150 c 128,-1,2
 545 105 545 105 501.5 71.5 c 128,-1,3
 458 38 458 38 392 19 c 128,-1,4
 326 0 326 0 232 0 c 2,5,-1
 48 0 l 1,6,-1
 88 230 l 1,7,-1
 36 230 l 1,8,-1
 43 270 l 1,9,-1
 95 270 l 1,10,-1
 130 466 l 1,11,-1
 310 466 l 2,12,13
 400 466 400 466 459.5 449.5 c 128,-1,14
 519 433 519 433 553.5 403.5 c 128,-1,15
 588 374 588 374 599 334 c 128,-1,16
 610 294 610 294 602 247 c 0,0,1
507 247 m 0,17,18
 513 283 513 283 508.5 315.5 c 128,-1,19
 504 348 504 348 483 372.5 c 128,-1,20
 462 397 462 397 422 411.5 c 128,-1,21
 382 426 382 426 317 426 c 2,22,-1
 206 426 l 1,23,-1
 178 270 l 1,24,-1
 318 270 l 1,25,-1
 311 230 l 1,26,-1
 171 230 l 1,27,-1
 138 40 l 1,28,-1
 249 40 l 2,29,30
 313 40 313 40 358.5 54.5 c 128,-1,31
 404 69 404 69 434 96 c 128,-1,32
 464 123 464 123 481.5 161.5 c 128,-1,33
 499 200 499 200 507 247 c 0,17,18
EndSplineSet
EndChar
StartChar: multiply
Encoding: 215 215 152
Width: 459
Flags: W
Fore
309 190 m 1,0,-1
 441 39 l 1,1,-1
 388 -4 l 1,2,-1
 254 146 l 1,3,-1
 69 -4 l 1,4,-1
 30 39 l 1,5,-1
 216 190 l 1,6,-1
 83 340 l 1,7,-1
 137 383 l 1,8,-1
 270 233 l 1,9,-1
 456 383 l 1,10,-1
 494 340 l 1,11,-1
 309 190 l 1,0,-1
EndSplineSet
EndChar
StartChar: Oslash
Encoding: 216 216 153
Width: 632
Flags: W
Fore
587 406 m 1,0,1
 618 373 618 373 631 328.5 c 128,-1,2
 644 284 644 284 636 233 c 0,3,4
 627 181 627 181 596.5 135.5 c 128,-1,5
 566 90 566 90 521 56 c 128,-1,6
 476 22 476 22 420.5 2.5 c 128,-1,7
 365 -17 365 -17 305 -17 c 0,8,9
 260 -17 260 -17 221.5 -6 c 128,-1,10
 183 5 183 5 152 25 c 1,11,-1
 67 -49 l 1,12,-1
 1 -49 l 1,13,-1
 117 54 l 1,14,15
 83 88 83 88 68 133 c 128,-1,16
 53 178 53 178 62 232 c 0,17,18
 71 284 71 284 102 329.5 c 128,-1,19
 133 375 133 375 178 409 c 128,-1,20
 223 443 223 443 278.5 462.5 c 128,-1,21
 334 482 334 482 393 482 c 0,22,23
 441 482 441 482 481 470 c 128,-1,24
 521 458 521 458 553 435 c 1,25,-1
 646 516 l 1,26,-1
 712 516 l 1,27,-1
 587 406 l 1,0,1
508 396 m 1,28,29
 488 419 488 419 457.5 432.5 c 128,-1,30
 427 446 427 446 387 446 c 0,31,32
 343 446 343 446 305 429 c 128,-1,33
 267 412 267 412 236.5 383 c 128,-1,34
 206 354 206 354 185.5 315 c 128,-1,35
 165 276 165 276 157 232 c 0,36,37
 145 155 145 155 171 101 c 1,38,-1
 508 396 l 1,28,29
541 233 m 0,39,40
 553 304 553 304 530 357 c 1,41,-1
 196 64 l 1,42,43
 216 43 216 43 245 31 c 128,-1,44
 274 19 274 19 311 19 c 0,45,46
 354 19 354 19 392.5 35.5 c 128,-1,47
 431 52 431 52 461.5 81 c 128,-1,48
 492 110 492 110 512.5 149 c 128,-1,49
 533 188 533 188 541 233 c 0,39,40
EndSplineSet
EndChar
StartChar: Thorn
Encoding: 222 222 159
Width: 545
Flags: W
Fore
558 260 m 0,0,1
 553 229 553 229 536 206.5 c 128,-1,2
 519 184 519 184 495 168 c 128,-1,3
 471 152 471 152 441.5 142.5 c 128,-1,4
 412 133 412 133 382 128 c 0,5,6
 330 119 330 119 279 118 c 128,-1,7
 228 117 228 117 177 118 c 1,8,-1
 157 0 l 1,9,-1
 71 0 l 1,10,-1
 156 486 l 1,11,-1
 241 486 l 1,12,-1
 225 395 l 1,13,14
 251 395 251 395 288 395.5 c 128,-1,15
 325 396 325 396 364 393 c 128,-1,16
 403 390 403 390 440.5 382.5 c 128,-1,17
 478 375 478 375 506.5 360 c 128,-1,18
 535 345 535 345 549.5 320.5 c 128,-1,19
 564 296 564 296 558 260 c 0,0,1
455 261 m 0,20,21
 460 292 460 292 442 311 c 128,-1,22
 424 330 424 330 395 339.5 c 128,-1,23
 366 349 366 349 333.5 352 c 128,-1,24
 301 355 301 355 277 355 c 2,25,-1
 219 355 l 1,26,-1
 185 159 l 1,27,-1
 240 159 l 2,28,29
 268 159 268 159 302.5 161.5 c 128,-1,30
 337 164 337 164 369 174.5 c 128,-1,31
 401 185 401 185 425 205 c 128,-1,32
 449 225 449 225 455 261 c 0,20,21
EndSplineSet
EndChar
StartChar: uni00DF
Encoding: 223 223 160
Width: 479
Flags: W
Fore
480 142 m 0,0,1
 474 108 474 108 454.5 80 c 128,-1,2
 435 52 435 52 407 31.5 c 128,-1,3
 379 11 379 11 345.5 -0.5 c 128,-1,4
 312 -12 312 -12 279 -12 c 0,5,6
 256 -12 256 -12 228 -8 c 128,-1,7
 200 -4 200 -4 174 13 c 1,8,-1
 213 73 l 1,9,10
 225 54 225 54 242.5 43 c 128,-1,11
 260 32 260 32 280 32 c 0,12,13
 301 32 301 32 317.5 42.5 c 128,-1,14
 334 53 334 53 347 69 c 128,-1,15
 360 85 360 85 368.5 104.5 c 128,-1,16
 377 124 377 124 380 143 c 0,17,18
 391 205 391 205 361 235 c 128,-1,19
 331 265 331 265 252 253 c 1,20,-1
 262 309 l 1,21,22
 279 305 279 305 284.5 304 c 128,-1,23
 290 303 290 303 294 303 c 0,24,25
 338 303 338 303 356.5 324.5 c 128,-1,26
 375 346 375 346 383 390 c 256,27,28
 391 434 391 434 375.5 462 c 128,-1,29
 360 490 360 490 314 490 c 0,30,31
 284 490 284 490 263 478 c 128,-1,32
 242 466 242 466 227.5 445.5 c 128,-1,33
 213 425 213 425 204 399 c 128,-1,34
 195 373 195 373 190 345 c 2,35,-1
 129 -1 l 1,36,-1
 47 -1 l 1,37,-1
 108 342 l 2,38,39
 115 381 115 381 132 415.5 c 128,-1,40
 149 450 149 450 176 475 c 128,-1,41
 203 500 203 500 239.5 514.5 c 128,-1,42
 276 529 276 529 321 529 c 0,43,44
 352 529 352 529 383 522 c 128,-1,45
 414 515 414 515 437.5 499.5 c 128,-1,46
 461 484 461 484 473.5 458 c 128,-1,47
 486 432 486 432 479 394 c 0,48,49
 472 355 472 355 441.5 325 c 128,-1,50
 411 295 411 295 374 287 c 1,51,52
 398 281 398 281 419 267 c 128,-1,53
 440 253 440 253 455 233.5 c 128,-1,54
 470 214 470 214 477 190.5 c 128,-1,55
 484 167 484 167 480 142 c 0,0,1
EndSplineSet
EndChar
StartChar: ae
Encoding: 230 230 167
Width: 755
Flags: W
Fore
756 151 m 1,0,1
 726 77 726 77 666 32.5 c 128,-1,2
 606 -12 606 -12 526 -12 c 0,3,4
 475 -12 475 -12 429.5 11.5 c 128,-1,5
 384 35 384 35 362 83 c 1,6,7
 341 57 341 57 320.5 39 c 128,-1,8
 300 21 300 21 277.5 10 c 128,-1,9
 255 -1 255 -1 228.5 -6 c 128,-1,10
 202 -11 202 -11 170 -11 c 0,11,12
 140 -11 140 -11 114 -4 c 128,-1,13
 88 3 88 3 69.5 17.5 c 128,-1,14
 51 32 51 32 42 55.5 c 128,-1,15
 33 79 33 79 39 112 c 0,16,17
 48 162 48 162 85 189 c 128,-1,18
 122 216 122 216 170.5 228.5 c 128,-1,19
 219 241 219 241 270.5 243 c 128,-1,20
 322 245 322 245 359 245 c 1,21,-1
 359 247 l 1,22,23
 368 296 368 296 348.5 323.5 c 128,-1,24
 329 351 329 351 277 351 c 0,25,26
 248 351 248 351 219 331 c 128,-1,27
 190 311 190 311 177 278 c 1,28,-1
 93 278 l 1,29,30
 126 342 126 342 176 367 c 128,-1,31
 226 392 226 392 285 392 c 0,32,33
 305 392 305 392 325 389.5 c 128,-1,34
 345 387 345 387 363.5 379 c 128,-1,35
 382 371 382 371 397.5 355 c 128,-1,36
 413 339 413 339 425 312 c 1,37,38
 464 354 464 354 505 373 c 128,-1,39
 546 392 546 392 589 392 c 0,40,41
 759 392 759 392 768 232 c 1,42,-1
 444 232 l 1,43,44
 440 223 440 223 437 209 c 128,-1,45
 434 195 434 195 432 186 c 0,46,47
 427 155 427 155 430.5 126 c 128,-1,48
 434 97 434 97 447.5 75 c 128,-1,49
 461 53 461 53 484.5 40 c 128,-1,50
 508 27 508 27 542 27 c 0,51,52
 565 27 565 27 586 37.5 c 128,-1,53
 607 48 607 48 624.5 65 c 128,-1,54
 642 82 642 82 654.5 104.5 c 128,-1,55
 667 127 667 127 673 151 c 1,56,-1
 756 151 l 1,0,1
675 272 m 1,57,58
 667 305 667 305 644.5 328.5 c 128,-1,59
 622 352 622 352 582 352 c 0,60,61
 540 352 540 352 508 328.5 c 128,-1,62
 476 305 476 305 465 272 c 1,63,-1
 675 272 l 1,57,58
352 207 m 1,64,-1
 295 207 l 2,65,66
 267 207 267 207 239 202 c 128,-1,67
 211 197 211 197 187.5 185.5 c 128,-1,68
 164 174 164 174 147.5 155.5 c 128,-1,69
 131 137 131 137 127 111 c 0,70,71
 121 76 121 76 139.5 52 c 128,-1,72
 158 28 158 28 196 28 c 0,73,74
 228 28 228 28 253.5 40 c 128,-1,75
 279 52 279 52 298 72 c 128,-1,76
 317 92 317 92 329 118.5 c 128,-1,77
 341 145 341 145 346 174 c 2,78,-1
 352 207 l 1,64,-1
EndSplineSet
EndChar
StartChar: eth
Encoding: 240 240 177
Width: 414
Flags: W
Fore
205 -8 m 256,0,1
 166 -8 166 -8 134 4 c 128,-1,2
 102 16 102 16 80 37.5 c 128,-1,3
 58 59 58 59 48.5 90.5 c 128,-1,4
 39 122 39 122 46 161 c 256,5,6
 53 200 53 200 73.5 231.5 c 128,-1,7
 94 263 94 263 123.5 285 c 128,-1,8
 153 307 153 307 190 319 c 128,-1,9
 227 331 227 331 266 331 c 0,10,11
 278 331 278 331 292.5 329 c 128,-1,12
 307 327 307 327 324 318 c 1,13,14
 313 341 313 341 300 358 c 128,-1,15
 287 375 287 375 264 398 c 1,16,-1
 134 341 l 1,17,-1
 124 375 l 1,18,-1
 232 422 l 1,19,20
 219 431 219 431 199.5 442.5 c 128,-1,21
 180 454 180 454 145 467 c 1,22,-1
 163 499 l 1,23,24
 200 485 200 485 229 472 c 128,-1,25
 258 459 258 459 282 442 c 1,26,-1
 375 480 l 1,27,-1
 384 447 l 1,28,-1
 320 420 l 1,29,30
 339 403 339 403 361 377.5 c 128,-1,31
 383 352 383 352 400.5 321.5 c 128,-1,32
 418 291 418 291 427.5 258 c 128,-1,33
 437 225 437 225 431 193 c 0,34,35
 422 143 422 143 400.5 105.5 c 128,-1,36
 379 68 379 68 348.5 43 c 128,-1,37
 318 18 318 18 281 5 c 128,-1,38
 244 -8 244 -8 205 -8 c 256,0,1
260 297 m 0,39,40
 199 297 199 297 164.5 258 c 128,-1,41
 130 219 130 219 120 162 c 0,42,43
 115 133 115 133 117.5 108.5 c 128,-1,44
 120 84 120 84 131 65.5 c 128,-1,45
 142 47 142 47 162.5 36.5 c 128,-1,46
 183 26 183 26 213 26 c 256,47,48
 243 26 243 26 266.5 36.5 c 128,-1,49
 290 47 290 47 307.5 65.5 c 128,-1,50
 325 84 325 84 335.5 108.5 c 128,-1,51
 346 133 346 133 351 161 c 256,52,53
 356 189 356 189 353.5 214 c 128,-1,54
 351 239 351 239 340.5 257.5 c 128,-1,55
 330 276 330 276 310 286.5 c 128,-1,56
 290 297 290 297 260 297 c 0,39,40
EndSplineSet
EndChar
StartChar: divide
Encoding: 247 247 184
Width: 458
Flags: W
Fore
343 338 m 0,0,1
 339 315 339 315 319.5 298.5 c 128,-1,2
 300 282 300 282 277 282 c 256,3,4
 254 282 254 282 241 298.5 c 128,-1,5
 228 315 228 315 232 338 c 0,6,7
 237 361 237 361 256.5 377 c 128,-1,8
 276 393 276 393 297 393 c 0,9,10
 320 393 320 393 334 377 c 128,-1,11
 348 361 348 361 343 338 c 0,0,1
59 171 m 1,12,-1
 68 223 l 1,13,-1
 468 223 l 1,14,-1
 459 171 l 1,15,-1
 59 171 l 1,12,-1
291 41 m 0,16,17
 286 18 286 18 267 2 c 128,-1,18
 248 -14 248 -14 225 -14 c 256,19,20
 202 -14 202 -14 189 2.5 c 128,-1,21
 176 19 176 19 180 41 c 0,22,23
 184 64 184 64 203 80.5 c 128,-1,24
 222 97 222 97 245 97 c 256,25,26
 268 97 268 97 281.5 80.5 c 128,-1,27
 295 64 295 64 291 41 c 0,16,17
EndSplineSet
EndChar
StartChar: oslash
Encoding: 248 248 185
Width: 478
Flags: W
Fore
457 297 m 1,0,1
 476 274 476 274 483.5 242.5 c 128,-1,2
 491 211 491 211 484 173 c 0,3,4
 476 130 476 130 454 96 c 128,-1,5
 432 62 432 62 399.5 38.5 c 128,-1,6
 367 15 367 15 326.5 2.5 c 128,-1,7
 286 -10 286 -10 243 -10 c 0,8,9
 168 -10 168 -10 121 25 c 1,10,-1
 52 -31 l 1,11,-1
 -5 -31 l 1,12,-1
 93 49 l 1,13,14
 75 73 75 73 66.5 104 c 128,-1,15
 58 135 58 135 65 173 c 0,16,17
 72 216 72 216 94.5 250 c 128,-1,18
 117 284 117 284 150 308 c 128,-1,19
 183 332 183 332 223 344.5 c 128,-1,20
 263 357 263 357 307 357 c 0,21,22
 381 357 381 357 429 323 c 1,23,-1
 496 377 l 1,24,-1
 555 377 l 1,25,-1
 457 297 l 1,0,1
386 287 m 1,26,27
 357 322 357 322 301 322 c 0,28,29
 243 322 243 322 200.5 285 c 128,-1,30
 158 248 158 248 145 174 c 0,31,32
 137 126 137 126 148 94 c 1,33,-1
 386 287 l 1,26,27
405 173 m 0,34,35
 414 220 414 220 403 253 c 1,36,-1
 165 61 l 1,37,38
 194 26 194 26 250 26 c 0,39,40
 307 26 307 26 349.5 63 c 128,-1,41
 392 100 392 100 405 173 c 0,34,35
EndSplineSet
EndChar
StartChar: thorn
Encoding: 254 254 191
Width: 513
Flags: W
Fore
526 192 m 0,0,1
 518 144 518 144 494.5 104.5 c 128,-1,2
 471 65 471 65 436.5 37 c 128,-1,3
 402 9 402 9 359.5 -6 c 128,-1,4
 317 -21 317 -21 271 -21 c 0,5,6
 221 -21 221 -21 186 -1 c 128,-1,7
 151 19 151 19 131 50 c 1,8,-1
 97 -147 l 1,9,-1
 19 -147 l 1,10,-1
 155 627 l 1,11,-1
 228 627 l 1,12,-1
 176 331 l 1,13,14
 205 366 205 366 250 386 c 128,-1,15
 295 406 295 406 346 406 c 0,16,17
 392 406 392 406 429 389 c 128,-1,18
 466 372 466 372 490 343 c 128,-1,19
 514 314 514 314 524 275 c 128,-1,20
 534 236 534 236 526 192 c 0,0,1
438 194 m 0,21,22
 445 232 445 232 438.5 263.5 c 128,-1,23
 432 295 432 295 416.5 317.5 c 128,-1,24
 401 340 401 340 377.5 352.5 c 128,-1,25
 354 365 354 365 326 365 c 0,26,27
 299 365 299 365 271 351.5 c 128,-1,28
 243 338 243 338 220 315 c 128,-1,29
 197 292 197 292 180 261 c 128,-1,30
 163 230 163 230 157 194 c 256,31,32
 151 158 151 158 156.5 126.5 c 128,-1,33
 162 95 162 95 177 71 c 128,-1,34
 192 47 192 47 215 33 c 128,-1,35
 238 19 238 19 265 19 c 256,36,37
 292 19 292 19 320 31.5 c 128,-1,38
 348 44 348 44 372 67.5 c 128,-1,39
 396 91 396 91 413.5 123 c 128,-1,40
 431 155 431 155 438 194 c 0,21,22
EndSplineSet
EndChar
StartChar: Lslash
Encoding: 321 321 193
Width: 462
Flags: W
Fore
48 0 m 1,0,-1
 130 466 l 1,1,-1
 212 466 l 1,2,-1
 137 40 l 1,3,-1
 428 40 l 1,4,-1
 421 0 l 1,5,-1
 48 0 l 1,0,-1
47 201 m 1,6,-1
 52 231 l 1,7,-1
 329 328 l 1,8,-1
 324 298 l 1,9,-1
 47 201 l 1,6,-1
EndSplineSet
EndChar
StartChar: lslash
Encoding: 322 322 194
Width: 212
Flags: W
Fore
72 246 m 1,0,-1
 77 276 l 1,1,-1
 250 337 l 1,2,-1
 245 307 l 1,3,-1
 72 246 l 1,0,-1
72 0 m 1,4,-1
 154 466 l 1,5,-1
 236 466 l 1,6,-1
 154 0 l 1,7,-1
 72 0 l 1,4,-1
EndSplineSet
EndChar
StartChar: OE
Encoding: 338 338 195
Width: 877
Flags: W
Fore
468 0 m 1,0,-1
 477 54 l 1,1,2
 435 22 435 22 388.5 2.5 c 128,-1,3
 342 -17 342 -17 288 -17 c 0,4,5
 229 -17 229 -17 182.5 2.5 c 128,-1,6
 136 22 136 22 105.5 55.5 c 128,-1,7
 75 89 75 89 62.5 134.5 c 128,-1,8
 50 180 50 180 59 232 c 256,9,10
 68 284 68 284 96.5 329.5 c 128,-1,11
 125 375 125 375 167.5 409 c 128,-1,12
 210 443 210 443 263.5 462.5 c 128,-1,13
 317 482 317 482 376 482 c 0,14,15
 481 482 481 482 540 414 c 1,16,-1
 550 467 l 1,17,-1
 950 467 l 1,18,-1
 943 426 l 1,19,-1
 625 426 l 1,20,-1
 597 270 l 1,21,-1
 844 270 l 1,22,-1
 837 229 l 1,23,-1
 590 229 l 1,24,-1
 558 40 l 1,25,-1
 875 40 l 1,26,-1
 868 0 l 1,27,-1
 468 0 l 1,0,-1
513 257 m 2,28,29
 520 297 520 297 514 332 c 128,-1,30
 508 367 508 367 489.5 392 c 128,-1,31
 471 417 471 417 440.5 431.5 c 128,-1,32
 410 446 410 446 370 446 c 0,33,34
 326 446 326 446 290 429 c 128,-1,35
 254 412 254 412 226.5 383 c 128,-1,36
 199 354 199 354 180.5 315 c 128,-1,37
 162 276 162 276 154 232 c 0,38,39
 146 187 146 187 150.5 148.5 c 128,-1,40
 155 110 155 110 172.5 81 c 128,-1,41
 190 52 190 52 220 35.5 c 128,-1,42
 250 19 250 19 294 19 c 0,43,44
 334 19 334 19 369.5 33.5 c 128,-1,45
 405 48 405 48 432.5 73.5 c 128,-1,46
 460 99 460 99 478.5 134 c 128,-1,47
 497 169 497 169 504 209 c 2,48,-1
 513 257 l 2,28,29
EndSplineSet
EndChar
StartChar: oe
Encoding: 339 339 196
Width: 711
Flags: W
Fore
435 202 m 1,0,1
 433 194 433 194 432 186.5 c 128,-1,2
 431 179 431 179 430 171 c 0,3,4
 425 145 425 145 428 119.5 c 128,-1,5
 431 94 431 94 442 74 c 128,-1,6
 453 54 453 54 472.5 41.5 c 128,-1,7
 492 29 492 29 521 29 c 0,8,9
 540 29 540 29 558 38 c 128,-1,10
 576 47 576 47 592 62 c 128,-1,11
 608 77 608 77 620 97 c 128,-1,12
 632 117 632 117 639 140 c 1,13,-1
 709 140 l 1,14,15
 701 103 701 103 681 74.5 c 128,-1,16
 661 46 661 46 634 27 c 128,-1,17
 607 8 607 8 575.5 -1.5 c 128,-1,18
 544 -11 544 -11 514 -11 c 0,19,20
 467 -11 467 -11 429 11.5 c 128,-1,21
 391 34 391 34 374 75 c 1,22,23
 342 32 342 32 297 11 c 128,-1,24
 252 -10 252 -10 207 -10 c 0,25,26
 163 -10 163 -10 130.5 4 c 128,-1,27
 98 18 98 18 77.5 43 c 128,-1,28
 57 68 57 68 49 101 c 128,-1,29
 41 134 41 134 48 173 c 256,30,31
 55 212 55 212 74 245.5 c 128,-1,32
 93 279 93 279 122.5 304 c 128,-1,33
 152 329 152 329 189.5 343 c 128,-1,34
 227 357 227 357 271 357 c 256,35,36
 315 357 315 357 352 340.5 c 128,-1,37
 389 324 389 324 409 281 c 1,38,39
 441 319 441 319 483.5 339 c 128,-1,40
 526 359 526 359 571 359 c 0,41,42
 606 359 606 359 635.5 349.5 c 128,-1,43
 665 340 665 340 685.5 320.5 c 128,-1,44
 706 301 706 301 716.5 271.5 c 128,-1,45
 727 242 727 242 724 202 c 1,46,-1
 435 202 l 1,0,1
560 321 m 0,47,48
 529 321 529 321 499 298 c 128,-1,49
 469 275 469 275 457 241 c 1,50,-1
 644 241 l 1,51,52
 641 281 641 281 617.5 301 c 128,-1,53
 594 321 594 321 560 321 c 0,47,48
265 318 m 256,54,55
 234 318 234 318 210.5 306 c 128,-1,56
 187 294 187 294 170 274.5 c 128,-1,57
 153 255 153 255 142 228.5 c 128,-1,58
 131 202 131 202 126 174 c 256,59,60
 121 146 121 146 122.5 120 c 128,-1,61
 124 94 124 94 134.5 73.5 c 128,-1,62
 145 53 145 53 164.5 41 c 128,-1,63
 184 29 184 29 215 29 c 256,64,65
 246 29 246 29 269.5 41 c 128,-1,66
 293 53 293 53 310 73 c 128,-1,67
 327 93 327 93 337.5 119 c 128,-1,68
 348 145 348 145 353 173 c 256,69,70
 358 201 358 201 356.5 227.5 c 128,-1,71
 355 254 355 254 345 274 c 128,-1,72
 335 294 335 294 315.5 306 c 128,-1,73
 296 318 296 318 265 318 c 256,54,55
EndSplineSet
EndChar
StartChar: florin
Encoding: 402 402 202
Width: 498
Flags: W
Fore
495 424 m 1,0,1
 493 443 493 443 485 457.5 c 128,-1,2
 477 472 477 472 462 472 c 0,3,4
 441 472 441 472 425.5 455 c 128,-1,5
 410 438 410 438 399 414 c 128,-1,6
 388 390 388 390 380.5 365 c 128,-1,7
 373 340 373 340 369 325 c 1,8,-1
 441 325 l 1,9,-1
 424 291 l 1,10,-1
 359 291 l 1,11,-1
 277 23 l 2,12,13
 265 -13 265 -13 243.5 -44 c 128,-1,14
 222 -75 222 -75 192.5 -97.5 c 128,-1,15
 163 -120 163 -120 128 -132.5 c 128,-1,16
 93 -145 93 -145 54 -145 c 0,17,18
 31 -145 31 -145 16.5 -127.5 c 128,-1,19
 2 -110 2 -110 -4 -84 c 1,20,-1
 72 -68 l 1,21,22
 75 -84 75 -84 86 -95 c 128,-1,23
 97 -106 97 -106 111 -106 c 0,24,25
 126 -106 126 -106 138.5 -94.5 c 128,-1,26
 151 -83 151 -83 160.5 -66.5 c 128,-1,27
 170 -50 170 -50 177 -33 c 128,-1,28
 184 -16 184 -16 188 -4 c 2,29,-1
 279 291 l 1,30,-1
 211 291 l 1,31,-1
 228 325 l 1,32,-1
 288 325 l 1,33,34
 299 359 299 359 317.5 393 c 128,-1,35
 336 427 336 427 362 454 c 128,-1,36
 388 481 388 481 422.5 498 c 128,-1,37
 457 515 457 515 501 515 c 0,38,39
 521 515 521 515 540.5 498 c 128,-1,40
 560 481 560 481 573 459 c 1,41,-1
 495 424 l 1,0,1
EndSplineSet
EndChar
StartChar: circumflex
Encoding: 710 710 203
Width: 440
Flags: W
Fore
378 443 m 1,0,-1
 311 509 l 1,1,-1
 222 443 l 1,2,-1
 182 443 l 1,3,-1
 297 564 l 1,4,-1
 346 564 l 1,5,-1
 418 443 l 1,6,-1
 378 443 l 1,0,-1
EndSplineSet
EndChar
StartChar: caron
Encoding: 711 711 204
Width: 224
Flags: W
Fore
210 419 m 1,0,-1
 157 419 l 1,1,-1
 77 540 l 1,2,-1
 121 540 l 1,3,-1
 193 474 l 1,4,-1
 291 540 l 1,5,-1
 333 540 l 1,6,-1
 210 419 l 1,0,-1
EndSplineSet
EndChar
StartChar: breve
Encoding: 728 728 205
Width: 221
Flags: W
Fore
314 533 m 1,0,1
 309 510 309 510 298 489 c 128,-1,2
 287 468 287 468 270 452 c 128,-1,3
 253 436 253 436 231 427 c 128,-1,4
 209 418 209 418 182 418 c 256,5,6
 155 418 155 418 136.5 427 c 128,-1,7
 118 436 118 436 107 452 c 128,-1,8
 96 468 96 468 92 489 c 128,-1,9
 88 510 88 510 91 533 c 1,10,-1
 125 533 l 1,11,12
 127 498 127 498 141 479 c 128,-1,13
 155 460 155 460 190 460 c 256,14,15
 225 460 225 460 245.5 479.5 c 128,-1,16
 266 499 266 499 279 533 c 1,17,-1
 314 533 l 1,18,-1
 314 533 l 1,0,1
EndSplineSet
EndChar
StartChar: dotaccent
Encoding: 729 729 206
Width: 183
Flags: W
Fore
217 454 m 0,0,1
 213 434 213 434 197 421.5 c 128,-1,2
 181 409 181 409 163 409 c 0,3,4
 147 409 147 409 136.5 419 c 128,-1,5
 126 429 126 429 125 444 c 1,6,-1
 123 444 l 1,7,8
 128 471 128 471 143.5 485.5 c 128,-1,9
 159 500 159 500 179 500 c 256,10,11
 199 500 199 500 209.5 487 c 128,-1,12
 220 474 220 474 217 454 c 0,0,1
EndSplineSet
EndChar
StartChar: ring
Encoding: 730 730 207
Width: 183
Flags: W
Fore
259 492 m 0,0,1
 253 457 253 457 225.5 434 c 128,-1,2
 198 411 198 411 164 411 c 256,3,4
 130 411 130 411 110.5 434 c 128,-1,5
 91 457 91 457 97 492 c 0,6,7
 103 526 103 526 130.5 549.5 c 128,-1,8
 158 573 158 573 193 573 c 256,9,10
 228 573 228 573 246.5 549.5 c 128,-1,11
 265 526 265 526 259 492 c 0,0,1
219 492 m 256,12,13
 222 509 222 509 212.5 521.5 c 128,-1,14
 203 534 203 534 186 534 c 256,15,16
 169 534 169 534 154 521.5 c 128,-1,17
 139 509 139 509 136 492 c 0,18,19
 133 474 133 474 143.5 462 c 128,-1,20
 154 450 154 450 171 450 c 256,21,22
 188 450 188 450 202 462.5 c 128,-1,23
 216 475 216 475 219 492 c 256,12,13
EndSplineSet
EndChar
StartChar: ogonek
Encoding: 731 731 208
Width: 183
Flags: W
Fore
163 -118 m 1,0,1
 131 -140 131 -140 99 -153 c 128,-1,2
 67 -166 67 -166 35 -166 c 0,3,4
 6 -166 6 -166 -12 -147 c 128,-1,5
 -30 -128 -30 -128 -24 -96 c 0,6,7
 -20 -70 -20 -70 1.5 -50.5 c 128,-1,8
 23 -31 23 -31 51.5 -17 c 128,-1,9
 80 -3 80 -3 111 6 c 128,-1,10
 142 15 142 15 165 20 c 1,11,-1
 175 2 l 1,12,13
 159 -4 159 -4 137.5 -12.5 c 128,-1,14
 116 -21 116 -21 96 -32 c 128,-1,15
 76 -43 76 -43 61 -57.5 c 128,-1,16
 46 -72 46 -72 43 -90 c 0,17,18
 35 -128 35 -128 69 -128 c 0,19,20
 84 -128 84 -128 109.5 -117 c 128,-1,21
 135 -106 135 -106 152 -91 c 1,22,-1
 163 -118 l 1,23,-1
 163 -118 l 1,0,1
EndSplineSet
EndChar
StartChar: tilde
Encoding: 732 732 209
Width: 235
Flags: W
Fore
327 521 m 1,0,1
 316 489 316 489 293 466.5 c 128,-1,2
 270 444 270 444 235 444 c 0,3,4
 219 444 219 444 207.5 449 c 128,-1,5
 196 454 196 454 186 460.5 c 128,-1,6
 176 467 176 467 167 472 c 128,-1,7
 158 477 158 477 148 477 c 0,8,9
 137 477 137 477 127 468 c 128,-1,10
 117 459 117 459 109 444 c 1,11,-1
 76 444 l 1,12,13
 85 472 85 472 109.5 494.5 c 128,-1,14
 134 517 134 517 168 517 c 0,15,16
 183 517 183 517 195 512 c 128,-1,17
 207 507 207 507 217.5 500.5 c 128,-1,18
 228 494 228 494 237.5 489 c 128,-1,19
 247 484 247 484 256 484 c 0,20,21
 268 484 268 484 277.5 494.5 c 128,-1,22
 287 505 287 505 296 521 c 1,23,-1
 327 521 l 1,24,-1
 327 521 l 1,0,1
EndSplineSet
EndChar
StartChar: hungarumlaut
Encoding: 733 733 210
Width: 183
Flags: W
Fore
303 529 m 0,0,1
 300 516 300 516 288 506 c 2,2,-1
 174 424 l 1,3,-1
 151 424 l 1,4,-1
 244 531 l 2,5,6
 252 540 252 540 260 545.5 c 128,-1,7
 268 551 268 551 280 551 c 0,8,9
 290 551 290 551 297.5 545 c 128,-1,10
 305 539 305 539 303 529 c 0,0,1
205 529 m 1,11,12
 202 516 202 516 190 506 c 2,13,-1
 76 424 l 1,14,-1
 53 424 l 1,15,-1
 146 531 l 2,16,17
 154 540 154 540 162 545.5 c 128,-1,18
 170 551 170 551 182 551 c 0,19,20
 192 551 192 551 199 545 c 128,-1,21
 206 539 206 539 204 529 c 1,22,-1
 205 529 l 1,11,12
EndSplineSet
EndChar
StartChar: uni0E01
Encoding: 3585 3585 212
Width: 478
Flags: W
Fore
348 0 m 1,0,-1
 397 280 l 2,1,2
 405 324 405 324 377 348 c 128,-1,3
 349 372 349 372 298 372 c 0,4,5
 272 372 272 372 249 365.5 c 128,-1,6
 226 359 226 359 207.5 346 c 128,-1,7
 189 333 189 333 176.5 315 c 128,-1,8
 164 297 164 297 160 275 c 1,9,-1
 223 275 l 1,10,-1
 218 249 l 1,11,12
 171 232 171 232 162 184 c 2,13,-1
 130 0 l 1,14,-1
 50 0 l 1,15,-1
 80 175 l 2,16,17
 82 186 82 186 89 198 c 128,-1,18
 96 210 96 210 107 220 c 128,-1,19
 118 230 118 230 132.5 237.5 c 128,-1,20
 147 245 147 245 165 248 c 1,21,-1
 70 248 l 1,22,23
 80 287 80 287 102.5 317 c 128,-1,24
 125 347 125 347 156.5 367 c 128,-1,25
 188 387 188 387 225.5 397 c 128,-1,26
 263 407 263 407 304 407 c 0,27,28
 341 407 341 407 375 399 c 128,-1,29
 409 391 409 391 433.5 374.5 c 128,-1,30
 458 358 458 358 469.5 332 c 128,-1,31
 481 306 481 306 475 270 c 2,32,-1
 428 0 l 1,33,-1
 348 0 l 1,0,-1
EndSplineSet
EndChar
StartChar: uni0E02
Encoding: 3586 3586 213
Width: 477
Flags: W
Fore
93 0 m 1,0,-1
 116 136 l 1,1,2
 136 140 136 140 163 150 c 128,-1,3
 190 160 190 160 215.5 177 c 128,-1,4
 241 194 241 194 261 217.5 c 128,-1,5
 281 241 281 241 286 272 c 0,6,7
 289 289 289 289 287 307 c 128,-1,8
 285 325 285 325 275 339.5 c 128,-1,9
 265 354 265 354 248 363.5 c 128,-1,10
 231 373 231 373 204 373 c 0,11,12
 187 373 187 373 172 367.5 c 128,-1,13
 157 362 157 362 152 357 c 1,14,15
 179 359 179 359 198 352 c 128,-1,16
 217 345 217 345 228.5 332.5 c 128,-1,17
 240 320 240 320 244.5 303 c 128,-1,18
 249 286 249 286 246 268 c 0,19,20
 243 251 243 251 233 235.5 c 128,-1,21
 223 220 223 220 208.5 208.5 c 128,-1,22
 194 197 194 197 176 190 c 128,-1,23
 158 183 158 183 139 183 c 256,24,25
 120 183 120 183 103 189.5 c 128,-1,26
 86 196 86 196 74 208.5 c 128,-1,27
 62 221 62 221 56 240 c 128,-1,28
 50 259 50 259 55 285 c 0,29,30
 59 310 59 310 74 332.5 c 128,-1,31
 89 355 89 355 111 371.5 c 128,-1,32
 133 388 133 388 160.5 397.5 c 128,-1,33
 188 407 188 407 219 407 c 256,34,35
 250 407 250 407 275 397 c 128,-1,36
 300 387 300 387 316.5 369.5 c 128,-1,37
 333 352 333 352 339.5 328.5 c 128,-1,38
 346 305 346 305 342 278 c 0,39,40
 336 244 336 244 318.5 219 c 128,-1,41
 301 194 301 194 279 176.5 c 128,-1,42
 257 159 257 159 234.5 148 c 128,-1,43
 212 137 212 137 196 132 c 1,44,-1
 180 40 l 1,45,-1
 353 40 l 1,46,-1
 416 400 l 1,47,-1
 496 400 l 1,48,-1
 426 0 l 1,49,-1
 93 0 l 1,0,-1
209 273 m 256,50,51
 213 295 213 295 199.5 311 c 128,-1,52
 186 327 186 327 164 327 c 256,53,54
 142 327 142 327 123.5 311 c 128,-1,55
 105 295 105 295 101 273 c 256,56,57
 97 251 97 251 110 235 c 128,-1,58
 123 219 123 219 145 219 c 256,59,60
 167 219 167 219 186 235 c 128,-1,61
 205 251 205 251 209 273 c 256,50,51
EndSplineSet
EndChar
StartChar: uni0E03
Encoding: 3587 3587 214
Width: 496
Flags: W
Fore
113 0 m 1,0,-1
 138 147 l 1,1,2
 156 153 156 153 183.5 164.5 c 128,-1,3
 211 176 211 176 238 193 c 128,-1,4
 265 210 265 210 286 234.5 c 128,-1,5
 307 259 307 259 313 291 c 0,6,7
 319 328 319 328 309 350 c 128,-1,8
 299 372 299 372 279 372 c 0,9,10
 268 372 268 372 256 364.5 c 128,-1,11
 244 357 244 357 234 344 c 1,12,13
 229 355 229 355 217 364 c 128,-1,14
 205 373 205 373 185 373 c 0,15,16
 169 373 169 373 156 365 c 128,-1,17
 143 357 143 357 137 346 c 1,18,19
 138 346 138 346 140 347 c 1,20,21
 142 347 142 347 143 347.5 c 128,-1,22
 144 348 144 348 146 348 c 0,23,24
 173 350 173 350 192 343 c 128,-1,25
 211 336 211 336 222.5 323.5 c 128,-1,26
 234 311 234 311 238 294 c 128,-1,27
 242 277 242 277 239 259 c 0,28,29
 236 242 236 242 226 226.5 c 128,-1,30
 216 211 216 211 201.5 199.5 c 128,-1,31
 187 188 187 188 169 181 c 128,-1,32
 151 174 151 174 132 174 c 256,33,34
 113 174 113 174 96 180.5 c 128,-1,35
 79 187 79 187 67 200 c 128,-1,36
 55 213 55 213 49.5 233.5 c 128,-1,37
 44 254 44 254 49 282 c 0,38,39
 54 309 54 309 67 332 c 128,-1,40
 80 355 80 355 98.5 371.5 c 128,-1,41
 117 388 117 388 139 397.5 c 128,-1,42
 161 407 161 407 185 407 c 0,43,44
 208 407 208 407 221.5 398.5 c 128,-1,45
 235 390 235 390 239 380 c 1,46,47
 248 391 248 391 263.5 399 c 128,-1,48
 279 407 279 407 298 407 c 0,49,50
 341 407 341 407 364.5 377 c 128,-1,51
 388 347 388 347 378 292 c 0,52,53
 372 258 372 258 353 233 c 128,-1,54
 334 208 334 208 310 190 c 128,-1,55
 286 172 286 172 261 160.5 c 128,-1,56
 236 149 236 149 218 142 c 1,57,-1
 200 40 l 1,58,-1
 373 40 l 1,59,-1
 436 400 l 1,60,-1
 516 400 l 1,61,-1
 446 0 l 1,62,-1
 113 0 l 1,0,-1
202 264 m 256,63,64
 206 286 206 286 193 302 c 128,-1,65
 180 318 180 318 158 318 c 256,66,67
 136 318 136 318 117 302 c 128,-1,68
 98 286 98 286 94 264 c 256,69,70
 90 242 90 242 103.5 226 c 128,-1,71
 117 210 117 210 139 210 c 256,72,73
 161 210 161 210 179.5 226 c 128,-1,74
 198 242 198 242 202 264 c 256,63,64
EndSplineSet
EndChar
StartChar: uni0E04
Encoding: 3588 3588 215
Width: 505
Flags: W
Fore
375 0 m 1,0,-1
 424 282 l 2,1,2
 428 302 428 302 421.5 318.5 c 128,-1,3
 415 335 415 335 401 347 c 128,-1,4
 387 359 387 359 365.5 365.5 c 128,-1,5
 344 372 344 372 317 372 c 0,6,7
 259 372 259 372 217.5 344 c 128,-1,8
 176 316 176 316 168 268 c 0,9,10
 166 257 166 257 164 241.5 c 128,-1,11
 162 226 162 226 160.5 209.5 c 128,-1,12
 157.5 176.5 l 128,-1,13
 156 160 156 160 155 148 c 1,14,-1
 194 229 l 2,15,16
 209 260 209 260 235.5 284.5 c 128,-1,17
 262 309 262 309 303 309 c 256,18,19
 344 309 344 309 364.5 283 c 128,-1,20
 385 257 385 257 378 219 c 256,21,22
 371 181 371 181 341 155 c 128,-1,23
 311 129 311 129 271 129 c 0,24,25
 251 129 251 129 234 137 c 128,-1,26
 217 145 217 145 206 157 c 1,27,-1
 128 0 l 1,28,-1
 51 0 l 1,29,30
 67 69 67 69 70.5 133 c 128,-1,31
 74 197 74 197 84 254 c 0,32,33
 91 291 91 291 113 319.5 c 128,-1,34
 135 348 135 348 167.5 367.5 c 128,-1,35
 200 387 200 387 240.5 397 c 128,-1,36
 281 407 281 407 323 407 c 256,37,38
 365 407 365 407 401 398.5 c 128,-1,39
 437 390 437 390 461.5 372.5 c 128,-1,40
 486 355 486 355 497 328 c 128,-1,41
 508 301 508 301 501 264 c 2,42,-1
 455 0 l 1,43,-1
 375 0 l 1,0,-1
341 220 m 256,44,45
 345 242 345 242 332 258 c 128,-1,46
 319 274 319 274 297 274 c 256,47,48
 275 274 275 274 256 258 c 128,-1,49
 237 242 237 242 233 220 c 256,50,51
 229 198 229 198 242.5 182 c 128,-1,52
 256 166 256 166 278 166 c 256,53,54
 300 166 300 166 318.5 182 c 128,-1,55
 337 198 337 198 341 220 c 256,44,45
EndSplineSet
EndChar
StartChar: uni0E05
Encoding: 3589 3589 216
Width: 505
Flags: W
Fore
375 0 m 1,0,-1
 428 301 l 2,1,2
 434 335 434 335 423 353.5 c 128,-1,3
 412 372 412 372 386 372 c 0,4,5
 366 372 366 372 351.5 362 c 128,-1,6
 337 352 337 352 327 338 c 1,7,-1
 298 338 l 1,8,9
 296 355 296 355 284 363.5 c 128,-1,10
 272 372 272 372 255 372 c 0,11,12
 220 372 220 372 198.5 345 c 128,-1,13
 177 318 177 318 169 276 c 0,14,15
 164 244 164 244 160.5 209 c 128,-1,16
 157 174 157 174 154 142 c 1,17,-1
 198 229 l 2,18,19
 214 260 214 260 240 284.5 c 128,-1,20
 266 309 266 309 307 309 c 256,21,22
 348 309 348 309 368.5 283 c 128,-1,23
 389 257 389 257 382 219 c 256,24,25
 375 181 375 181 345 155 c 128,-1,26
 315 129 315 129 275 129 c 0,27,28
 255 129 255 129 238 137 c 128,-1,29
 221 145 221 145 210 157 c 1,30,-1
 128 0 l 1,31,-1
 51 0 l 1,32,33
 61 42 61 42 65.5 76 c 128,-1,34
 70 110 70 110 72.5 140 c 128,-1,35
 75 170 75 170 77.5 199 c 128,-1,36
 80 228 80 228 85 259 c 0,37,38
 90 287 90 287 103 314 c 128,-1,39
 116 341 116 341 136.5 362 c 128,-1,40
 157 383 157 383 185 395.5 c 128,-1,41
 213 408 213 408 247 408 c 0,42,43
 276 408 276 408 295.5 397.5 c 128,-1,44
 315 387 315 387 321 370 c 1,45,46
 334 384 334 384 355.5 396 c 128,-1,47
 377 408 377 408 406 408 c 0,48,49
 457 408 457 408 486.5 379 c 128,-1,50
 516 350 516 350 506 293 c 2,51,-1
 455 0 l 1,52,-1
 375 0 l 1,0,-1
345 220 m 256,53,54
 349 242 349 242 336 258 c 128,-1,55
 323 274 323 274 301 274 c 256,56,57
 279 274 279 274 260 258 c 128,-1,58
 241 242 241 242 237 220 c 256,59,60
 233 198 233 198 246.5 182 c 128,-1,61
 260 166 260 166 282 166 c 256,62,63
 304 166 304 166 322.5 182 c 128,-1,64
 341 198 341 198 345 220 c 256,53,54
EndSplineSet
EndChar
StartChar: uni0E06
Encoding: 3590 3590 217
Width: 551
Flags: W
Fore
431 0 m 1,0,-1
 283 99 l 1,1,-1
 282 94 l 2,2,3
 274 47 274 47 240.5 21 c 128,-1,4
 207 -5 207 -5 155 -5 c 0,5,6
 111 -5 111 -5 87.5 20.5 c 128,-1,7
 64 46 64 46 71 83 c 0,8,9
 78 121 78 121 111.5 144.5 c 128,-1,10
 145 168 145 168 190 168 c 0,11,12
 200 168 200 168 205.5 167.5 c 128,-1,13
 211 167 211 167 215 167 c 1,14,15
 219 189 219 189 232.5 204.5 c 128,-1,16
 246 220 246 220 262 235 c 128,-1,17
 278 250 278 250 292.5 268.5 c 128,-1,18
 307 287 307 287 312 314 c 0,19,20
 317 338 317 338 309 354.5 c 128,-1,21
 301 371 301 371 284 372 c 0,22,23
 273 372 273 372 261 365 c 128,-1,24
 249 358 249 358 239 344 c 1,25,26
 234 355 234 355 222 364 c 128,-1,27
 210 373 210 373 190 373 c 0,28,29
 174 373 174 373 159 365 c 128,-1,30
 144 357 144 357 138 346 c 1,31,32
 139 346 139 346 141 347 c 1,33,34
 143 347 143 347 144 347.5 c 128,-1,35
 145 348 145 348 147 348 c 0,36,37
 172 350 172 350 190 343.5 c 128,-1,38
 208 337 208 337 219 325 c 128,-1,39
 230 313 230 313 234 297 c 128,-1,40
 238 281 238 281 235 264 c 256,41,42
 232 247 232 247 222.5 232.5 c 128,-1,43
 213 218 213 218 199 207 c 128,-1,44
 185 196 185 196 168.5 189.5 c 128,-1,45
 152 183 152 183 134 183 c 256,46,47
 116 183 116 183 99.5 189 c 128,-1,48
 83 195 83 195 71.5 207.5 c 128,-1,49
 60 220 60 220 55 240 c 128,-1,50
 50 260 50 260 55 287 c 0,51,52
 59 312 59 312 72 334 c 128,-1,53
 85 356 85 356 103.5 372.5 c 128,-1,54
 122 389 122 389 144 398 c 128,-1,55
 166 407 166 407 190 407 c 0,56,57
 213 407 213 407 226.5 398.5 c 128,-1,58
 240 390 240 390 244 380 c 1,59,60
 253 391 253 391 271 399 c 128,-1,61
 289 407 289 407 309 407 c 0,62,63
 348 407 348 407 371.5 385 c 128,-1,64
 395 363 395 363 387 315 c 0,65,66
 383 291 383 291 370 275.5 c 128,-1,67
 357 260 357 260 342 247 c 128,-1,68
 327 234 327 234 314.5 220.5 c 128,-1,69
 302 207 302 207 298 186 c 2,70,-1
 291 145 l 1,71,-1
 430 53 l 1,72,-1
 491 400 l 1,73,-1
 571 400 l 1,74,-1
 501 0 l 1,75,-1
 431 0 l 1,0,-1
200 268 m 0,76,77
 204 289 204 289 191 304.5 c 128,-1,78
 178 320 178 320 158 320 c 0,79,80
 137 320 137 320 119 304.5 c 128,-1,81
 101 289 101 289 97 268 c 0,82,83
 93 248 93 248 106 232.5 c 128,-1,84
 119 217 119 217 140 217 c 0,85,86
 160 217 160 217 178 232.5 c 128,-1,87
 196 248 196 248 200 268 c 0,76,77
208 125 m 1,88,89
 203 126 203 126 194.5 126.5 c 128,-1,90
 186 127 186 127 178 127 c 0,91,92
 156 127 156 127 138 116 c 128,-1,93
 120 105 120 105 116 82 c 0,94,95
 112 62 112 62 123.5 50 c 128,-1,96
 135 38 135 38 152 38 c 0,97,98
 168 38 168 38 182 48.5 c 128,-1,99
 196 59 196 59 200 81 c 2,100,-1
 208 125 l 1,88,89
EndSplineSet
EndChar
StartChar: uni0E07
Encoding: 3591 3591 218
Width: 438
Flags: W
Fore
191 0 m 1,0,1
 186 30 186 30 172 66 c 128,-1,2
 158 102 158 102 138 135.5 c 128,-1,3
 118 169 118 169 93 196.5 c 128,-1,4
 68 224 68 224 41 238 c 1,5,-1
 124 286 l 1,6,7
 146 272 146 272 165 244.5 c 128,-1,8
 184 217 184 217 198 182.5 c 128,-1,9
 212 148 212 148 221 110.5 c 128,-1,10
 230 73 230 73 232 40 c 1,11,-1
 315 40 l 1,12,-1
 348 229 l 1,13,14
 327 221 327 221 308 221 c 256,15,16
 289 221 289 221 273.5 228.5 c 128,-1,17
 258 236 258 236 247.5 248.5 c 128,-1,18
 237 261 237 261 233 278 c 128,-1,19
 229 295 229 295 232 314 c 0,20,21
 239 352 239 352 270.5 379.5 c 128,-1,22
 302 407 302 407 349 407 c 0,23,24
 400 407 400 407 424.5 378 c 128,-1,25
 449 349 449 349 440 298 c 2,26,-1
 388 0 l 1,27,-1
 191 0 l 1,0,1
382 314 m 0,28,29
 386 337 386 337 372 354 c 128,-1,30
 358 371 358 371 335 371 c 256,31,32
 312 371 312 371 292 354 c 128,-1,33
 272 337 272 337 268 314 c 0,34,35
 263 291 263 291 277.5 274 c 128,-1,36
 292 257 292 257 315 257 c 256,37,38
 338 257 338 257 357.5 274 c 128,-1,39
 377 291 377 291 382 314 c 0,28,29
EndSplineSet
EndChar
StartChar: uni0E08
Encoding: 3592 3592 219
Width: 456
Flags: W
Fore
460 251 m 0,0,1
 455 224 455 224 446.5 192.5 c 128,-1,2
 438 161 438 161 428 127.5 c 128,-1,3
 418 94 418 94 409.5 61 c 128,-1,4
 401 28 401 28 396 0 c 1,5,-1
 317 0 l 1,6,-1
 288 131 l 1,7,8
 272 115 272 115 251 104.5 c 128,-1,9
 230 94 230 94 204 94 c 0,10,11
 162 94 162 94 140.5 121 c 128,-1,12
 119 148 119 148 126 185 c 0,13,14
 129 203 129 203 139 219.5 c 128,-1,15
 149 236 149 236 163.5 248.5 c 128,-1,16
 178 261 178 261 196.5 268.5 c 128,-1,17
 215 276 215 276 236 276 c 0,18,19
 268 276 268 276 290 259.5 c 128,-1,20
 312 243 312 243 320 206 c 2,21,-1
 341 100 l 1,22,23
 347 131 347 131 361.5 179 c 128,-1,24
 376 227 376 227 385 278 c 0,25,26
 392 318 392 318 366.5 345 c 128,-1,27
 341 372 341 372 284 372 c 0,28,29
 258 372 258 372 233 364.5 c 128,-1,30
 208 357 208 357 187 341.5 c 128,-1,31
 166 326 166 326 151.5 303.5 c 128,-1,32
 137 281 137 281 131 251 c 1,33,-1
 44 251 l 1,34,35
 56 292 56 292 80.5 321.5 c 128,-1,36
 105 351 105 351 138 370 c 128,-1,37
 171 389 171 389 210 398 c 128,-1,38
 249 407 249 407 290 407 c 0,39,40
 384 407 384 407 428.5 365 c 128,-1,41
 473 323 473 323 460 251 c 0,0,1
277 184 m 256,42,43
 281 207 281 207 267.5 224 c 128,-1,44
 254 241 254 241 230 241 c 256,45,46
 206 241 206 241 186.5 224 c 128,-1,47
 167 207 167 207 163 184 c 256,48,49
 159 161 159 161 172.5 144 c 128,-1,50
 186 127 186 127 210 127 c 256,51,52
 234 127 234 127 253.5 144 c 128,-1,53
 273 161 273 161 277 184 c 256,42,43
EndSplineSet
EndChar
StartChar: uni0E09
Encoding: 3593 3593 220
Width: 520
Flags: W
Fore
511 86 m 0,0,1
 507 66 507 66 496 49 c 128,-1,2
 485 32 485 32 469 19.5 c 128,-1,3
 453 7 453 7 433.5 -0.5 c 128,-1,4
 414 -8 414 -8 393 -8 c 0,5,6
 352 -8 352 -8 327 19 c 128,-1,7
 302 46 302 46 307 84 c 1,8,9
 279 67 279 67 254 46 c 128,-1,10
 229 25 229 25 206 0 c 1,11,-1
 131 0 l 1,12,-1
 144 77 l 1,13,14
 123 69 123 69 105 69 c 0,15,16
 86 69 86 69 70 76.5 c 128,-1,17
 54 84 54 84 43.5 96.5 c 128,-1,18
 33 109 33 109 29 126 c 128,-1,19
 25 143 25 143 28 162 c 0,20,21
 35 200 35 200 66.5 227.5 c 128,-1,22
 98 255 98 255 145 255 c 0,23,24
 196 255 196 255 220.5 226 c 128,-1,25
 245 197 245 197 236 146 c 2,26,-1
 223 72 l 1,27,28
 266 104 266 104 317 137 c 128,-1,29
 368 170 368 170 422 186 c 1,30,-1
 439 280 l 2,31,32
 446 320 446 320 415.5 346 c 128,-1,33
 385 372 385 372 317 372 c 0,34,35
 281 372 281 372 253.5 364 c 128,-1,36
 226 356 226 356 206 342.5 c 128,-1,37
 186 329 186 329 172.5 311.5 c 128,-1,38
 159 294 159 294 152 275 c 1,39,-1
 70 275 l 1,40,41
 97 335 97 335 159.5 371 c 128,-1,42
 222 407 222 407 323 407 c 0,43,44
 373 407 373 407 411.5 398.5 c 128,-1,45
 450 390 450 390 475.5 372 c 128,-1,46
 501 354 501 354 511.5 327 c 128,-1,47
 522 300 522 300 516 264 c 2,48,-1
 501 181 l 1,49,50
 492 178 492 178 485 175 c 128,-1,51
 478 172 478 172 469 167 c 1,52,53
 490 159 490 159 503 135.5 c 128,-1,54
 516 112 516 112 511 86 c 0,0,1
467 86 m 0,55,56
 471 109 471 109 457 126 c 128,-1,57
 443 143 443 143 420 143 c 256,58,59
 397 143 397 143 377 126 c 128,-1,60
 357 109 357 109 353 86 c 0,61,62
 348 63 348 63 362.5 46 c 128,-1,63
 377 29 377 29 400 29 c 256,64,65
 423 29 423 29 442.5 46 c 128,-1,66
 462 63 462 63 467 86 c 0,55,56
178 162 m 0,67,68
 183 185 183 185 168.5 202 c 128,-1,69
 154 219 154 219 131 219 c 256,70,71
 108 219 108 219 88.5 202 c 128,-1,72
 69 185 69 185 64 162 c 0,73,74
 60 139 60 139 74 122 c 128,-1,75
 88 105 88 105 111 105 c 256,76,77
 134 105 134 105 154 122 c 128,-1,78
 174 139 174 139 178 162 c 0,67,68
EndSplineSet
EndChar
StartChar: uni0E0A
Encoding: 3594 3594 221
Width: 486
Flags: W
Fore
526 400 m 1,0,1
 522 388 522 388 512 374.5 c 128,-1,2
 502 361 502 361 488 349 c 128,-1,3
 474 337 474 337 457 327 c 128,-1,4
 440 317 440 317 422 311 c 1,5,6
 454 303 454 303 468 282.5 c 128,-1,7
 482 262 482 262 477 238 c 2,8,-1
 436 0 l 1,9,-1
 93 0 l 1,10,-1
 116 136 l 1,11,12
 136 140 136 140 163 150 c 128,-1,13
 190 160 190 160 215.5 177 c 128,-1,14
 241 194 241 194 261 217.5 c 128,-1,15
 281 241 281 241 286 272 c 0,16,17
 289 289 289 289 287 307 c 128,-1,18
 285 325 285 325 275 339.5 c 128,-1,19
 265 354 265 354 248 363.5 c 128,-1,20
 231 373 231 373 204 373 c 0,21,22
 187 373 187 373 172 367.5 c 128,-1,23
 157 362 157 362 152 357 c 1,24,25
 179 359 179 359 198 352 c 128,-1,26
 217 345 217 345 228.5 332.5 c 128,-1,27
 240 320 240 320 244.5 303 c 128,-1,28
 249 286 249 286 246 268 c 0,29,30
 243 251 243 251 233 235.5 c 128,-1,31
 223 220 223 220 208.5 208.5 c 128,-1,32
 194 197 194 197 176 190 c 128,-1,33
 158 183 158 183 139 183 c 256,34,35
 120 183 120 183 103 189.5 c 128,-1,36
 86 196 86 196 74 208.5 c 128,-1,37
 62 221 62 221 56 240 c 128,-1,38
 50 259 50 259 55 285 c 0,39,40
 59 310 59 310 74 332.5 c 128,-1,41
 89 355 89 355 111 371.5 c 128,-1,42
 133 388 133 388 160.5 397.5 c 128,-1,43
 188 407 188 407 219 407 c 256,44,45
 250 407 250 407 275 397 c 128,-1,46
 300 387 300 387 316.5 369.5 c 128,-1,47
 333 352 333 352 339.5 328.5 c 128,-1,48
 346 305 346 305 342 278 c 0,49,50
 336 244 336 244 318.5 219 c 128,-1,51
 301 194 301 194 279 176.5 c 128,-1,52
 257 159 257 159 234.5 148 c 128,-1,53
 212 137 212 137 196 132 c 1,54,-1
 180 40 l 1,55,-1
 363 40 l 1,56,-1
 398 241 l 2,57,58
 402 261 402 261 395 280 c 128,-1,59
 388 299 388 299 357 309 c 1,60,61
 376 316 376 316 390 327.5 c 128,-1,62
 404 339 404 339 413 352 c 128,-1,63
 422 365 422 365 427 377.5 c 128,-1,64
 432 390 432 390 434 400 c 1,65,-1
 526 400 l 1,0,1
209 273 m 256,66,67
 213 295 213 295 199.5 311 c 128,-1,68
 186 327 186 327 164 327 c 256,69,70
 142 327 142 327 123.5 311 c 128,-1,71
 105 295 105 295 101 273 c 256,72,73
 97 251 97 251 110 235 c 128,-1,74
 123 219 123 219 145 219 c 256,75,76
 167 219 167 219 186 235 c 128,-1,77
 205 251 205 251 209 273 c 256,66,67
EndSplineSet
EndChar
StartChar: uni0E0B
Encoding: 3595 3595 222
Width: 516
Flags: W
Fore
556 400 m 1,0,1
 552 388 552 388 542 374.5 c 128,-1,2
 532 361 532 361 518 349 c 128,-1,3
 504 337 504 337 487 327 c 128,-1,4
 470 317 470 317 452 311 c 1,5,6
 484 303 484 303 498 282.5 c 128,-1,7
 512 262 512 262 507 238 c 2,8,-1
 466 0 l 1,9,-1
 113 0 l 1,10,-1
 138 147 l 1,11,12
 156 153 156 153 183.5 164.5 c 128,-1,13
 211 176 211 176 238 193 c 128,-1,14
 265 210 265 210 286 234.5 c 128,-1,15
 307 259 307 259 313 291 c 0,16,17
 319 328 319 328 309 350 c 128,-1,18
 299 372 299 372 279 372 c 0,19,20
 268 372 268 372 256 364.5 c 128,-1,21
 244 357 244 357 234 344 c 1,22,23
 229 355 229 355 217 364 c 128,-1,24
 205 373 205 373 185 373 c 0,25,26
 169 373 169 373 156 365 c 128,-1,27
 143 357 143 357 137 346 c 1,28,29
 138 346 138 346 140 347 c 1,30,31
 142 347 142 347 143 347.5 c 128,-1,32
 144 348 144 348 146 348 c 0,33,34
 173 350 173 350 192 343 c 128,-1,35
 211 336 211 336 222.5 323.5 c 128,-1,36
 234 311 234 311 238 294 c 128,-1,37
 242 277 242 277 239 259 c 0,38,39
 236 242 236 242 226 226.5 c 128,-1,40
 216 211 216 211 201.5 199.5 c 128,-1,41
 187 188 187 188 169 181 c 128,-1,42
 151 174 151 174 132 174 c 256,43,44
 113 174 113 174 96 180.5 c 128,-1,45
 79 187 79 187 67 200 c 128,-1,46
 55 213 55 213 49.5 233.5 c 128,-1,47
 44 254 44 254 49 282 c 0,48,49
 54 309 54 309 67 332 c 128,-1,50
 80 355 80 355 98.5 371.5 c 128,-1,51
 117 388 117 388 139 397.5 c 128,-1,52
 161 407 161 407 185 407 c 0,53,54
 208 407 208 407 221.5 398.5 c 128,-1,55
 235 390 235 390 239 380 c 1,56,57
 248 391 248 391 263.5 399 c 128,-1,58
 279 407 279 407 298 407 c 0,59,60
 341 407 341 407 364.5 377 c 128,-1,61
 388 347 388 347 378 292 c 0,62,63
 372 258 372 258 353 233 c 128,-1,64
 334 208 334 208 310 190 c 128,-1,65
 286 172 286 172 261 160.5 c 128,-1,66
 236 149 236 149 218 142 c 1,67,-1
 200 40 l 1,68,-1
 393 40 l 1,69,-1
 428 241 l 2,70,71
 432 261 432 261 425 280 c 128,-1,72
 418 299 418 299 387 309 c 1,73,74
 406 316 406 316 420 327.5 c 128,-1,75
 434 339 434 339 443 352 c 128,-1,76
 452 365 452 365 457 377.5 c 128,-1,77
 462 390 462 390 464 400 c 1,78,-1
 556 400 l 1,0,1
202 264 m 256,79,80
 206 286 206 286 193 302 c 128,-1,81
 180 318 180 318 158 318 c 256,82,83
 136 318 136 318 117 302 c 128,-1,84
 98 286 98 286 94 264 c 256,85,86
 90 242 90 242 103.5 226 c 128,-1,87
 117 210 117 210 139 210 c 256,88,89
 161 210 161 210 179.5 226 c 128,-1,90
 198 242 198 242 202 264 c 256,79,80
EndSplineSet
EndChar
StartChar: uni0E0C
Encoding: 3596 3596 223
Width: 712
Flags: W
Fore
588 0 m 1,0,1
 581 9 581 9 572 20 c 128,-1,2
 563 31 563 31 553.5 42 c 128,-1,3
 544 53 544 53 534.5 63 c 128,-1,4
 525 73 525 73 518 80 c 1,5,6
 515 63 515 63 504.5 47 c 128,-1,7
 494 31 494 31 479 19 c 128,-1,8
 464 7 464 7 445 0 c 128,-1,9
 426 -7 426 -7 406 -7 c 256,10,11
 386 -7 386 -7 369.5 0 c 128,-1,12
 353 7 353 7 342 19.5 c 128,-1,13
 331 32 331 32 326.5 48.5 c 128,-1,14
 322 65 322 65 325 83 c 0,15,16
 330 108 330 108 345.5 130.5 c 128,-1,17
 361 153 361 153 387 164 c 1,18,19
 385 165 385 165 383.5 166 c 128,-1,20
 382 167 382 167 380 168 c 256,21,22
 378 169 378 169 377 170 c 1,23,-1
 397 280 l 2,24,25
 405 324 405 324 377 348 c 128,-1,26
 349 372 349 372 298 372 c 0,27,28
 272 372 272 372 249 365.5 c 128,-1,29
 226 359 226 359 207.5 346 c 128,-1,30
 189 333 189 333 176.5 315 c 128,-1,31
 164 297 164 297 160 275 c 1,32,-1
 223 275 l 1,33,-1
 218 249 l 1,34,35
 171 232 171 232 162 184 c 2,36,-1
 160 173 l 1,37,38
 181 181 181 181 199 181 c 0,39,40
 218 181 218 181 233.5 173.5 c 128,-1,41
 249 166 249 166 259.5 153.5 c 128,-1,42
 270 141 270 141 274.5 124 c 128,-1,43
 279 107 279 107 276 88 c 0,44,45
 269 50 269 50 237.5 22.5 c 128,-1,46
 206 -5 206 -5 159 -5 c 0,47,48
 108 -5 108 -5 83.5 24 c 128,-1,49
 59 53 59 53 68 104 c 2,50,-1
 80 175 l 2,51,52
 82 186 82 186 89 198 c 128,-1,53
 96 210 96 210 107 220 c 128,-1,54
 118 230 118 230 132.5 237.5 c 128,-1,55
 147 245 147 245 165 248 c 1,56,-1
 70 248 l 1,57,58
 80 287 80 287 102.5 317 c 128,-1,59
 125 347 125 347 156.5 367 c 128,-1,60
 188 387 188 387 225.5 397 c 128,-1,61
 263 407 263 407 304 407 c 0,62,63
 341 407 341 407 375 399 c 128,-1,64
 409 391 409 391 433.5 374.5 c 128,-1,65
 458 358 458 358 469.5 332 c 128,-1,66
 481 306 481 306 475 270 c 2,67,-1
 459 179 l 1,68,69
 477 171 477 171 496 157.5 c 128,-1,70
 515 144 515 144 533.5 128 c 128,-1,71
 552 112 552 112 567.5 96 c 128,-1,72
 583 80 583 80 593 67 c 1,73,-1
 652 400 l 1,74,-1
 732 400 l 1,75,-1
 662 0 l 1,76,-1
 588 0 l 1,0,1
480 86 m 0,77,78
 484 109 484 109 470 126 c 128,-1,79
 456 143 456 143 433 143 c 256,80,81
 410 143 410 143 390 126 c 128,-1,82
 370 109 370 109 366 86 c 0,83,84
 361 63 361 63 375.5 46 c 128,-1,85
 390 29 390 29 413 29 c 256,86,87
 436 29 436 29 455.5 46 c 128,-1,88
 475 63 475 63 480 86 c 0,77,78
240 88 m 256,89,90
 244 111 244 111 230 128 c 128,-1,91
 216 145 216 145 193 145 c 256,92,93
 170 145 170 145 150 128 c 128,-1,94
 130 111 130 111 126 88 c 256,95,96
 122 65 122 65 136 48 c 128,-1,97
 150 31 150 31 173 31 c 256,98,99
 196 31 196 31 216 48 c 128,-1,100
 236 65 236 65 240 88 c 256,89,90
EndSplineSet
EndChar
StartChar: uni0E0D
Encoding: 3597 3597 224
Width: 708
Flags: W
Fore
348 0 m 1,0,-1
 397 280 l 2,1,2
 405 324 405 324 377 348 c 128,-1,3
 349 372 349 372 298 372 c 0,4,5
 272 372 272 372 249 365.5 c 128,-1,6
 226 359 226 359 207.5 346 c 128,-1,7
 189 333 189 333 176.5 315 c 128,-1,8
 164 297 164 297 160 275 c 1,9,-1
 223 275 l 1,10,-1
 218 249 l 1,11,12
 171 232 171 232 162 184 c 2,13,-1
 160 173 l 1,14,15
 181 181 181 181 199 181 c 0,16,17
 218 181 218 181 233.5 173.5 c 128,-1,18
 249 166 249 166 259.5 153.5 c 128,-1,19
 270 141 270 141 274.5 124 c 128,-1,20
 279 107 279 107 276 88 c 0,21,22
 269 50 269 50 237.5 22.5 c 128,-1,23
 206 -5 206 -5 159 -5 c 0,24,25
 108 -5 108 -5 83.5 24 c 128,-1,26
 59 53 59 53 68 104 c 2,27,-1
 80 175 l 2,28,29
 82 186 82 186 89 198 c 128,-1,30
 96 210 96 210 107 220 c 128,-1,31
 118 230 118 230 132.5 237.5 c 128,-1,32
 147 245 147 245 165 248 c 1,33,-1
 70 248 l 1,34,35
 80 287 80 287 102.5 317 c 128,-1,36
 125 347 125 347 156.5 367 c 128,-1,37
 188 387 188 387 225.5 397 c 128,-1,38
 263 407 263 407 304 407 c 0,39,40
 341 407 341 407 375 399 c 128,-1,41
 409 391 409 391 433.5 374.5 c 128,-1,42
 458 358 458 358 469.5 332 c 128,-1,43
 481 306 481 306 475 270 c 2,44,-1
 435 40 l 1,45,-1
 584 40 l 1,46,-1
 647 400 l 1,47,-1
 727 400 l 1,48,-1
 657 0 l 1,49,-1
 348 0 l 1,0,-1
645 -32 m 1,50,51
 637 -64 637 -64 619 -94.5 c 128,-1,52
 601 -125 601 -125 573.5 -149 c 128,-1,53
 546 -173 546 -173 509.5 -188 c 128,-1,54
 473 -203 473 -203 429 -203 c 0,55,56
 370 -203 370 -203 340.5 -178 c 128,-1,57
 311 -153 311 -153 319 -108 c 0,58,59
 326 -71 326 -71 357.5 -45.5 c 128,-1,60
 389 -20 389 -20 427 -20 c 0,61,62
 446 -20 446 -20 461.5 -26.5 c 128,-1,63
 477 -33 477 -33 487.5 -44.5 c 128,-1,64
 498 -56 498 -56 502.5 -72 c 128,-1,65
 507 -88 507 -88 503 -108 c 0,66,67
 501 -124 501 -124 494.5 -139.5 c 128,-1,68
 488 -155 488 -155 478 -164 c 1,69,70
 499 -159 499 -159 515.5 -144.5 c 128,-1,71
 532 -130 532 -130 543.5 -111 c 128,-1,72
 555 -92 555 -92 561.5 -71 c 128,-1,73
 568 -50 568 -50 568 -32 c 1,74,-1
 645 -32 l 1,50,51
467 -108 m 0,75,76
 472 -84 472 -84 458.5 -67.5 c 128,-1,77
 445 -51 445 -51 421 -51 c 256,78,79
 397 -51 397 -51 377.5 -67.5 c 128,-1,80
 358 -84 358 -84 353 -108 c 0,81,82
 349 -132 349 -132 362.5 -148.5 c 128,-1,83
 376 -165 376 -165 400 -165 c 256,84,85
 424 -165 424 -165 443.5 -148.5 c 128,-1,86
 463 -132 463 -132 467 -108 c 0,75,76
240 88 m 256,87,88
 244 111 244 111 230 128 c 128,-1,89
 216 145 216 145 193 145 c 256,90,91
 170 145 170 145 150 128 c 128,-1,92
 130 111 130 111 126 88 c 256,93,94
 122 65 122 65 136 48 c 128,-1,95
 150 31 150 31 173 31 c 256,96,97
 196 31 196 31 216 48 c 128,-1,98
 236 65 236 65 240 88 c 256,87,88
EndSplineSet
Substitution: 0 65534 'L025' uni0E0D.alt1
Substitution: 0 65534 'L025' uni0E0D.alt1
EndChar
StartChar: uni0E0E
Encoding: 3598 3598 225
Width: 570
Flags: W
Fore
404 -170 m 1,0,1
 375 -150 375 -150 352.5 -136 c 128,-1,2
 330 -122 330 -122 307 -109 c 1,3,4
 293 -117 293 -117 277 -128.5 c 128,-1,5
 261 -140 261 -140 241.5 -150.5 c 128,-1,6
 222 -161 222 -161 198 -168.5 c 128,-1,7
 174 -176 174 -176 144 -176 c 0,8,9
 98 -176 98 -176 69 -157.5 c 128,-1,10
 40 -139 40 -139 46 -107 c 0,11,12
 49 -88 49 -88 62 -73.5 c 128,-1,13
 75 -59 75 -59 94.5 -48.5 c 128,-1,14
 114 -38 114 -38 138 -32.5 c 128,-1,15
 162 -27 162 -27 187 -27 c 0,16,17
 233 -27 233 -27 260.5 -37.5 c 128,-1,18
 288 -48 288 -48 310 -59 c 1,19,20
 327 -50 327 -50 349 -43.5 c 128,-1,21
 371 -37 371 -37 405 -32 c 1,22,-1
 397 -75 l 1,23,24
 387 -76 387 -76 375 -79 c 128,-1,25
 363 -82 363 -82 356 -84 c 1,26,27
 366 -89 366 -89 376.5 -95 c 128,-1,28
 387 -101 387 -101 396 -107 c 2,29,-1
 417 -121 l 1,30,-1
 488 280 l 2,31,32
 496 324 496 324 468 348 c 128,-1,33
 440 372 440 372 389 372 c 0,34,35
 363 372 363 372 340 365.5 c 128,-1,36
 317 359 317 359 298.5 346 c 128,-1,37
 280 333 280 333 267.5 315 c 128,-1,38
 255 297 255 297 251 275 c 1,39,-1
 314 275 l 1,40,-1
 309 249 l 1,41,42
 262 232 262 232 253 184 c 2,43,-1
 239 106 l 2,44,45
 230 55 230 55 194 25 c 128,-1,46
 158 -5 158 -5 107 -5 c 0,47,48
 62 -5 62 -5 40 23 c 128,-1,49
 18 51 18 51 25 88 c 0,50,51
 28 107 28 107 38.5 123.5 c 128,-1,52
 49 140 49 140 64 152.5 c 128,-1,53
 79 165 79 165 97 172 c 128,-1,54
 115 179 115 179 134 179 c 0,55,56
 144 179 144 179 153.5 178 c 128,-1,57
 163 177 163 177 171 174 c 1,58,-1
 173 183 l 2,59,60
 177 205 177 205 200 222.5 c 128,-1,61
 223 240 223 240 256 248 c 1,62,-1
 161 248 l 1,63,64
 171 287 171 287 193.5 317 c 128,-1,65
 216 347 216 347 247.5 367 c 128,-1,66
 279 387 279 387 316.5 397 c 128,-1,67
 354 407 354 407 395 407 c 0,68,69
 432 407 432 407 466 399 c 128,-1,70
 500 391 500 391 524.5 374.5 c 128,-1,71
 549 358 549 358 560.5 332 c 128,-1,72
 572 306 572 306 566 270 c 2,73,-1
 489 -170 l 1,74,-1
 404 -170 l 1,0,1
175 88 m 256,75,76
 179 111 179 111 165 128 c 128,-1,77
 151 145 151 145 128 145 c 256,78,79
 105 145 105 145 85 128 c 128,-1,80
 65 111 65 111 61 88 c 256,81,82
 57 65 57 65 71 48 c 128,-1,83
 85 31 85 31 108 31 c 256,84,85
 131 31 131 31 151 48 c 128,-1,86
 171 65 171 65 175 88 c 256,75,76
268 -88 m 1,87,88
 229 -67 229 -67 183 -67 c 0,89,90
 159 -67 159 -67 140 -78 c 128,-1,91
 121 -89 121 -89 118 -106 c 256,92,93
 115 -123 115 -123 129.5 -131 c 128,-1,94
 144 -139 144 -139 161 -139 c 0,95,96
 189 -139 189 -139 215.5 -123.5 c 128,-1,97
 242 -108 242 -108 268 -88 c 1,87,88
EndSplineSet
Substitution: 0 65534 'L025' uni0E0E.alt1
Substitution: 0 65534 'L025' uni0E0E.alt1
EndChar
StartChar: uni0E0F
Encoding: 3599 3599 226
Width: 570
Flags: W
Fore
407 -170 m 1,0,-1
 353 -112 l 1,1,-1
 272 -178 l 1,2,3
 257 -158 257 -158 244.5 -144 c 128,-1,4
 232 -130 232 -130 219 -117 c 1,5,6
 190 -140 190 -140 157 -161 c 128,-1,7
 124 -182 124 -182 78 -182 c 0,8,9
 60 -182 60 -182 42.5 -177.5 c 128,-1,10
 25 -173 25 -173 12 -164 c 128,-1,11
 -1 -155 -1 -155 -7 -141.5 c 128,-1,12
 -13 -128 -13 -128 -10 -109 c 0,13,14
 -6 -88 -6 -88 7 -73 c 128,-1,15
 20 -58 20 -58 38.5 -48 c 128,-1,16
 57 -38 57 -38 79 -33.5 c 128,-1,17
 101 -29 101 -29 122 -29 c 0,18,19
 154 -29 154 -29 179 -37.5 c 128,-1,20
 204 -46 204 -46 227 -60 c 1,21,22
 240 -51 240 -51 256 -42 c 128,-1,23
 272 -33 272 -33 299 -28 c 1,24,-1
 291 -72 l 1,25,26
 282 -74 282 -74 273 -78 c 128,-1,27
 264 -82 264 -82 259 -85 c 1,28,29
 266 -92 266 -92 274 -100 c 128,-1,30
 282 -108 282 -108 287 -114 c 1,31,-1
 363 -56 l 1,32,-1
 419 -113 l 1,33,-1
 488 280 l 2,34,35
 496 324 496 324 468 348 c 128,-1,36
 440 372 440 372 389 372 c 0,37,38
 363 372 363 372 340 365.5 c 128,-1,39
 317 359 317 359 298.5 346 c 128,-1,40
 280 333 280 333 267.5 315 c 128,-1,41
 255 297 255 297 251 275 c 1,42,-1
 314 275 l 1,43,-1
 309 249 l 1,44,45
 262 232 262 232 253 184 c 2,46,-1
 239 106 l 2,47,48
 230 55 230 55 194 25 c 128,-1,49
 158 -5 158 -5 107 -5 c 0,50,51
 62 -5 62 -5 40 23 c 128,-1,52
 18 51 18 51 25 88 c 0,53,54
 28 107 28 107 38.5 123.5 c 128,-1,55
 49 140 49 140 64 152.5 c 128,-1,56
 79 165 79 165 97 172 c 128,-1,57
 115 179 115 179 134 179 c 0,58,59
 144 179 144 179 153.5 178 c 128,-1,60
 163 177 163 177 171 174 c 1,61,-1
 173 183 l 2,62,63
 177 205 177 205 200 222.5 c 128,-1,64
 223 240 223 240 256 248 c 1,65,-1
 161 248 l 1,66,67
 171 287 171 287 193.5 317 c 128,-1,68
 216 347 216 347 247.5 367 c 128,-1,69
 279 387 279 387 316.5 397 c 128,-1,70
 354 407 354 407 395 407 c 0,71,72
 432 407 432 407 466 399 c 128,-1,73
 500 391 500 391 524.5 374.5 c 128,-1,74
 549 358 549 358 560.5 332 c 128,-1,75
 572 306 572 306 566 270 c 2,76,-1
 489 -170 l 1,77,-1
 407 -170 l 1,0,-1
175 88 m 256,78,79
 179 111 179 111 165 128 c 128,-1,80
 151 145 151 145 128 145 c 256,81,82
 105 145 105 145 85 128 c 128,-1,83
 65 111 65 111 61 88 c 256,84,85
 57 65 57 65 71 48 c 128,-1,86
 85 31 85 31 108 31 c 256,87,88
 131 31 131 31 151 48 c 128,-1,89
 171 65 171 65 175 88 c 256,78,79
191 -94 m 1,90,91
 171 -80 171 -80 153.5 -74 c 128,-1,92
 136 -68 136 -68 114 -68 c 256,93,94
 92 -68 92 -68 72 -78.5 c 128,-1,95
 52 -89 52 -89 48 -109 c 0,96,97
 45 -126 45 -126 58 -134.5 c 128,-1,98
 71 -143 71 -143 91 -143 c 0,99,100
 120 -143 120 -143 142.5 -129 c 128,-1,101
 165 -115 165 -115 191 -94 c 1,90,91
EndSplineSet
Substitution: 0 65534 'L025' uni0E0F.alt1
Substitution: 0 65534 'L025' uni0E0F.alt1
EndChar
StartChar: uni0E10
Encoding: 3600 3600 227
Width: 434
Flags: W
Fore
481 400 m 1,0,1
 468 361 468 361 437 343 c 128,-1,2
 406 325 406 325 368 325 c 0,3,4
 345 325 345 325 329.5 331 c 128,-1,5
 314 337 314 337 300 344.5 c 128,-1,6
 286 352 286 352 271.5 358 c 128,-1,7
 257 364 257 364 238 364 c 0,8,9
 204 364 204 364 179.5 341 c 128,-1,10
 155 318 155 318 150 291 c 1,11,-1
 444 291 l 1,12,13
 438 252 438 252 427.5 214 c 128,-1,14
 417 176 417 176 406 139.5 c 128,-1,15
 395 103 395 103 385.5 68 c 128,-1,16
 376 33 376 33 372 0 c 1,17,-1
 297 0 l 1,18,-1
 248 123 l 1,19,20
 240 107 240 107 228 95.5 c 128,-1,21
 216 84 216 84 202 76.5 c 128,-1,22
 188 69 188 69 173.5 65.5 c 128,-1,23
 159 62 159 62 147 62 c 0,24,25
 106 62 106 62 83 89 c 128,-1,26
 60 116 60 116 67 154 c 0,27,28
 70 173 70 173 80 189.5 c 128,-1,29
 90 206 90 206 105.5 218.5 c 128,-1,30
 121 231 121 231 140 238.5 c 128,-1,31
 159 246 159 246 180 246 c 0,32,33
 209 246 209 246 232.5 233.5 c 128,-1,34
 256 221 256 221 270 186 c 2,35,-1
 310 82 l 1,36,37
 311 99 311 99 317 120.5 c 128,-1,38
 323 142 323 142 330.5 165 c 128,-1,39
 338 188 338 188 345 212 c 128,-1,40
 352 236 352 236 356 259 c 1,41,-1
 50 259 l 1,42,43
 63 331 63 331 108.5 368 c 128,-1,44
 154 405 154 405 214 405 c 0,45,46
 244 405 244 405 262.5 398.5 c 128,-1,47
 281 392 281 392 294.5 384 c 128,-1,48
 308 376 308 376 319.5 369.5 c 128,-1,49
 331 363 331 363 346 363 c 0,50,51
 360 363 360 363 373 373 c 128,-1,52
 386 383 386 383 389 400 c 1,53,-1
 481 400 l 1,0,1
374 -91 m 0,54,55
 368 -126 368 -126 335 -148.5 c 128,-1,56
 302 -171 302 -171 262 -171 c 0,57,58
 233 -171 233 -171 211 -161.5 c 128,-1,59
 189 -152 189 -152 175 -139 c 1,60,61
 171 -144 171 -144 166.5 -148.5 c 128,-1,62
 162 -153 162 -153 158 -157 c 0,63,64
 153 -161 153 -161 148 -166 c 1,65,-1
 114 -166 l 1,66,67
 110 -155 110 -155 107 -148.5 c 128,-1,68
 104 -142 104 -142 101 -136 c 1,69,70
 83 -149 83 -149 59.5 -157 c 128,-1,71
 36 -165 36 -165 15 -165 c 0,72,73
 -15 -165 -15 -165 -36.5 -150 c 128,-1,74
 -58 -135 -58 -135 -53 -107 c 0,75,76
 -49 -82 -49 -82 -22.5 -65.5 c 128,-1,77
 4 -49 4 -49 37 -49 c 0,78,79
 59 -49 59 -49 79 -56.5 c 128,-1,80
 99 -64 99 -64 110 -76 c 1,81,82
 118 -66 118 -66 124.5 -55.5 c 128,-1,83
 131 -45 131 -45 136 -33 c 1,84,-1
 180 -33 l 1,85,86
 172 -53 172 -53 159 -74 c 128,-1,87
 146 -95 146 -95 135 -106 c 1,88,-1
 144 -124 l 1,89,90
 149 -119 149 -119 159.5 -108.5 c 128,-1,91
 170 -98 170 -98 180 -87 c 1,92,93
 188 -104 188 -104 207.5 -119 c 128,-1,94
 227 -134 227 -134 251 -137 c 1,95,96
 234 -129 234 -129 225 -114 c 128,-1,97
 216 -99 216 -99 219 -82 c 0,98,99
 221 -69 221 -69 229 -58 c 128,-1,100
 237 -47 237 -47 249 -38.5 c 128,-1,101
 261 -30 261 -30 276 -25 c 128,-1,102
 291 -20 291 -20 307 -20 c 0,103,104
 339 -20 339 -20 359.5 -39 c 128,-1,105
 380 -58 380 -58 374 -91 c 0,54,55
229 154 m 0,106,107
 233 179 233 179 218 198 c 128,-1,108
 203 217 203 217 177 217 c 0,109,110
 164 217 164 217 151.5 212 c 128,-1,111
 139 207 139 207 129 198 c 128,-1,112
 119 189 119 189 112 177.5 c 128,-1,113
 105 166 105 166 103 154 c 0,114,115
 98 129 98 129 113.5 110 c 128,-1,116
 129 91 129 91 155 91 c 0,117,118
 168 91 168 91 180.5 96 c 128,-1,119
 193 101 193 101 203 110 c 128,-1,120
 213 119 213 119 220 130.5 c 128,-1,121
 227 142 227 142 229 154 c 0,106,107
336 -84 m 0,122,123
 338 -69 338 -69 328.5 -59 c 128,-1,124
 319 -49 319 -49 302 -49 c 256,125,126
 285 -49 285 -49 271.5 -59 c 128,-1,127
 258 -69 258 -69 256 -84 c 0,128,129
 253 -99 253 -99 263 -109 c 128,-1,130
 273 -119 273 -119 290 -119 c 256,131,132
 307 -119 307 -119 320 -109 c 128,-1,133
 333 -99 333 -99 336 -84 c 0,122,123
85 -107 m 1,134,135
 76 -95 76 -95 63.5 -87 c 128,-1,136
 51 -79 51 -79 33 -79 c 0,137,138
 19 -79 19 -79 7 -87 c 128,-1,139
 -5 -95 -5 -95 -7 -107 c 0,140,141
 -10 -121 -10 -121 0 -128 c 128,-1,142
 10 -135 10 -135 25 -135 c 0,143,144
 41 -135 41 -135 56 -127 c 128,-1,145
 71 -119 71 -119 85 -107 c 1,134,135
EndSplineSet
Substitution: 0 65534 'L025' uni0E10.alt1
Substitution: 0 65534 'L025' uni0E10.alt1
EndChar
StartChar: uni0E11
Encoding: 3601 3601 228
Width: 594
Flags: W
Fore
464 0 m 1,0,-1
 522 329 l 1,1,-1
 245 0 l 1,2,-1
 171 0 l 1,3,-1
 199 164 l 2,4,5
 203 186 203 186 218.5 200.5 c 128,-1,6
 234 215 234 215 251.5 230 c 128,-1,7
 269 245 269 245 285 264 c 128,-1,8
 301 283 301 283 307 315 c 0,9,10
 312 339 312 339 304 355.5 c 128,-1,11
 296 372 296 372 279 373 c 0,12,13
 256 373 256 373 234 345 c 1,14,15
 229 356 229 356 217 365 c 128,-1,16
 205 374 205 374 185 374 c 0,17,18
 169 374 169 374 154 366 c 128,-1,19
 139 358 139 358 133 347 c 1,20,21
 134 347 134 347 136 348 c 1,22,23
 138 348 138 348 139 348.5 c 128,-1,24
 140 349 140 349 142 349 c 0,25,26
 167 351 167 351 185 344.5 c 128,-1,27
 203 338 203 338 214 326 c 128,-1,28
 225 314 225 314 229 298 c 128,-1,29
 233 282 233 282 230 265 c 256,30,31
 227 248 227 248 217.5 233.5 c 128,-1,32
 208 219 208 219 194 208 c 128,-1,33
 180 197 180 197 163.5 190.5 c 128,-1,34
 147 184 147 184 129 184 c 256,35,36
 111 184 111 184 94.5 190 c 128,-1,37
 78 196 78 196 66.5 208.5 c 128,-1,38
 55 221 55 221 50 241 c 128,-1,39
 45 261 45 261 50 288 c 0,40,41
 54 313 54 313 67 335 c 128,-1,42
 80 357 80 357 98.5 373.5 c 128,-1,43
 117 390 117 390 139 399 c 128,-1,44
 161 408 161 408 185 408 c 0,45,46
 208 408 208 408 221.5 399.5 c 128,-1,47
 235 391 235 391 239 381 c 1,48,49
 248 392 248 392 266 400 c 128,-1,50
 284 408 284 408 304 408 c 0,51,52
 343 408 343 408 367 386 c 128,-1,53
 391 364 391 364 382 316 c 0,54,55
 378 292 378 292 363.5 277.5 c 128,-1,56
 349 263 349 263 332.5 250.5 c 128,-1,57
 316 238 316 238 302 224.5 c 128,-1,58
 288 211 288 211 284 188 c 2,59,-1
 265 83 l 1,60,-1
 536 405 l 1,61,62
 574 405 574 405 592 390 c 128,-1,63
 610 375 610 375 605 346 c 2,64,-1
 544 0 l 1,65,-1
 464 0 l 1,0,-1
195 269 m 0,66,67
 199 290 199 290 186 305.5 c 128,-1,68
 173 321 173 321 153 321 c 0,69,70
 132 321 132 321 114 305.5 c 128,-1,71
 96 290 96 290 92 269 c 0,72,73
 88 249 88 249 101 233.5 c 128,-1,74
 114 218 114 218 135 218 c 0,75,76
 155 218 155 218 173 233.5 c 128,-1,77
 191 249 191 249 195 269 c 0,66,67
EndSplineSet
EndChar
StartChar: uni0E12
Encoding: 3602 3602 229
Width: 729
Flags: W
Fore
605 0 m 1,0,1
 598 9 598 9 589 20 c 128,-1,2
 580 31 580 31 570.5 42 c 128,-1,3
 561 53 561 53 551.5 63 c 128,-1,4
 542 73 542 73 535 80 c 1,5,6
 532 63 532 63 521.5 47 c 128,-1,7
 511 31 511 31 496 19 c 128,-1,8
 481 7 481 7 462 0 c 128,-1,9
 443 -7 443 -7 423 -7 c 256,10,11
 403 -7 403 -7 386.5 0 c 128,-1,12
 370 7 370 7 359 19.5 c 128,-1,13
 348 32 348 32 343.5 48.5 c 128,-1,14
 339 65 339 65 342 83 c 0,15,16
 347 108 347 108 362.5 130.5 c 128,-1,17
 378 153 378 153 404 164 c 1,18,19
 402 165 402 165 400.5 166 c 128,-1,20
 399 167 399 167 397 168 c 256,21,22
 395 169 395 169 394 170 c 1,23,-1
 418 301 l 2,24,25
 423 334 423 334 415 353 c 128,-1,26
 407 372 407 372 381 372 c 0,27,28
 361 372 361 372 347 362 c 128,-1,29
 333 352 333 352 322 338 c 1,30,-1
 293 338 l 1,31,32
 289 355 289 355 280.5 363.5 c 128,-1,33
 272 372 272 372 255 372 c 0,34,35
 220 372 220 372 198 342 c 128,-1,36
 176 312 176 312 168 271 c 0,37,38
 159 220 159 220 156 163.5 c 128,-1,39
 153 107 153 107 141 47 c 1,40,41
 179 60 179 60 219 84.5 c 128,-1,42
 259 109 259 109 285 135 c 1,43,44
 281 134 281 134 276.5 133 c 128,-1,45
 272 132 272 132 267 132 c 0,46,47
 225 132 225 132 203.5 159 c 128,-1,48
 182 186 182 186 189 224 c 0,49,50
 192 242 192 242 202.5 258.5 c 128,-1,51
 213 275 213 275 227.5 287.5 c 128,-1,52
 242 300 242 300 260.5 307 c 128,-1,53
 279 314 279 314 299 314 c 0,54,55
 339 314 339 314 363 289 c 128,-1,56
 387 264 387 264 380 224 c 0,57,58
 375 197 375 197 357.5 166.5 c 128,-1,59
 340 136 340 136 308.5 106 c 128,-1,60
 277 76 277 76 231 48.5 c 128,-1,61
 185 21 185 21 124 0 c 1,62,-1
 51 0 l 1,63,64
 61 42 61 42 65.5 75.5 c 128,-1,65
 70 109 70 109 72.5 138.5 c 128,-1,66
 75 168 75 168 77 196 c 128,-1,67
 79 224 79 224 84 254 c 0,68,69
 89 282 89 282 102 309.5 c 128,-1,70
 115 337 115 337 136 359 c 128,-1,71
 157 381 157 381 185 394.5 c 128,-1,72
 213 408 213 408 247 408 c 0,73,74
 276 408 276 408 293 397.5 c 128,-1,75
 310 387 310 387 316 370 c 1,76,77
 329 384 329 384 350.5 396 c 128,-1,78
 372 408 372 408 401 408 c 0,79,80
 452 408 452 408 479 378.5 c 128,-1,81
 506 349 506 349 496 293 c 2,82,-1
 476 179 l 1,83,84
 494 171 494 171 513 157.5 c 128,-1,85
 532 144 532 144 550.5 128 c 128,-1,86
 569 112 569 112 584.5 96 c 128,-1,87
 600 80 600 80 610 67 c 1,88,-1
 669 400 l 1,89,-1
 749 400 l 1,90,-1
 679 0 l 1,91,-1
 605 0 l 1,0,1
497 86 m 0,92,93
 501 109 501 109 487 126 c 128,-1,94
 473 143 473 143 450 143 c 256,95,96
 427 143 427 143 407 126 c 128,-1,97
 387 109 387 109 383 86 c 0,98,99
 378 63 378 63 392.5 46 c 128,-1,100
 407 29 407 29 430 29 c 256,101,102
 453 29 453 29 472.5 46 c 128,-1,103
 492 63 492 63 497 86 c 0,92,93
340 223 m 0,104,105
 344 246 344 246 330 263 c 128,-1,106
 316 280 316 280 293 280 c 256,107,108
 270 280 270 280 250 263 c 128,-1,109
 230 246 230 246 226 223 c 0,110,111
 221 200 221 200 235.5 183 c 128,-1,112
 250 166 250 166 273 166 c 256,113,114
 296 166 296 166 315.5 183 c 128,-1,115
 335 200 335 200 340 223 c 0,104,105
EndSplineSet
EndChar
StartChar: uni0E13
Encoding: 3603 3603 230
Width: 712
Flags: W
Fore
703 86 m 0,0,1
 699 66 699 66 688 49 c 128,-1,2
 677 32 677 32 661 19.5 c 128,-1,3
 645 7 645 7 625 -0.5 c 128,-1,4
 605 -8 605 -8 584 -8 c 0,5,6
 543 -8 543 -8 518.5 17.5 c 128,-1,7
 494 43 494 43 499 81 c 1,8,9
 493 77 493 77 483 67.5 c 128,-1,10
 473 58 473 58 462.5 46.5 c 128,-1,11
 452 35 452 35 442.5 22.5 c 128,-1,12
 433 10 433 10 429 0 c 1,13,-1
 348 0 l 1,14,-1
 397 280 l 2,15,16
 405 324 405 324 377 348 c 128,-1,17
 349 372 349 372 298 372 c 0,18,19
 272 372 272 372 249 365.5 c 128,-1,20
 226 359 226 359 207.5 346 c 128,-1,21
 189 333 189 333 176.5 315 c 128,-1,22
 164 297 164 297 160 275 c 1,23,-1
 223 275 l 1,24,-1
 218 249 l 1,25,26
 171 232 171 232 162 184 c 2,27,-1
 160 173 l 1,28,29
 181 181 181 181 199 181 c 0,30,31
 218 181 218 181 233.5 173.5 c 128,-1,32
 249 166 249 166 259.5 153.5 c 128,-1,33
 270 141 270 141 274.5 124 c 128,-1,34
 279 107 279 107 276 88 c 0,35,36
 269 50 269 50 237.5 22.5 c 128,-1,37
 206 -5 206 -5 159 -5 c 0,38,39
 108 -5 108 -5 83.5 24 c 128,-1,40
 59 53 59 53 68 104 c 2,41,-1
 80 175 l 2,42,43
 82 186 82 186 89 198 c 128,-1,44
 96 210 96 210 107 220 c 128,-1,45
 118 230 118 230 132.5 237.5 c 128,-1,46
 147 245 147 245 165 248 c 1,47,-1
 70 248 l 1,48,49
 80 287 80 287 102.5 317 c 128,-1,50
 125 347 125 347 156.5 367 c 128,-1,51
 188 387 188 387 225.5 397 c 128,-1,52
 263 407 263 407 304 407 c 0,53,54
 341 407 341 407 375 399 c 128,-1,55
 409 391 409 391 433.5 374.5 c 128,-1,56
 458 358 458 358 469.5 332 c 128,-1,57
 481 306 481 306 475 270 c 2,58,-1
 440 70 l 1,59,60
 455 87 455 87 473.5 104.5 c 128,-1,61
 492 122 492 122 513.5 137.5 c 128,-1,62
 535 153 535 153 559.5 166 c 128,-1,63
 584 179 584 179 613 186 c 1,64,-1
 651 400 l 1,65,-1
 731 400 l 1,66,-1
 692 181 l 1,67,68
 682 178 682 178 675.5 175 c 128,-1,69
 669 172 669 172 660 167 c 1,70,71
 682 159 682 159 695 135.5 c 128,-1,72
 708 112 708 112 703 86 c 0,0,1
658 86 m 0,73,74
 662 109 662 109 648 126 c 128,-1,75
 634 143 634 143 611 143 c 256,76,77
 588 143 588 143 568 126 c 128,-1,78
 548 109 548 109 544 86 c 0,79,80
 539 63 539 63 553.5 46 c 128,-1,81
 568 29 568 29 591 29 c 256,82,83
 614 29 614 29 633.5 46 c 128,-1,84
 653 63 653 63 658 86 c 0,73,74
240 88 m 256,85,86
 244 111 244 111 230 128 c 128,-1,87
 216 145 216 145 193 145 c 256,88,89
 170 145 170 145 150 128 c 128,-1,90
 130 111 130 111 126 88 c 256,91,92
 122 65 122 65 136 48 c 128,-1,93
 150 31 150 31 173 31 c 256,94,95
 196 31 196 31 216 48 c 128,-1,96
 236 65 236 65 240 88 c 256,85,86
EndSplineSet
EndChar
StartChar: uni0E14
Encoding: 3604 3604 231
Width: 495
Flags: W
Fore
365 0 m 1,0,-1
 414 279 l 2,1,2
 421 320 421 320 392.5 346 c 128,-1,3
 364 372 364 372 312 372 c 0,4,5
 285 372 285 372 261 364.5 c 128,-1,6
 237 357 237 357 217.5 343 c 128,-1,7
 198 329 198 329 184.5 309.5 c 128,-1,8
 171 290 171 290 167 265 c 0,9,10
 162 236 162 236 160 210 c 128,-1,11
 158 184 158 184 155.5 158.5 c 128,-1,12
 153 133 153 133 150 106 c 128,-1,13
 147 79 147 79 140 49 c 1,14,15
 159 56 159 56 179.5 66 c 128,-1,16
 200 76 200 76 219.5 88.5 c 128,-1,17
 239 101 239 101 256.5 114.5 c 128,-1,18
 274 128 274 128 287 142 c 1,19,20
 282 140 282 140 275.5 139 c 128,-1,21
 269 138 269 138 263 138 c 0,22,23
 221 138 221 138 199.5 165 c 128,-1,24
 178 192 178 192 185 230 c 0,25,26
 188 248 188 248 198.5 264.5 c 128,-1,27
 209 281 209 281 223.5 293.5 c 128,-1,28
 238 306 238 306 256.5 313 c 128,-1,29
 275 320 275 320 295 320 c 0,30,31
 335 320 335 320 359 295 c 128,-1,32
 383 270 383 270 376 230 c 0,33,34
 371 203 371 203 353 171.5 c 128,-1,35
 335 140 335 140 303.5 108.5 c 128,-1,36
 272 77 272 77 226 49 c 128,-1,37
 180 21 180 21 119 0 c 1,38,-1
 51 0 l 1,39,40
 61 42 61 42 65.5 75.5 c 128,-1,41
 70 109 70 109 72.5 138.5 c 128,-1,42
 75 168 75 168 77 196 c 128,-1,43
 79 224 79 224 84 254 c 0,44,45
 91 291 91 291 113.5 319.5 c 128,-1,46
 136 348 136 348 168.5 367.5 c 128,-1,47
 201 387 201 387 240 397 c 128,-1,48
 279 407 279 407 318 407 c 0,49,50
 358 407 358 407 392.5 398.5 c 128,-1,51
 427 390 427 390 451 372.5 c 128,-1,52
 475 355 475 355 486.5 328 c 128,-1,53
 498 301 498 301 491 264 c 2,54,-1
 445 0 l 1,55,-1
 365 0 l 1,0,-1
336 229 m 0,56,57
 340 252 340 252 326 269 c 128,-1,58
 312 286 312 286 289 286 c 256,59,60
 266 286 266 286 246 269 c 128,-1,61
 226 252 226 252 222 229 c 0,62,63
 217 206 217 206 231.5 189 c 128,-1,64
 246 172 246 172 269 172 c 256,65,66
 292 172 292 172 311.5 189 c 128,-1,67
 331 206 331 206 336 229 c 0,56,57
EndSplineSet
EndChar
StartChar: uni0E15
Encoding: 3605 3605 232
Width: 495
Flags: W
Fore
365 0 m 1,0,-1
 418 301 l 2,1,2
 423 334 423 334 415 353 c 128,-1,3
 407 372 407 372 381 372 c 0,4,5
 361 372 361 372 347 362 c 128,-1,6
 333 352 333 352 322 338 c 1,7,-1
 293 338 l 1,8,9
 289 355 289 355 280.5 363.5 c 128,-1,10
 272 372 272 372 255 372 c 0,11,12
 220 372 220 372 198 342 c 128,-1,13
 176 312 176 312 168 271 c 0,14,15
 159 220 159 220 156 163.5 c 128,-1,16
 153 107 153 107 141 47 c 1,17,18
 179 60 179 60 219 84.5 c 128,-1,19
 259 109 259 109 285 135 c 1,20,21
 281 134 281 134 276.5 133 c 128,-1,22
 272 132 272 132 267 132 c 0,23,24
 225 132 225 132 203.5 159 c 128,-1,25
 182 186 182 186 189 224 c 0,26,27
 192 242 192 242 202.5 258.5 c 128,-1,28
 213 275 213 275 227.5 287.5 c 128,-1,29
 242 300 242 300 260.5 307 c 128,-1,30
 279 314 279 314 299 314 c 0,31,32
 339 314 339 314 363 289 c 128,-1,33
 387 264 387 264 380 224 c 0,34,35
 375 197 375 197 357.5 166.5 c 128,-1,36
 340 136 340 136 308.5 106 c 128,-1,37
 277 76 277 76 231 48.5 c 128,-1,38
 185 21 185 21 124 0 c 1,39,-1
 51 0 l 1,40,41
 61 42 61 42 65.5 75.5 c 128,-1,42
 70 109 70 109 72.5 138.5 c 128,-1,43
 75 168 75 168 77 196 c 128,-1,44
 79 224 79 224 84 254 c 0,45,46
 89 282 89 282 102 309.5 c 128,-1,47
 115 337 115 337 136 359 c 128,-1,48
 157 381 157 381 185 394.5 c 128,-1,49
 213 408 213 408 247 408 c 0,50,51
 276 408 276 408 293 397.5 c 128,-1,52
 310 387 310 387 316 370 c 1,53,54
 329 384 329 384 350.5 396 c 128,-1,55
 372 408 372 408 401 408 c 0,56,57
 452 408 452 408 479 378.5 c 128,-1,58
 506 349 506 349 496 293 c 2,59,-1
 445 0 l 1,60,-1
 365 0 l 1,0,-1
340 223 m 0,61,62
 344 246 344 246 330 263 c 128,-1,63
 316 280 316 280 293 280 c 256,64,65
 270 280 270 280 250 263 c 128,-1,66
 230 246 230 246 226 223 c 0,67,68
 221 200 221 200 235.5 183 c 128,-1,69
 250 166 250 166 273 166 c 256,70,71
 296 166 296 166 315.5 183 c 128,-1,72
 335 200 335 200 340 223 c 0,61,62
EndSplineSet
EndChar
StartChar: uni0E16
Encoding: 3606 3606 233
Width: 478
Flags: W
Fore
348 0 m 1,0,-1
 397 280 l 2,1,2
 405 324 405 324 377 348 c 128,-1,3
 349 372 349 372 298 372 c 0,4,5
 272 372 272 372 249 365.5 c 128,-1,6
 226 359 226 359 207.5 346 c 128,-1,7
 189 333 189 333 176.5 315 c 128,-1,8
 164 297 164 297 160 275 c 1,9,-1
 223 275 l 1,10,-1
 218 249 l 1,11,12
 171 232 171 232 162 184 c 2,13,-1
 160 173 l 1,14,15
 181 181 181 181 199 181 c 0,16,17
 218 181 218 181 233.5 173.5 c 128,-1,18
 249 166 249 166 259.5 153.5 c 128,-1,19
 270 141 270 141 274.5 124 c 128,-1,20
 279 107 279 107 276 88 c 0,21,22
 269 50 269 50 237.5 22.5 c 128,-1,23
 206 -5 206 -5 159 -5 c 0,24,25
 108 -5 108 -5 83.5 24 c 128,-1,26
 59 53 59 53 68 104 c 2,27,-1
 80 175 l 2,28,29
 82 186 82 186 89 198 c 128,-1,30
 96 210 96 210 107 220 c 128,-1,31
 118 230 118 230 132.5 237.5 c 128,-1,32
 147 245 147 245 165 248 c 1,33,-1
 70 248 l 1,34,35
 80 287 80 287 102.5 317 c 128,-1,36
 125 347 125 347 156.5 367 c 128,-1,37
 188 387 188 387 225.5 397 c 128,-1,38
 263 407 263 407 304 407 c 0,39,40
 341 407 341 407 375 399 c 128,-1,41
 409 391 409 391 433.5 374.5 c 128,-1,42
 458 358 458 358 469.5 332 c 128,-1,43
 481 306 481 306 475 270 c 2,44,-1
 428 0 l 1,45,-1
 348 0 l 1,0,-1
240 88 m 256,46,47
 244 111 244 111 230 128 c 128,-1,48
 216 145 216 145 193 145 c 256,49,50
 170 145 170 145 150 128 c 128,-1,51
 130 111 130 111 126 88 c 256,52,53
 122 65 122 65 136 48 c 128,-1,54
 150 31 150 31 173 31 c 256,55,56
 196 31 196 31 216 48 c 128,-1,57
 236 65 236 65 240 88 c 256,46,47
EndSplineSet
EndChar
StartChar: uni0E17
Encoding: 3607 3607 234
Width: 539
Flags: W
Fore
409 0 m 1,0,-1
 465 323 l 1,1,-1
 221 0 l 1,2,-1
 141 0 l 1,3,-1
 181 229 l 1,4,5
 160 221 160 221 141 221 c 256,6,7
 122 221 122 221 106.5 228.5 c 128,-1,8
 91 236 91 236 80.5 248.5 c 128,-1,9
 70 261 70 261 66 278 c 128,-1,10
 62 295 62 295 65 314 c 0,11,12
 72 352 72 352 103.5 379.5 c 128,-1,13
 135 407 135 407 182 407 c 0,14,15
 233 407 233 407 257.5 378 c 128,-1,16
 282 349 282 349 273 298 c 2,17,-1
 235 80 l 1,18,-1
 481 405 l 1,19,20
 519 405 519 405 537 390 c 128,-1,21
 555 375 555 375 550 346 c 2,22,-1
 489 0 l 1,23,-1
 409 0 l 1,0,-1
215 314 m 0,24,25
 219 337 219 337 205 354 c 128,-1,26
 191 371 191 371 168 371 c 256,27,28
 145 371 145 371 125 354 c 128,-1,29
 105 337 105 337 101 314 c 0,30,31
 96 291 96 291 110.5 274 c 128,-1,32
 125 257 125 257 148 257 c 256,33,34
 171 257 171 257 190.5 274 c 128,-1,35
 210 291 210 291 215 314 c 0,24,25
EndSplineSet
EndChar
StartChar: uni0E18
Encoding: 3608 3608 235
Width: 457
Flags: W
Fore
490 400 m 1,0,1
 479 362 479 362 450.5 345.5 c 128,-1,2
 422 329 422 329 384 329 c 0,3,4
 361 329 361 329 346 334.5 c 128,-1,5
 331 340 331 340 317.5 346 c 128,-1,6
 304 352 304 352 290 357.5 c 128,-1,7
 276 363 276 363 256 363 c 0,8,9
 221 363 221 363 196.5 341 c 128,-1,10
 172 319 172 319 162 287 c 1,11,-1
 457 287 l 1,12,-1
 407 0 l 1,13,-1
 55 0 l 1,14,-1
 92 212 l 1,15,-1
 172 212 l 1,16,-1
 142 40 l 1,17,-1
 334 40 l 1,18,-1
 371 252 l 1,19,-1
 70 252 l 1,20,21
 87 328 87 328 129.5 366.5 c 128,-1,22
 172 405 172 405 236 405 c 0,23,24
 261 405 261 405 277 400 c 128,-1,25
 293 395 293 395 305.5 388.5 c 128,-1,26
 318 382 318 382 328.5 377 c 128,-1,27
 339 372 339 372 353 372 c 0,28,29
 370 372 370 372 380.5 380.5 c 128,-1,30
 391 389 391 389 395 400 c 1,31,-1
 490 400 l 1,32,-1
 490 400 l 1,0,1
EndSplineSet
EndChar
StartChar: uni0E19
Encoding: 3609 3609 236
Width: 530
Flags: W
Fore
525 86 m 0,0,1
 521 66 521 66 510 49 c 128,-1,2
 499 32 499 32 483 19.5 c 128,-1,3
 467 7 467 7 447.5 -0.5 c 128,-1,4
 428 -8 428 -8 407 -8 c 0,5,6
 366 -8 366 -8 341.5 17.5 c 128,-1,7
 317 43 317 43 322 81 c 1,8,9
 293 62 293 62 264.5 40 c 128,-1,10
 236 18 236 18 216 -1 c 1,11,-1
 143 -1 l 1,12,-1
 184 232 l 1,13,14
 175 228 175 228 164.5 226.5 c 128,-1,15
 154 225 154 225 145 225 c 0,16,17
 125 225 125 225 109 232 c 128,-1,18
 93 239 93 239 82 251.5 c 128,-1,19
 71 264 71 264 66.5 280.5 c 128,-1,20
 62 297 62 297 65 316 c 0,21,22
 72 352 72 352 104 379.5 c 128,-1,23
 136 407 136 407 182 407 c 0,24,25
 233 407 233 407 259 377.5 c 128,-1,26
 285 348 285 348 276 298 c 2,27,-1
 237 77 l 1,28,29
 281 110 281 110 332.5 138.5 c 128,-1,30
 384 167 384 167 435 186 c 1,31,-1
 473 400 l 1,32,-1
 553 400 l 1,33,-1
 514 181 l 1,34,35
 504 178 504 178 497.5 175 c 128,-1,36
 491 172 491 172 482 167 c 1,37,38
 504 159 504 159 517 135.5 c 128,-1,39
 530 112 530 112 525 86 c 0,0,1
480 86 m 0,40,41
 484 109 484 109 470 126 c 128,-1,42
 456 143 456 143 433 143 c 256,43,44
 410 143 410 143 390 126 c 128,-1,45
 370 109 370 109 366 86 c 0,46,47
 361 63 361 63 375.5 46 c 128,-1,48
 390 29 390 29 413 29 c 256,49,50
 436 29 436 29 455.5 46 c 128,-1,51
 475 63 475 63 480 86 c 0,40,41
214 314 m 0,52,53
 218 337 218 337 204 354 c 128,-1,54
 190 371 190 371 167 371 c 256,55,56
 144 371 144 371 124 354 c 128,-1,57
 104 337 104 337 100 314 c 0,58,59
 95 291 95 291 109.5 274 c 128,-1,60
 124 257 124 257 147 257 c 256,61,62
 170 257 170 257 189.5 274 c 128,-1,63
 209 291 209 291 214 314 c 0,52,53
EndSplineSet
EndChar
StartChar: uni0E1A
Encoding: 3610 3610 237
Width: 540
Flags: W
Fore
141 0 m 1,0,-1
 181 229 l 1,1,2
 160 221 160 221 141 221 c 256,3,4
 122 221 122 221 106.5 228.5 c 128,-1,5
 91 236 91 236 80.5 248.5 c 128,-1,6
 70 261 70 261 66 278 c 128,-1,7
 62 295 62 295 65 314 c 0,8,9
 72 352 72 352 103.5 379.5 c 128,-1,10
 135 407 135 407 182 407 c 0,11,12
 233 407 233 407 257.5 378 c 128,-1,13
 282 349 282 349 273 298 c 2,14,-1
 228 40 l 1,15,-1
 417 40 l 1,16,-1
 480 400 l 1,17,-1
 560 400 l 1,18,-1
 490 0 l 1,19,-1
 141 0 l 1,0,-1
215 314 m 0,20,21
 219 337 219 337 205 354 c 128,-1,22
 191 371 191 371 168 371 c 256,23,24
 145 371 145 371 125 354 c 128,-1,25
 105 337 105 337 101 314 c 0,26,27
 96 291 96 291 110.5 274 c 128,-1,28
 125 257 125 257 148 257 c 256,29,30
 171 257 171 257 190.5 274 c 128,-1,31
 210 291 210 291 215 314 c 0,20,21
EndSplineSet
EndChar
StartChar: uni0E1B
Encoding: 3611 3611 238
Width: 540
Flags: W
Fore
141 0 m 1,0,-1
 181 229 l 1,1,2
 160 221 160 221 141 221 c 256,3,4
 122 221 122 221 106.5 228.5 c 128,-1,5
 91 236 91 236 80.5 248.5 c 128,-1,6
 70 261 70 261 66 278 c 128,-1,7
 62 295 62 295 65 314 c 0,8,9
 72 352 72 352 103.5 379.5 c 128,-1,10
 135 407 135 407 182 407 c 0,11,12
 233 407 233 407 257.5 378 c 128,-1,13
 282 349 282 349 273 298 c 2,14,-1
 228 40 l 1,15,-1
 417 40 l 1,16,-1
 503 530 l 1,17,-1
 583 530 l 1,18,-1
 490 0 l 1,19,-1
 141 0 l 1,0,-1
215 314 m 0,20,21
 219 337 219 337 205 354 c 128,-1,22
 191 371 191 371 168 371 c 256,23,24
 145 371 145 371 125 354 c 128,-1,25
 105 337 105 337 101 314 c 0,26,27
 96 291 96 291 110.5 274 c 128,-1,28
 125 257 125 257 148 257 c 256,29,30
 171 257 171 257 190.5 274 c 128,-1,31
 210 291 210 291 215 314 c 0,20,21
EndSplineSet
EndChar
StartChar: uni0E1C
Encoding: 3612 3612 239
Width: 503
Flags: W
Fore
376 0 m 1,0,-1
 280 162 l 1,1,-1
 128 0 l 1,2,-1
 50 0 l 1,3,4
 59 47 59 47 63.5 87.5 c 128,-1,5
 68 128 68 128 71.5 163.5 c 128,-1,6
 75 199 75 199 79 231.5 c 128,-1,7
 83 264 83 264 91 294 c 0,8,9
 105 348 105 348 140 377.5 c 128,-1,10
 175 407 175 407 225 407 c 0,11,12
 271 407 271 407 294 379.5 c 128,-1,13
 317 352 317 352 310 316 c 0,14,15
 307 297 307 297 296 280.5 c 128,-1,16
 285 264 285 264 270 251.5 c 128,-1,17
 255 239 255 239 236 232 c 128,-1,18
 217 225 217 225 198 225 c 0,19,20
 178 225 178 225 162 231 c 1,21,22
 156 193 156 193 153.5 150 c 128,-1,23
 151 107 151 107 141 68 c 1,24,-1
 292 222 l 1,25,-1
 385 69 l 1,26,-1
 443 400 l 1,27,-1
 523 400 l 1,28,-1
 453 0 l 1,29,-1
 376 0 l 1,0,-1
273 316 m 0,30,31
 278 339 278 339 263 357 c 128,-1,32
 248 375 248 375 225 375 c 0,33,34
 201 375 201 375 180 357 c 128,-1,35
 159 339 159 339 154 316 c 0,36,37
 150 292 150 292 165 274 c 128,-1,38
 180 256 180 256 204 256 c 0,39,40
 227 256 227 256 248 274 c 128,-1,41
 269 292 269 292 273 316 c 0,30,31
EndSplineSet
EndChar
StartChar: uni0E1D
Encoding: 3613 3613 240
Width: 503
Flags: W
Fore
376 0 m 1,0,-1
 280 162 l 1,1,-1
 128 0 l 1,2,-1
 50 0 l 1,3,4
 59 47 59 47 63.5 87.5 c 128,-1,5
 68 128 68 128 71.5 163.5 c 128,-1,6
 75 199 75 199 79 231.5 c 128,-1,7
 83 264 83 264 91 294 c 0,8,9
 105 348 105 348 140 377.5 c 128,-1,10
 175 407 175 407 225 407 c 0,11,12
 271 407 271 407 294 379.5 c 128,-1,13
 317 352 317 352 310 316 c 0,14,15
 307 297 307 297 296 280.5 c 128,-1,16
 285 264 285 264 270 251.5 c 128,-1,17
 255 239 255 239 236 232 c 128,-1,18
 217 225 217 225 198 225 c 0,19,20
 178 225 178 225 162 231 c 1,21,22
 156 193 156 193 153.5 150 c 128,-1,23
 151 107 151 107 141 68 c 1,24,-1
 292 222 l 1,25,-1
 385 69 l 1,26,-1
 466 530 l 1,27,-1
 546 530 l 1,28,-1
 453 0 l 1,29,-1
 376 0 l 1,0,-1
273 316 m 0,30,31
 278 339 278 339 263 357 c 128,-1,32
 248 375 248 375 225 375 c 0,33,34
 201 375 201 375 180 357 c 128,-1,35
 159 339 159 339 154 316 c 0,36,37
 150 292 150 292 165 274 c 128,-1,38
 180 256 180 256 204 256 c 0,39,40
 227 256 227 256 248 274 c 128,-1,41
 269 292 269 292 273 316 c 0,30,31
EndSplineSet
EndChar
StartChar: uni0E1E
Encoding: 3614 3614 241
Width: 584
Flags: W
Fore
445 0 m 1,0,-1
 390 296 l 1,1,-1
 231 0 l 1,2,-1
 141 0 l 1,3,-1
 181 229 l 1,4,5
 160 221 160 221 141 221 c 256,6,7
 122 221 122 221 106.5 228.5 c 128,-1,8
 91 236 91 236 80.5 248.5 c 128,-1,9
 70 261 70 261 66 278 c 128,-1,10
 62 295 62 295 65 314 c 0,11,12
 72 352 72 352 103.5 379.5 c 128,-1,13
 135 407 135 407 182 407 c 0,14,15
 233 407 233 407 257.5 378 c 128,-1,16
 282 349 282 349 273 298 c 2,17,-1
 237 95 l 1,18,-1
 411 410 l 1,19,-1
 470 96 l 1,20,-1
 524 400 l 1,21,-1
 604 400 l 1,22,-1
 534 0 l 1,23,-1
 445 0 l 1,0,-1
215 314 m 0,24,25
 219 337 219 337 205 354 c 128,-1,26
 191 371 191 371 168 371 c 256,27,28
 145 371 145 371 125 354 c 128,-1,29
 105 337 105 337 101 314 c 0,30,31
 96 291 96 291 110.5 274 c 128,-1,32
 125 257 125 257 148 257 c 256,33,34
 171 257 171 257 190.5 274 c 128,-1,35
 210 291 210 291 215 314 c 0,24,25
EndSplineSet
EndChar
StartChar: uni0E1F
Encoding: 3615 3615 242
Width: 584
Flags: W
Fore
445 0 m 1,0,-1
 390 296 l 1,1,-1
 231 0 l 1,2,-1
 141 0 l 1,3,-1
 181 229 l 1,4,5
 160 221 160 221 141 221 c 256,6,7
 122 221 122 221 106.5 228.5 c 128,-1,8
 91 236 91 236 80.5 248.5 c 128,-1,9
 70 261 70 261 66 278 c 128,-1,10
 62 295 62 295 65 314 c 0,11,12
 72 352 72 352 103.5 379.5 c 128,-1,13
 135 407 135 407 182 407 c 0,14,15
 233 407 233 407 257.5 378 c 128,-1,16
 282 349 282 349 273 298 c 2,17,-1
 237 95 l 1,18,-1
 411 410 l 1,19,-1
 470 96 l 1,20,-1
 547 530 l 1,21,-1
 627 530 l 1,22,-1
 534 0 l 1,23,-1
 445 0 l 1,0,-1
215 314 m 0,24,25
 219 337 219 337 205 354 c 128,-1,26
 191 371 191 371 168 371 c 256,27,28
 145 371 145 371 125 354 c 128,-1,29
 105 337 105 337 101 314 c 0,30,31
 96 291 96 291 110.5 274 c 128,-1,32
 125 257 125 257 148 257 c 256,33,34
 171 257 171 257 190.5 274 c 128,-1,35
 210 291 210 291 215 314 c 0,24,25
EndSplineSet
EndChar
StartChar: uni0E20
Encoding: 3616 3616 243
Width: 570
Flags: W
Fore
439 0 m 1,0,-1
 488 280 l 2,1,2
 496 324 496 324 468 348 c 128,-1,3
 440 372 440 372 389 372 c 0,4,5
 363 372 363 372 340 365.5 c 128,-1,6
 317 359 317 359 298.5 346 c 128,-1,7
 280 333 280 333 267.5 315 c 128,-1,8
 255 297 255 297 251 275 c 1,9,-1
 314 275 l 1,10,-1
 309 249 l 1,11,12
 262 232 262 232 253 184 c 2,13,-1
 239 106 l 2,14,15
 230 55 230 55 194 25 c 128,-1,16
 158 -5 158 -5 107 -5 c 0,17,18
 62 -5 62 -5 40 23 c 128,-1,19
 18 51 18 51 25 88 c 0,20,21
 28 107 28 107 38.5 123.5 c 128,-1,22
 49 140 49 140 64 152.5 c 128,-1,23
 79 165 79 165 97 172 c 128,-1,24
 115 179 115 179 134 179 c 0,25,26
 144 179 144 179 153.5 178 c 128,-1,27
 163 177 163 177 171 174 c 1,28,-1
 173 183 l 2,29,30
 177 205 177 205 200 222.5 c 128,-1,31
 223 240 223 240 256 248 c 1,32,-1
 161 248 l 1,33,34
 171 287 171 287 193.5 317 c 128,-1,35
 216 347 216 347 247.5 367 c 128,-1,36
 279 387 279 387 316.5 397 c 128,-1,37
 354 407 354 407 395 407 c 0,38,39
 432 407 432 407 466 399 c 128,-1,40
 500 391 500 391 524.5 374.5 c 128,-1,41
 549 358 549 358 560.5 332 c 128,-1,42
 572 306 572 306 566 270 c 2,43,-1
 519 0 l 1,44,-1
 439 0 l 1,0,-1
175 88 m 256,45,46
 179 111 179 111 165 128 c 128,-1,47
 151 145 151 145 128 145 c 256,48,49
 105 145 105 145 85 128 c 128,-1,50
 65 111 65 111 61 88 c 256,51,52
 57 65 57 65 71 48 c 128,-1,53
 85 31 85 31 108 31 c 256,54,55
 131 31 131 31 151 48 c 128,-1,56
 171 65 171 65 175 88 c 256,45,46
EndSplineSet
EndChar
StartChar: uni0E21
Encoding: 3617 3617 244
Width: 526
Flags: W
Fore
397 0 m 1,0,-1
 259 106 l 1,1,-1
 257 94 l 2,2,3
 249 47 249 47 215.5 21 c 128,-1,4
 182 -5 182 -5 130 -5 c 0,5,6
 108 -5 108 -5 91 2 c 128,-1,7
 74 9 74 9 63 21 c 128,-1,8
 52 33 52 33 47.5 49.5 c 128,-1,9
 43 66 43 66 46 85 c 0,10,11
 54 126 54 126 87.5 150.5 c 128,-1,12
 121 175 121 175 166 175 c 0,13,14
 176 175 176 175 181.5 174.5 c 128,-1,15
 187 174 187 174 191 174 c 1,16,17
 195 196 195 196 197 207.5 c 128,-1,18
 199 219 199 219 200 224 c 0,19,20
 201 228 201 228 201 229 c 1,21,22
 180 221 180 221 161 221 c 256,23,24
 142 221 142 221 126.5 228.5 c 128,-1,25
 111 236 111 236 100.5 248.5 c 128,-1,26
 90 261 90 261 86 278 c 128,-1,27
 82 295 82 295 85 314 c 0,28,29
 92 352 92 352 123.5 379.5 c 128,-1,30
 155 407 155 407 202 407 c 0,31,32
 253 407 253 407 277.5 378 c 128,-1,33
 302 349 302 349 293 298 c 2,34,-1
 267 152 l 1,35,-1
 404 50 l 1,36,-1
 466 400 l 1,37,-1
 546 400 l 1,38,-1
 476 0 l 1,39,-1
 397 0 l 1,0,-1
235 314 m 0,40,41
 239 337 239 337 225 354 c 128,-1,42
 211 371 211 371 188 371 c 256,43,44
 165 371 165 371 145 354 c 128,-1,45
 125 337 125 337 121 314 c 0,46,47
 116 291 116 291 130.5 274 c 128,-1,48
 145 257 145 257 168 257 c 256,49,50
 191 257 191 257 210.5 274 c 128,-1,51
 230 291 230 291 235 314 c 0,40,41
184 132 m 1,52,53
 179 133 179 133 170.5 133.5 c 128,-1,54
 162 134 162 134 154 134 c 0,55,56
 132 134 132 134 114 120.5 c 128,-1,57
 96 107 96 107 91 84 c 0,58,59
 87 63 87 63 98.5 50.5 c 128,-1,60
 110 38 110 38 127 38 c 0,61,62
 143 38 143 38 157 48.5 c 128,-1,63
 171 59 171 59 175 81 c 2,64,-1
 184 132 l 1,52,53
EndSplineSet
EndChar
StartChar: uni0E22
Encoding: 3618 3618 245
Width: 490
Flags: W
Fore
82 0 m 1,0,-1
 98 94 l 2,1,2
 101 113 101 113 122.5 134 c 128,-1,3
 144 155 144 155 175 163 c 1,4,5
 119 166 119 166 90 199 c 128,-1,6
 61 232 61 232 69 281 c 0,7,8
 73 307 73 307 87.5 330 c 128,-1,9
 102 353 102 353 123 369.5 c 128,-1,10
 144 386 144 386 171 395.5 c 128,-1,11
 198 405 198 405 228 405 c 0,12,13
 261 405 261 405 282.5 396.5 c 128,-1,14
 304 388 304 388 316.5 374 c 128,-1,15
 329 360 329 360 332.5 342.5 c 128,-1,16
 336 325 336 325 333 307 c 0,17,18
 330 290 330 290 320 274.5 c 128,-1,19
 310 259 310 259 295 247 c 128,-1,20
 280 235 280 235 262 228 c 128,-1,21
 244 221 244 221 225 221 c 0,22,23
 183 221 183 221 163 246 c 128,-1,24
 143 271 143 271 150 307 c 0,25,26
 151 312 151 312 153.5 318.5 c 128,-1,27
 156 325 156 325 158 330 c 1,28,29
 150 326 150 326 141 311.5 c 128,-1,30
 132 297 132 297 129 283 c 0,31,32
 124 253 124 253 136 233 c 128,-1,33
 148 213 148 213 169 203 c 128,-1,34
 190 193 190 193 217 194 c 128,-1,35
 244 195 244 195 269 207 c 1,36,-1
 281 180 l 1,37,38
 255 172 255 172 234 161 c 0,39,40
 216 151 216 151 199.5 137 c 128,-1,41
 183 123 183 123 180 104 c 2,42,-1
 169 40 l 1,43,-1
 367 40 l 1,44,-1
 430 400 l 1,45,-1
 510 400 l 1,46,-1
 440 0 l 1,47,-1
 82 0 l 1,0,-1
295 308 m 256,48,49
 299 331 299 331 286 346.5 c 128,-1,50
 273 362 273 362 250 362 c 256,51,52
 227 362 227 362 209 346.5 c 128,-1,53
 191 331 191 331 187 308 c 256,54,55
 183 285 183 285 195.5 269.5 c 128,-1,56
 208 254 208 254 231 254 c 256,57,58
 254 254 254 254 272.5 269.5 c 128,-1,59
 291 285 291 285 295 308 c 256,48,49
EndSplineSet
EndChar
StartChar: uni0E23
Encoding: 3619 3619 246
Width: 436
Flags: W
Fore
484 400 m 1,0,1
 478 380 478 380 466.5 366.5 c 128,-1,2
 455 353 455 353 439.5 344.5 c 128,-1,3
 424 336 424 336 406 332.5 c 128,-1,4
 388 329 388 329 369 329 c 0,5,6
 346 329 346 329 328.5 334.5 c 128,-1,7
 311 340 311 340 295.5 346 c 128,-1,8
 280 352 280 352 264.5 357.5 c 128,-1,9
 249 363 249 363 230 363 c 0,10,11
 195 363 195 363 170.5 341 c 128,-1,12
 146 319 146 319 136 287 c 1,13,-1
 431 287 l 1,14,-1
 400 110 l 2,15,16
 395 83 395 83 381.5 61.5 c 128,-1,17
 368 40 368 40 349 25 c 128,-1,18
 330 10 330 10 306 1.5 c 128,-1,19
 282 -7 282 -7 256 -7 c 0,20,21
 215 -7 215 -7 191.5 20.5 c 128,-1,22
 168 48 168 48 175 87 c 0,23,24
 178 106 178 106 188.5 123.5 c 128,-1,25
 199 141 199 141 214.5 153.5 c 128,-1,26
 230 166 230 166 249 173.5 c 128,-1,27
 268 181 268 181 289 181 c 0,28,29
 314 181 314 181 331 172 c 1,30,-1
 345 252 l 1,31,-1
 44 252 l 1,32,33
 61 328 61 328 103.5 366.5 c 128,-1,34
 146 405 146 405 219 405 c 0,35,36
 244 405 244 405 262 399 c 128,-1,37
 280 393 280 393 294 386 c 128,-1,38
 308 379 308 379 320 373 c 128,-1,39
 332 367 332 367 346 367 c 0,40,41
 363 367 363 367 374 376 c 128,-1,42
 385 385 385 385 389 400 c 1,43,-1
 484 400 l 1,0,1
334 87 m 256,44,45
 339 112 339 112 324 130 c 128,-1,46
 309 148 309 148 284 148 c 256,47,48
 259 148 259 148 238 130 c 128,-1,49
 217 112 217 112 212 87 c 256,50,51
 207 62 207 62 222 44 c 128,-1,52
 237 26 237 26 262 26 c 256,53,54
 287 26 287 26 308 44 c 128,-1,55
 329 62 329 62 334 87 c 256,44,45
EndSplineSet
EndChar
StartChar: uni0E24
Encoding: 3620 3620 247
Width: 478
Flags: W
Fore
325 -130 m 1,0,-1
 397 280 l 2,1,2
 405 324 405 324 377 348 c 128,-1,3
 349 372 349 372 298 372 c 0,4,5
 272 372 272 372 249 365.5 c 128,-1,6
 226 359 226 359 207.5 346 c 128,-1,7
 189 333 189 333 176.5 315 c 128,-1,8
 164 297 164 297 160 275 c 1,9,-1
 223 275 l 1,10,-1
 218 249 l 1,11,12
 171 232 171 232 162 184 c 2,13,-1
 160 173 l 1,14,15
 181 181 181 181 199 181 c 0,16,17
 218 181 218 181 233.5 173.5 c 128,-1,18
 249 166 249 166 259.5 153.5 c 128,-1,19
 270 141 270 141 274.5 124 c 128,-1,20
 279 107 279 107 276 88 c 0,21,22
 269 50 269 50 237.5 22.5 c 128,-1,23
 206 -5 206 -5 159 -5 c 0,24,25
 108 -5 108 -5 83.5 24 c 128,-1,26
 59 53 59 53 68 104 c 2,27,-1
 80 175 l 2,28,29
 82 186 82 186 89 198 c 128,-1,30
 96 210 96 210 107 220 c 128,-1,31
 118 230 118 230 132.5 237.5 c 128,-1,32
 147 245 147 245 165 248 c 1,33,-1
 70 248 l 1,34,35
 80 287 80 287 102.5 317 c 128,-1,36
 125 347 125 347 156.5 367 c 128,-1,37
 188 387 188 387 225.5 397 c 128,-1,38
 263 407 263 407 304 407 c 0,39,40
 341 407 341 407 375 399 c 128,-1,41
 409 391 409 391 433.5 374.5 c 128,-1,42
 458 358 458 358 469.5 332 c 128,-1,43
 481 306 481 306 475 270 c 2,44,-1
 405 -130 l 1,45,-1
 325 -130 l 1,0,-1
240 88 m 256,46,47
 244 111 244 111 230 128 c 128,-1,48
 216 145 216 145 193 145 c 256,49,50
 170 145 170 145 150 128 c 128,-1,51
 130 111 130 111 126 88 c 256,52,53
 122 65 122 65 136 48 c 128,-1,54
 150 31 150 31 173 31 c 256,55,56
 196 31 196 31 216 48 c 128,-1,57
 236 65 236 65 240 88 c 256,46,47
EndSplineSet
EndChar
StartChar: uni0E25
Encoding: 3621 3621 248
Width: 507
Flags: W
Fore
377 0 m 1,0,-1
 397 119 l 2,1,2
 402 149 402 149 395.5 173.5 c 128,-1,3
 389 198 389 198 373 215.5 c 128,-1,4
 357 233 357 233 332.5 243 c 128,-1,5
 308 253 308 253 277 253 c 0,6,7
 235 253 235 253 201.5 232 c 128,-1,8
 168 211 168 211 154 183 c 1,9,10
 171 190 171 190 196 190 c 0,11,12
 240 190 240 190 263.5 161 c 128,-1,13
 287 132 287 132 280 92 c 0,14,15
 276 72 276 72 265 54 c 128,-1,16
 254 36 254 36 237.5 22.5 c 128,-1,17
 221 9 221 9 201.5 1 c 128,-1,18
 182 -7 182 -7 161 -7 c 0,19,20
 109 -7 109 -7 80 27 c 128,-1,21
 51 61 51 61 62 125 c 0,22,23
 68 158 68 158 85.5 187.5 c 128,-1,24
 103 217 103 217 131 240 c 128,-1,25
 159 263 159 263 197 276.5 c 128,-1,26
 235 290 235 290 282 290 c 0,27,28
 336 290 336 290 368 272 c 128,-1,29
 400 254 400 254 417 232 c 1,30,-1
 426 278 l 2,31,32
 434 321 434 321 403.5 346.5 c 128,-1,33
 373 372 373 372 319 372 c 256,34,35
 265 372 265 372 226 346.5 c 128,-1,36
 187 321 187 321 170 283 c 1,37,-1
 88 283 l 1,38,39
 117 345 117 345 181.5 376 c 128,-1,40
 246 407 246 407 325 407 c 0,41,42
 369 407 369 407 404.5 398.5 c 128,-1,43
 440 390 440 390 464 371.5 c 128,-1,44
 488 353 488 353 498.5 325 c 128,-1,45
 509 297 509 297 502 258 c 2,46,-1
 457 0 l 1,47,-1
 377 0 l 1,0,-1
240 92 m 256,48,49
 245 117 245 117 229.5 135 c 128,-1,50
 214 153 214 153 189 153 c 256,51,52
 164 153 164 153 143.5 135 c 128,-1,53
 123 117 123 117 118 92 c 256,54,55
 113 67 113 67 128 49 c 128,-1,56
 143 31 143 31 168 31 c 256,57,58
 193 31 193 31 214 49 c 128,-1,59
 235 67 235 67 240 92 c 256,48,49
EndSplineSet
EndChar
